<svg width="29" height="29" viewBox="0 0 29 29" fill="none" xmlns="http://www.w3.org/2000/svg">
<path d="M26.2739 7.23813C25.9886 7.13926 25.693 7.06834 25.4056 6.98514C25.3086 4.28135 23.0415 2.44973 20.5123 2.85615C19.4787 -0.233605 15.4995 -0.986439 13.3702 1.43845C13.3115 1.39003 13.2515 1.34094 13.1914 1.29252C11.9326 0.260783 10.5167 -0.00789169 9.00872 0.579237C7.52871 1.15545 6.6665 2.28198 6.41187 3.86334C6.39412 3.97449 6.26373 4.10814 6.15314 4.15724C4.98306 4.67823 4.198 5.53744 3.828 6.76352C3.77407 6.94082 3.69283 7.01174 3.50441 7.0397C1.36973 7.35474 -0.141684 9.25592 0.0105496 11.421C0.160053 13.539 1.95477 15.2049 4.10311 15.2152C5.03562 15.2199 5.96814 15.2159 6.90066 15.2172C7.00715 15.2172 7.11297 15.2295 7.28022 15.239C6.94981 15.582 6.61462 15.9059 6.73272 16.3349C6.8358 16.7127 7.10136 17.0454 7.29592 17.3993C7.21946 17.3993 7.11774 17.3987 7.01534 17.3993C6.20571 17.4028 5.81523 17.786 5.81386 18.5838C5.81249 19.7649 5.81113 20.9467 5.81522 22.1284C5.81727 22.8308 6.23506 23.2447 6.9423 23.2563C7.06996 23.2584 7.19693 23.257 7.32459 23.257C7.34712 23.3006 7.36965 23.3443 7.39149 23.3879C7.26452 23.482 7.11843 23.5584 7.01193 23.6723C6.62281 24.0903 6.59756 24.6829 6.99145 25.0879C7.89461 26.0167 8.81211 26.9325 9.74258 27.834C10.1481 28.2268 10.7065 28.2056 11.1332 27.8354C11.2588 27.7263 11.3782 27.6103 11.5496 27.4521C11.5598 27.6199 11.5687 27.7099 11.5714 27.7999C11.5953 28.6407 11.9585 28.998 12.7934 28.9987C13.9648 29.0001 15.1363 29.0008 16.3077 28.9987C17.0361 28.9967 17.441 28.5923 17.4573 27.8599C17.4601 27.7433 17.469 27.6267 17.4785 27.4549C17.6109 27.5776 17.6922 27.6526 17.7727 27.729C18.3257 28.2534 18.8725 28.2493 19.4145 27.7106C20.2604 26.8684 21.1069 26.0269 21.9472 25.18C22.4415 24.6822 22.4292 24.0821 21.9315 23.5877C21.8414 23.4984 21.7554 23.4056 21.61 23.2549C21.8653 23.2549 22.0237 23.2604 22.1814 23.2543C22.7521 23.2311 23.1965 22.8267 23.2033 22.2689C23.2197 20.9739 23.2183 19.6783 23.204 18.3833C23.1985 17.8371 22.765 17.428 22.2175 17.4014C22.0414 17.3932 21.8639 17.4 21.5765 17.4C22.4312 16.6977 22.5855 15.9987 21.7131 15.2159C22.8647 15.2159 23.9085 15.2206 24.9523 15.2152C26.8911 15.2049 28.6141 13.745 28.9384 11.8445C29.2817 9.82941 28.1629 7.89004 26.2739 7.23813ZM21.9957 18.3022C22.1957 18.2988 22.2817 18.367 22.281 18.577C22.2749 19.7472 22.2756 20.9173 22.281 22.0882C22.2817 22.2805 22.2039 22.3507 22.0182 22.3487C21.5636 22.3439 21.1082 22.3494 20.6529 22.3473C20.4064 22.3466 20.1716 22.3562 20.0617 22.6392C19.9525 22.9201 20.1252 23.0872 20.2972 23.2577C20.6112 23.5707 20.9212 23.8884 21.2407 24.1953C21.3874 24.3358 21.3915 24.4435 21.2427 24.5901C20.4174 25.4043 19.5961 26.2233 18.7797 27.0464C18.6329 27.195 18.525 27.1896 18.3837 27.0437C18.0519 26.7 17.7072 26.3692 17.3741 26.0276C17.2048 25.8544 16.9877 25.7548 16.7972 25.894C16.6593 25.9956 16.5501 26.2158 16.5364 26.3918C16.5009 26.8548 16.5139 27.3226 16.5289 27.7883C16.5364 28.0304 16.4422 28.1027 16.2094 28.1013C15.0837 28.0931 13.9573 28.0924 12.8309 28.102C12.5845 28.104 12.4841 28.0331 12.4937 27.7733C12.5115 27.3076 12.5231 26.8398 12.4855 26.3767C12.4719 26.2029 12.3497 25.956 12.2111 25.8967C12.0711 25.8367 11.8035 25.9151 11.6725 26.0269C11.3093 26.3345 10.9823 26.6863 10.6526 27.0314C10.5017 27.1889 10.3925 27.1978 10.2327 27.0362C9.42582 26.2192 8.61209 25.4091 7.7929 24.6051C7.63247 24.4476 7.63657 24.3358 7.79494 24.1851C8.12399 23.8714 8.44074 23.5448 8.76364 23.2249C8.93226 23.0579 9.0647 22.884 8.95615 22.6249C8.85307 22.38 8.64759 22.348 8.42163 22.348C7.96698 22.348 7.51164 22.3398 7.05699 22.3507C6.82693 22.3562 6.73341 22.2819 6.73545 22.0391C6.74706 20.903 6.75047 19.767 6.74023 18.6302C6.73818 18.369 6.83307 18.2954 7.07951 18.3029C7.54509 18.3172 8.01408 18.3329 8.47761 18.2927C8.64554 18.2783 8.87218 18.1413 8.9384 17.9981C8.99643 17.8726 8.91724 17.6176 8.81143 17.4948C8.49126 17.1266 8.1315 16.7931 7.78266 16.4508C7.65909 16.3301 7.60994 16.2305 7.75876 16.0839C8.62438 15.2295 9.48453 14.3696 10.3474 13.5124C10.3699 13.4899 10.4054 13.4804 10.5044 13.4279C10.8867 13.8254 11.2676 14.2148 11.6411 14.6117C11.8049 14.7862 12.0165 14.9097 12.2084 14.7658C12.3544 14.656 12.4698 14.4262 12.4855 14.2407C12.5251 13.7893 12.508 13.3324 12.4951 12.8782C12.4882 12.6498 12.5524 12.553 12.8002 12.5557C13.9375 12.5652 15.0755 12.5646 16.2129 12.5557C16.4484 12.5543 16.5364 12.6287 16.5289 12.8694C16.5139 13.3351 16.4975 13.8036 16.5385 14.2659C16.5542 14.448 16.6853 14.6949 16.8341 14.7665C16.9597 14.8272 17.2341 14.7276 17.3611 14.611C17.7693 14.2359 18.1393 13.8207 18.5523 13.391C18.9776 13.8104 19.3572 14.1807 19.7327 14.5551C20.2242 15.044 20.7068 15.5425 21.2072 16.0219C21.3929 16.1992 21.3922 16.3158 21.2058 16.489C20.8727 16.7979 20.5594 17.1279 20.2385 17.4505C20.0788 17.6107 19.962 17.7812 20.0665 18.0247C20.1696 18.264 20.3641 18.3083 20.5962 18.3056C21.0625 18.3002 21.5294 18.3097 21.9957 18.3022ZM25.2267 14.2591C23.8075 14.3185 22.3841 14.2864 20.9621 14.2816C20.844 14.2809 20.7007 14.2073 20.6119 14.1227C20.216 13.7477 19.8364 13.3556 19.4487 12.971C18.8602 12.388 18.3298 12.3852 17.7318 12.9601C17.6669 13.0221 17.6 13.0821 17.4532 13.2185C17.4532 12.9989 17.4573 12.8667 17.4526 12.735C17.4287 12.0865 17.0348 11.644 16.3944 11.6331C15.1431 11.6106 13.8918 11.6119 12.6405 11.6317C11.9831 11.6426 11.5851 12.0879 11.568 12.7548C11.5646 12.8782 11.5673 13.0024 11.5673 13.2158C11.4171 13.0753 11.3223 12.9894 11.2301 12.9008C10.7202 12.4111 10.1419 12.4118 9.63335 12.9117C9.23604 13.3017 8.85307 13.7075 8.44552 14.0866C8.33356 14.1903 8.15676 14.2782 8.00794 14.2803C6.69995 14.2953 5.39197 14.3021 4.08399 14.285C2.53435 14.2653 1.29191 13.2772 0.958767 11.8315C0.624945 10.3872 1.28508 8.93201 2.6388 8.26782C3.04362 8.0687 3.52216 7.99438 3.97682 7.92959C4.40007 7.86822 4.53046 7.80139 4.61852 7.37724C4.8752 6.1382 5.59541 5.3015 6.8044 4.90939C7.14164 4.80029 7.30001 4.62163 7.31094 4.25067C7.34917 2.94821 8.21683 1.80532 9.45791 1.37571C10.6826 0.952244 12.0841 1.33753 12.9279 2.33039C13.3423 2.81796 13.5436 2.80296 13.9253 2.29016C14.7301 1.20796 15.8101 0.718347 17.1406 0.974065C18.4656 1.22842 19.3019 2.06717 19.6637 3.3669C19.8071 3.8838 19.9272 3.96699 20.4317 3.84834C22.6319 3.32803 24.5543 4.92712 24.4423 7.1829C24.4123 7.78435 24.5147 7.89686 25.1175 7.92141C26.7368 7.98756 28.0782 9.39707 28.111 11.0657C28.1431 12.6948 26.8296 14.193 25.2267 14.2591Z" fill="#0A948A"/>
<path d="M15.1103 5.41544C14.6236 5.39226 14.1341 5.40317 13.646 5.4093C13.2473 5.4134 13.0917 5.56751 13.0903 5.97188C13.0855 7.37867 13.0862 8.78546 13.0896 10.1923C13.091 10.553 13.2576 10.7487 13.5409 10.7528C13.8331 10.7562 14.003 10.5462 14.0051 10.1711C14.0078 9.64127 14.0058 9.11074 14.0058 8.53315C14.4167 8.53315 14.7683 8.5427 15.1192 8.53111C16.0927 8.50042 16.8047 7.83624 16.804 6.97021C16.804 6.11304 16.1063 5.46181 15.1103 5.41544ZM15.2721 7.58529C14.8721 7.63848 14.4638 7.63166 14.0263 7.6528V6.3558C14.4516 6.3558 14.8591 6.32921 15.2619 6.36398C15.623 6.39535 15.8954 6.6913 15.8981 6.97089C15.9008 7.25525 15.6524 7.53415 15.2721 7.58529Z" fill="#0A948A"/>
<path d="M12.3517 9.98016C11.9442 8.61224 11.5346 7.24568 11.1318 5.87708C11.0588 5.62886 10.9536 5.42428 10.6649 5.4161C10.357 5.40724 10.2437 5.61863 10.1665 5.8798C9.75489 7.26955 9.33437 8.65588 8.92068 10.0449C8.81418 10.4002 8.90429 10.6314 9.16848 10.7248C9.4511 10.8244 9.70642 10.6928 9.7897 10.3279C9.87094 9.97265 10.0416 9.8315 10.3966 9.89492C10.4847 9.9106 10.5789 9.90651 10.6683 9.8956C11.1154 9.84446 11.5093 9.869 11.5407 10.4589C11.5421 10.48 11.553 10.5127 11.568 10.5189C11.7421 10.5925 11.9333 10.7405 12.0903 10.7105C12.2411 10.6818 12.3572 10.4684 12.4589 10.3668C12.4057 10.1759 12.3804 10.077 12.3517 9.98016ZM10.2211 8.9416C10.3536 8.48744 10.4792 8.05511 10.6048 7.62278C10.6335 7.6255 10.6621 7.62891 10.6915 7.63164C10.8198 8.05852 10.9489 8.48608 11.0861 8.9416H10.2211Z" fill="#0A948A"/>
<path d="M20.1484 10.3136C20.1409 10.5857 19.9743 10.7426 19.7169 10.7487C19.1039 10.7623 18.4895 10.7603 17.8765 10.7426C17.6273 10.7357 17.4887 10.5646 17.4798 10.3136C17.471 10.0409 17.63 9.8929 17.8826 9.84789C18.0246 9.82266 18.1721 9.83084 18.3345 9.82266V6.35512C18.1748 6.34285 18.0287 6.34217 17.886 6.3183C17.6314 6.27466 17.4723 6.13009 17.4798 5.85664C17.488 5.58729 17.6451 5.42226 17.9051 5.41544C18.5073 5.39976 19.11 5.39976 19.7122 5.41476C19.9688 5.42158 20.1354 5.57706 20.1484 5.84778C20.1613 6.12054 20.0036 6.26852 19.7497 6.31489C19.6063 6.3408 19.4582 6.33944 19.2882 6.3524V9.81925C19.4268 9.82607 19.5702 9.82334 19.7108 9.8438C19.977 9.88267 20.1559 10.0211 20.1484 10.3136Z" fill="#0A948A"/>
<path d="M14.5199 15.2923C11.7374 15.2903 9.49004 17.5331 9.48731 20.3166C9.48458 23.0995 11.7271 25.3574 14.5021 25.3662C17.2526 25.3744 19.5361 23.107 19.5347 20.3678C19.534 17.544 17.3113 15.295 14.5199 15.2923ZM14.5165 18.0206C14.7745 18.024 14.9786 18.2491 14.9677 18.5184C14.9575 18.7776 14.7602 18.9685 14.5069 18.9665C14.2414 18.9637 14.0454 18.7503 14.0564 18.4748C14.0666 18.2225 14.2735 18.0179 14.5165 18.0206ZM14.5131 22.6249C14.2687 22.6256 14.0646 22.4231 14.057 22.1721C14.0482 21.8939 14.2386 21.6928 14.5103 21.6921C14.7827 21.6921 14.9752 21.8926 14.9677 22.1694C14.9609 22.421 14.7581 22.6242 14.5131 22.6249ZM14.965 24.3645C14.965 24.1081 14.935 23.8449 14.9786 23.5946C14.9978 23.4869 15.1623 23.3955 15.2742 23.3157C15.7303 22.9918 15.963 22.5486 15.8934 21.9989C15.8204 21.4268 15.4975 21.0074 14.9268 20.8369C14.3806 20.6726 13.8877 20.7974 13.4925 21.2161C12.9395 21.8025 12.9887 22.7954 13.6577 23.2216C14.0386 23.4637 14.0953 23.7378 14.0625 24.1108C14.0557 24.1879 14.0611 24.2656 14.0611 24.3393C12.5443 24.5445 10.3871 22.4224 10.469 20.7981H12.0637C12.177 20.7981 12.2917 20.8063 12.4043 20.794C12.6842 20.7633 12.8788 20.6242 12.8952 20.3255C12.9095 20.0684 12.6801 19.8659 12.3709 19.8625C11.8138 19.855 11.2561 19.8604 10.699 19.8591C10.6212 19.8584 10.5441 19.8448 10.4676 19.8379C10.5243 18.1393 12.1333 16.4147 14.0591 16.2586C14.0591 16.5266 14.0803 16.7946 14.0475 17.0557C14.0366 17.1444 13.9 17.2303 13.8051 17.2944C13.3341 17.6129 13.0713 18.05 13.1273 18.6187C13.1812 19.1656 13.4734 19.5863 14.0011 19.78C14.5294 19.9743 15.0333 19.8986 15.462 19.5059C16.0989 18.9214 16.0627 17.8986 15.3364 17.4056C15.0114 17.1846 14.9158 16.9528 14.9609 16.6029C14.9745 16.4932 14.9629 16.3806 14.9629 16.2681C16.7699 16.3725 18.4459 18.0159 18.5694 19.8598H17.1509C16.9918 19.8598 16.8321 19.8564 16.673 19.8611C16.359 19.8693 16.1392 20.05 16.1255 20.3051C16.1112 20.5703 16.3371 20.7858 16.6675 20.7947C17.0765 20.8056 17.4861 20.7981 17.8957 20.7981H18.5681C18.5606 22.4981 16.632 24.4047 14.965 24.3645Z" fill="#0A948A"/>
</svg>
