<svg width="23" height="28" viewBox="0 0 23 28" fill="none" xmlns="http://www.w3.org/2000/svg">
<g clipPath="url(#clip0_113_639)">
<path d="M22.9968 14.9844C22.9936 14.5316 22.8334 14.3754 22.3696 14.3652C22.0972 14.3589 21.8248 14.3644 21.5525 14.3644C21.5453 14.2553 21.5252 14.202 21.5429 14.1823C21.7175 13.9862 21.8985 13.7962 22.078 13.6048C22.3624 13.3003 22.3656 13.0884 22.0692 12.7925C21.6021 12.3256 21.1295 11.8642 20.6536 11.4051C20.346 11.1077 20.1361 11.1061 19.8301 11.3878C19.6739 11.5314 19.5321 11.6892 19.3711 11.8257C19.3094 11.8783 19.1925 11.9325 19.1364 11.9073C19.0771 11.8814 19.0371 11.7637 19.0314 11.6837C19.017 11.4749 19.0322 11.2646 19.0234 11.0559C19.0074 10.6682 18.8488 10.5144 18.4571 10.4995C18.2872 10.4924 18.1174 10.4979 17.8907 10.4979V9.9949C17.8907 7.39265 17.8955 4.78963 17.8883 2.18738C17.8851 0.916868 16.9526 0.00341532 15.6669 0.00263057C11.1944 -0.000508445 6.72194 -0.000508445 2.24948 0.00341532C0.93169 0.00498483 0.00403146 0.905882 0.00323037 2.20308C-0.00157615 10.0632 -0.00237723 17.9233 0.0104402 25.7833C0.0104402 26.1373 0.0889467 26.5249 0.251567 26.8373C0.652111 27.611 1.33143 28.0003 2.23185 28.0003C6.66427 27.9987 11.0959 28.0018 15.5283 27.9995C17.0159 27.9987 17.8867 27.1433 17.8923 25.6813C17.8971 24.399 17.8907 23.1175 17.8915 21.836C17.8915 21.6862 17.9067 21.5363 17.9155 21.3652C18.103 21.3652 18.236 21.3668 18.3681 21.3644C18.872 21.355 19.0066 21.2231 19.0146 20.7311C19.0178 20.5483 19.005 20.3646 19.0194 20.1826C19.0258 20.1009 19.0627 19.9825 19.1212 19.9566C19.1772 19.9314 19.2958 19.9848 19.3567 20.0366C19.5281 20.1826 19.6827 20.3466 19.8453 20.5012C20.0873 20.7295 20.3388 20.7507 20.5848 20.5137C21.0982 20.017 21.6093 19.5194 22.1148 19.0156C22.3375 18.7936 22.3423 18.5534 22.1156 18.3243C21.9482 18.1555 21.7704 17.9962 21.6125 17.8189C21.5613 17.7616 21.534 17.6564 21.5477 17.5827C21.5549 17.5434 21.6742 17.505 21.7447 17.5018C21.9578 17.4909 22.1717 17.5003 22.3856 17.4964C22.8286 17.4893 22.9912 17.3386 22.996 16.907C23.0024 16.2659 23.0008 15.6247 22.9968 14.9844ZM0.981357 1.84209C1.00859 1.36418 1.53571 0.969447 2.0428 0.929424C2.18859 0.918438 2.33599 0.922362 2.48259 0.922362H15.4922C16.5168 0.922362 16.9662 1.36889 16.967 2.38671V4.39568H0.967739C0.967739 3.53088 0.933292 2.68413 0.981357 1.84209ZM16.9102 26.1161C16.8573 26.7235 16.3598 27.0743 15.735 27.0751C11.212 27.0798 6.6883 27.0798 2.16456 27.0743C1.45079 27.0727 0.958927 26.5854 0.949314 25.8916C0.9389 25.1477 0.946911 24.4038 0.946911 23.608H16.9278C16.9278 24.4563 16.9815 25.2913 16.9102 26.1161ZM16.9502 22.6294H0.971744V5.35622H16.9358C16.9478 5.4755 16.967 5.57673 16.967 5.67718C16.9686 7.15487 16.959 8.63256 16.9759 10.1103C16.9791 10.4273 16.8773 10.512 16.5665 10.5058C15.9272 10.4924 15.8447 10.5999 15.8295 11.2379C15.8239 11.4608 15.7622 11.6829 15.7262 11.905C15.5403 11.7771 15.3352 11.6696 15.1726 11.5173C14.6767 11.0543 14.5526 11.0488 14.0583 11.5322C13.6337 11.9481 13.2059 12.3617 12.7854 12.7823C12.4713 13.097 12.4761 13.2948 12.7918 13.6181C12.9216 13.7499 13.0649 13.87 13.1835 14.0105C13.2436 14.0811 13.2628 14.1847 13.3005 14.2734C13.2172 14.3016 13.1354 14.3503 13.0513 14.3542C12.8254 14.3668 12.5971 14.3511 12.3712 14.3628C12.0404 14.3809 11.8513 14.5543 11.8497 14.8863C11.8457 15.58 11.8449 16.2729 11.8497 16.9659C11.8521 17.2955 12.0348 17.4705 12.3696 17.4901C12.4625 17.4956 12.5571 17.4838 12.6492 17.494C12.8663 17.5183 13.0818 17.5513 13.2981 17.5803C13.1739 17.753 13.0529 17.9272 12.9232 18.0959C12.8679 18.1681 12.7918 18.2246 12.7285 18.2929C12.5034 18.5354 12.4914 18.7818 12.7317 19.0196C13.23 19.5124 13.7331 19.9989 14.2321 20.491C14.4885 20.7437 14.7416 20.7429 14.998 20.4941C15.1502 20.3466 15.2936 20.1904 15.4554 20.0546C15.5267 19.9958 15.634 19.9777 15.7246 19.9409C15.7606 20.0319 15.8175 20.1206 15.8287 20.2147C15.8463 20.3693 15.8335 20.5279 15.8351 20.6848C15.8399 21.2467 15.9489 21.3566 16.5072 21.3636C16.6386 21.3652 16.7692 21.3636 16.9502 21.3636V22.6294ZM22.0059 16.5664C21.486 16.6316 20.9228 16.4518 20.6072 17.2225C20.3004 17.9727 20.7386 18.2427 21.1391 18.6476C20.805 18.9379 20.491 19.2118 20.1442 19.5132C20.0416 19.4174 19.8702 19.2762 19.7228 19.1145C19.5001 18.8712 19.2582 18.8336 18.9738 18.9944C18.8929 19.04 18.8047 19.0729 18.7182 19.1067C18.0966 19.3499 18.0733 19.3507 18.1022 20.0162C18.1182 20.3866 17.9932 20.5035 17.6303 20.4666C17.3676 20.44 17.0992 20.4612 16.7948 20.4612C16.6995 19.9314 16.9014 19.3688 16.1091 19.0612C15.3456 18.7637 15.0669 19.1828 14.6599 19.5728C14.3611 19.2448 14.0831 18.9387 13.7763 18.6021C14.0695 18.2599 14.5614 17.9853 14.2385 17.2248C13.9197 16.4754 13.3846 16.6347 12.8334 16.597V15.3493C13.286 15.1853 13.8108 15.5117 14.1264 14.8988C14.4973 14.1776 14.3827 13.6683 13.6978 13.2634C14.0407 12.9416 14.3451 12.656 14.6743 12.3476C15.05 12.6678 15.3296 13.1527 16.1083 12.8263C16.8557 12.5132 16.7556 12.0156 16.7564 11.4538H18.0741C18.1366 11.967 17.9548 12.5265 18.7455 12.8216C19.5017 13.1041 19.7917 12.6858 20.1906 12.3099C20.5014 12.623 20.793 12.9181 21.1087 13.2367C20.805 13.6212 20.2531 13.8669 20.6056 14.6453C20.9324 15.3673 21.4235 15.2912 22.0059 15.2975V16.5664Z" fill="#0A948A"/>
<path d="M10.5426 12.8362C10.541 12.29 10.408 12.1574 9.86327 12.1566C7.55614 12.1551 5.24901 12.1543 2.94188 12.1559C2.42117 12.1566 2.26817 12.3042 2.26656 12.8048C2.26336 13.9678 2.26336 15.1301 2.26656 16.2931C2.26736 16.8039 2.41396 16.9483 2.92906 16.9499C4.08984 16.9531 5.24981 16.9507 6.40978 16.9507C7.55694 16.9507 8.7041 16.9523 9.85045 16.9499C10.412 16.9491 10.541 16.8275 10.5426 16.2852C10.5458 15.1356 10.5458 13.9859 10.5426 12.8362ZM8.88674 16.0514C7.18123 16.0576 5.47492 16.0537 3.7686 16.0522C3.59797 16.0522 3.42734 16.038 3.23107 16.0286V13.1219H9.60772C9.60772 13.869 9.61333 14.609 9.60612 15.349C9.59811 16.1605 9.72708 16.049 8.88674 16.0514Z" fill="#0A948A"/>
<path d="M12.2344 20.909C12.2304 21.2197 12.0061 21.361 11.6937 21.361C11.5735 21.361 11.4534 21.3634 11.3332 21.3634C8.65278 21.3634 5.97154 21.3626 3.2903 21.3626C3.13008 21.3626 2.97067 21.3641 2.81045 21.3626C2.49883 21.3586 2.27613 21.219 2.27933 20.9035C2.28254 20.5888 2.50203 20.4577 2.81846 20.4585C4.29887 20.4617 5.77928 20.4601 7.25969 20.4601C8.7401 20.4601 10.2213 20.4617 11.7017 20.4585C12.0189 20.4585 12.2384 20.5951 12.2344 20.909Z" fill="#0A948A"/>
<path d="M11.0991 18.6905C11.0975 19.0013 10.8892 19.1535 10.572 19.1535H6.68752C5.44583 19.1535 4.20495 19.1574 2.96327 19.1496C2.79664 19.148 2.59236 19.1339 2.4746 19.0413C2.36325 18.9542 2.27353 18.7423 2.30157 18.6112C2.32881 18.4794 2.49463 18.3389 2.63482 18.2761C2.7694 18.2165 2.94885 18.2448 3.10906 18.2448C5.51152 18.244 7.91398 18.2448 10.3164 18.2448C10.4102 18.2448 10.5031 18.2479 10.5968 18.2487C10.8972 18.2518 11.0999 18.3954 11.0991 18.6905Z" fill="#0A948A"/>
<path d="M14.3084 9.10864C13.678 9.65091 13.0363 10.1806 12.397 10.7127C12.1727 10.8995 11.9324 10.9285 11.7257 10.7001C11.5006 10.4529 11.5855 10.2199 11.8186 10.0213C12.3073 9.60382 12.7984 9.18869 13.3135 8.7508C12.8729 8.38039 12.4691 8.04138 12.0662 7.70237C11.9652 7.61683 11.8635 7.53364 11.7674 7.4434C11.5623 7.25113 11.531 7.0314 11.7129 6.81638C11.9092 6.58488 12.1583 6.58095 12.3842 6.76694C13.0363 7.30371 13.682 7.84833 14.322 8.40001C14.588 8.62916 14.5592 8.89205 14.3084 9.10864Z" fill="#0A948A"/>
<path d="M6.04998 9.99071C6.17334 10.1021 6.29271 10.2944 6.29191 10.4482C6.2879 10.8116 5.85211 10.9881 5.5485 10.7441C4.87879 10.2073 4.2267 9.64856 3.57862 9.08668C3.32949 8.87166 3.35192 8.61347 3.58984 8.40708C4.22911 7.85462 4.87959 7.31471 5.53007 6.77558C5.75998 6.58488 6.00111 6.59195 6.20058 6.81796C6.40886 7.05495 6.32956 7.28645 6.11406 7.47009C5.6238 7.88915 5.12312 8.29722 4.58479 8.74453C5.1087 9.18634 5.59176 9.57558 6.04998 9.99071Z" fill="#0A948A"/>
<path d="M10.1545 7.41513C9.62342 8.43924 9.10672 9.4704 8.56759 10.4906C8.48027 10.6554 8.30564 10.7762 8.23033 10.8555C7.73526 10.8516 7.54701 10.5173 7.72485 10.1437C7.92672 9.71839 8.15183 9.30247 8.36732 8.88262C8.69096 8.25325 9.0146 7.62388 9.33664 6.99294C9.48083 6.71043 9.69472 6.54249 10.0087 6.70729C10.318 6.86895 10.3011 7.13184 10.1545 7.41513Z" fill="#0A948A"/>
<path d="M11.0991 25.3326C11.0983 25.6387 10.8893 25.7933 10.5704 25.7917C10.0377 25.7901 9.50498 25.7909 8.97225 25.7909C8.43953 25.7909 7.90681 25.7894 7.37409 25.7917C7.05205 25.7933 6.80451 25.6811 6.80371 25.3358C6.80291 24.9913 7.05365 24.8728 7.37168 24.8728C8.43713 24.8712 9.50257 24.8704 10.568 24.8728C10.8796 24.8735 11.0999 25.0242 11.0991 25.3326Z" fill="#0A948A"/>
<path d="M11.103 2.68621C11.0654 2.99148 10.8643 3.13117 10.5487 3.12803C10.0167 3.12254 9.48403 3.12646 8.95211 3.12646C8.41938 3.12646 7.88666 3.12568 7.35474 3.12646C7.04792 3.12724 6.83243 3.00482 6.79879 2.68857C6.76995 2.41469 7.00386 2.21144 7.35234 2.20987C8.41698 2.20437 9.48162 2.20437 10.5471 2.21065C10.8955 2.21222 11.1367 2.41547 11.103 2.68621Z" fill="#0A948A"/>
<path d="M3.18519 2.687C3.12431 2.87456 2.93926 3.02288 2.80948 3.18924C2.7494 3.18767 2.68852 3.18689 2.62844 3.18532C2.50908 3.01268 2.31762 2.85102 2.28878 2.66503C2.24792 2.40449 2.45861 2.23969 2.72857 2.21615C2.97691 2.19418 3.25889 2.46021 3.18519 2.687Z" fill="#0A948A"/>
<path d="M5.52523 2.74979C5.3562 2.87378 5.20239 3.06918 5.01654 3.10528C4.75698 3.15472 4.55992 2.97109 4.5463 2.698C4.53108 2.40685 4.71292 2.19654 4.99731 2.23107C5.18316 2.25383 5.34738 2.44923 5.52122 2.56773C5.52202 2.62815 5.52362 2.68936 5.52523 2.74979Z" fill="#0A948A"/>
<path d="M13.4417 2.75056C13.271 2.87455 13.114 3.06839 12.925 3.10527C12.6598 3.15785 12.474 2.96166 12.4612 2.69406C12.4475 2.40527 12.6334 2.19417 12.9154 2.23105C13.1028 2.25538 13.2654 2.45549 13.4393 2.57635C13.4401 2.63442 13.4409 2.69249 13.4417 2.75056Z" fill="#0A948A"/>
<path d="M15.6221 2.6768C15.6213 2.95539 15.4355 3.11705 15.1615 3.11626C14.8811 3.11469 14.7321 2.94048 14.6528 2.56772C14.8275 2.44922 14.9925 2.25539 15.1799 2.23106C15.4491 2.19496 15.6237 2.40528 15.6221 2.6768Z" fill="#0A948A"/>
<path d="M17.4499 13.8234C16.2539 13.8132 15.2774 14.7612 15.2798 15.9305C15.2822 17.1116 16.2411 18.0564 17.4323 18.0525C18.6171 18.0478 19.5984 17.0841 19.5968 15.9258C19.596 14.7879 18.6219 13.8336 17.4499 13.8234ZM17.4315 17.1163C16.7514 17.1202 16.209 16.6015 16.2018 15.9399C16.1938 15.287 16.7354 14.7502 17.4131 14.74C18.0924 14.7298 18.6492 15.247 18.6604 15.9007C18.6716 16.5811 18.1357 17.1123 17.4315 17.1163Z" fill="#0A948A"/>
</g>
<defs>
<clipPath id="clip0_113_639">
<rect width="23" height="28" fill="white"/>
</clipPath>
</defs>
</svg>
