<svg width="18" height="29" viewBox="0 0 18 29" fill="none" xmlns="http://www.w3.org/2000/svg">
<path d="M17.1204 11.7711C16.9343 11.5881 16.8699 11.4158 16.8706 11.1513C16.8779 8.33387 16.875 5.51649 16.875 2.69911C16.875 0.995621 15.9987 0.0140305 14.4754 0.0132138C10.8118 0.0123972 7.1475 0.0385294 3.48468 0.000147723C2.14089 -0.0145516 1.07113 1.06912 1.09751 2.64195C1.14513 5.48546 1.11363 8.33061 1.10337 11.1749C1.10264 11.353 1.04035 11.5849 0.929715 11.6992C-0.283655 12.9552 -0.319558 14.9233 0.882089 16.1817C1.06307 16.3703 1.12242 16.55 1.12242 16.8121C1.11582 20.024 1.11656 23.2358 1.11802 26.4476C1.11875 27.9657 2.02805 28.9799 3.38943 28.9824C5.25784 28.9848 7.12626 28.9824 8.99467 28.9832C10.8264 28.9832 12.6597 28.9367 14.4893 28.9987C15.781 29.042 16.9351 27.9739 16.9087 26.2965C16.8581 23.1394 16.897 19.9815 16.8889 16.8244C16.8882 16.5451 16.9526 16.3524 17.1402 16.1539C18.2942 14.9314 18.2855 12.9135 17.1204 11.7711ZM4.78231 1.61299C4.80063 1.31737 4.78598 1.01849 4.78598 0.677952H13.2026C13.2026 1.05932 13.2297 1.43742 13.1843 1.8049C13.1719 1.90372 12.9403 2.03846 12.8084 2.04009C11.2456 2.05724 9.68269 2.05153 8.11981 2.05153C7.14311 2.05153 6.1664 2.04173 5.1897 2.05643C4.89222 2.06133 4.76106 1.95761 4.78231 1.61299ZM1.69833 2.62072C1.69906 1.39169 2.34605 0.668969 3.44511 0.661619C3.65247 0.660803 3.85983 0.664069 4.06719 0.668152C4.08917 0.668152 4.11115 0.686118 4.18808 0.7196C4.18808 1.02992 4.18515 1.36474 4.18882 1.69956C4.19614 2.36593 4.49509 2.72443 5.08199 2.72525C7.69557 2.73178 10.3084 2.73178 12.9213 2.72606C13.4935 2.72443 13.7954 2.3692 13.802 1.73222C13.8049 1.39414 13.8027 1.05605 13.8027 0.7294C14.7758 0.472977 15.6242 0.744099 16.0206 1.47417C16.1657 1.74121 16.2778 2.07929 16.28 2.38634C16.2998 5.24455 16.2932 8.10195 16.2925 10.9593C16.2925 11.0124 16.2815 11.0655 16.2734 11.1366C15.8331 11.0925 15.6067 10.9536 15.5224 10.4081C15.2388 8.59029 13.5661 7.44538 11.927 7.88227C11.724 7.93617 11.6317 7.90351 11.5255 7.69853C10.381 5.48873 7.61351 5.47811 6.47781 7.6822C6.35911 7.91331 6.25799 7.92066 6.04697 7.86676C4.30019 7.42088 2.66111 8.68584 2.43544 10.6654C2.37462 11.2011 1.97676 10.9749 1.71811 11.197C1.70932 11.0026 1.69833 10.8736 1.69833 10.7446C1.6976 8.03662 1.69613 5.32867 1.69833 2.62072ZM14.6314 28.3258C10.8858 28.3332 7.13944 28.3315 3.39309 28.3266C2.36949 28.325 1.71225 27.5745 1.70346 26.4272C1.70199 26.2393 1.70346 26.0507 1.70346 25.8122H16.2397C16.5973 27.1425 15.8455 28.3234 14.6314 28.3258ZM3.58872 19.4605C3.13811 19.6026 2.81791 20.0934 2.82377 20.6291C2.83037 21.1705 3.15276 21.6417 3.61071 21.7789C4.12287 21.9324 4.58228 21.6972 4.89002 21.1672C4.95816 21.0496 5.12156 20.9533 5.25125 20.9361C5.51576 20.9002 5.78759 20.9312 6.05576 20.9231C6.45436 20.9108 6.61409 20.7246 6.61702 20.2518C6.62288 19.258 6.61849 18.2649 6.61995 17.2711C6.61995 17.1911 6.62801 17.1118 6.63387 17.0049H8.68034C8.68034 17.7717 8.69059 18.5295 8.66935 19.2865C8.66642 19.3878 8.51987 19.5046 8.41949 19.5789C8.01577 19.8753 7.81867 20.4078 7.93663 20.9247C8.04947 21.4237 8.45466 21.7903 8.9192 21.814C9.4343 21.8401 9.83069 21.56 10.0109 21.0407C10.1985 20.5017 9.99262 19.8957 9.53028 19.5528C9.42697 19.476 9.30827 19.3225 9.30461 19.2008C9.28336 18.4813 9.29435 17.7602 9.29435 17.0073H11.3745V17.5063C11.3745 18.4185 11.3716 19.3306 11.3752 20.242C11.3774 20.7548 11.5284 20.9165 11.9951 20.9247C12.1417 20.9271 12.2882 20.9345 12.434 20.9231C12.7725 20.8969 13.0239 20.9435 13.2371 21.3395C13.5565 21.9341 14.3567 21.9806 14.8161 21.5159C15.2689 21.0578 15.2887 20.242 14.8571 19.761C14.4101 19.2637 13.6247 19.2588 13.2766 19.8467C13.0275 20.2673 12.7469 20.3277 12.3695 20.2877C12.2508 20.2755 12.1299 20.2861 11.9841 20.2861V16.9281H16.2881V25.1058H1.71665V16.9175H6.00814V20.2714C5.7026 20.2714 5.40145 20.2869 5.10324 20.2616C5.02191 20.2551 4.92812 20.1399 4.87537 20.0501C4.56909 19.5209 4.09723 19.2988 3.58872 19.4605ZM4.41083 20.6136C4.40863 20.8863 4.16903 21.1517 3.91991 21.1574C3.67152 21.1632 3.42093 20.9067 3.40921 20.6364C3.39822 20.3727 3.63928 20.0844 3.88401 20.0705C4.15145 20.0542 4.41376 20.3245 4.41083 20.6136ZM8.97635 20.077C9.25552 20.0664 9.46873 20.2885 9.4746 20.5964C9.48046 20.9026 9.27896 21.146 9.00786 21.1574C8.73163 21.1697 8.52061 20.9476 8.51255 20.6356C8.50375 20.3253 8.70232 20.0868 8.97635 20.077ZM13.588 20.6054C13.5946 20.3269 13.843 20.0705 14.0995 20.0762C14.3508 20.0827 14.5955 20.3596 14.5897 20.6307C14.5838 20.9051 14.3303 21.1672 14.0782 21.1591C13.8232 21.1509 13.5814 20.8781 13.588 20.6054ZM15.3114 16.2928C14.457 16.3148 13.602 16.3009 12.7469 16.3017C12.1116 16.3017 11.4764 16.2993 10.8418 16.2985C10.219 16.2977 9.59623 16.2985 8.97342 16.2985C6.90937 16.2977 4.84532 16.3042 2.78128 16.296C1.47339 16.2903 0.569954 15.2695 0.602926 13.8584C0.628571 12.7698 1.40671 11.8168 2.39587 11.6633C2.93222 11.58 2.93222 11.58 2.98131 10.9871C3.14104 9.04597 4.65922 7.9721 6.29829 8.65726C6.6412 8.80017 6.74598 8.62051 6.86028 8.31427C7.54683 6.46787 9.68415 6.1208 10.8103 7.67485C10.9598 7.88146 11.0653 8.13706 11.1584 8.38532C11.2675 8.67849 11.406 8.77322 11.694 8.65889C13.399 7.98762 14.9201 9.11539 15.0154 11.1276C15.0322 11.4869 15.1377 11.6306 15.4608 11.6633C16.6552 11.785 17.4384 12.791 17.3937 14.1099C17.3534 15.294 16.4419 16.2642 15.3114 16.2928Z" fill="#0A948A"/>
<path d="M6.16184 9.83914C6.07831 10.1143 5.87388 10.058 5.67165 10C4.96239 9.79831 4.46122 10.1936 4.37109 11.0298C4.34471 11.2699 4.33959 11.5549 4.05236 11.4838C3.90875 11.4479 3.8069 11.2037 3.75781 11.1425C3.79005 9.80076 4.87007 8.95554 5.84311 9.34834C6.04973 9.43164 6.2505 9.54515 6.16184 9.83914Z" fill="#0A948A"/>
<path d="M14.2231 11.0322C14.2165 11.189 14.0736 11.4316 13.9535 11.4683C13.7447 11.5312 13.6611 11.3344 13.6391 11.0918C13.5519 10.129 13.1072 9.79912 12.2309 9.98776C12.1129 10.0131 11.9678 9.88568 11.8359 9.82933C11.9048 9.67907 11.9414 9.47002 12.0521 9.39325C12.2184 9.27729 12.4375 9.25361 12.6339 9.18991C13.5087 9.22829 14.2649 10.0719 14.2231 11.0322Z" fill="#0A948A"/>
<path d="M10.4101 27.0553C10.3859 27.1803 10.188 27.3469 10.0642 27.3526C9.35862 27.3804 8.65155 27.3804 7.94595 27.3526C7.81919 27.3477 7.69756 27.168 7.57373 27.0692C7.69536 26.9508 7.8082 26.7491 7.94082 26.7303C8.28886 26.6821 8.64495 26.714 8.99885 26.714C9.35202 26.714 9.70519 26.7115 10.0584 26.7148C10.262 26.7173 10.4577 26.8022 10.4101 27.0553Z" fill="#0A948A"/>
</svg>
