<svg width="32" height="24" viewBox="0 0 32 24" fill="none" xmlns="http://www.w3.org/2000/svg">
<path d="M30.9094 18.7964C30.5228 18.791 30.137 18.7955 29.7224 18.7955V17.3234C30.1451 17.3234 30.5354 17.3362 30.923 17.3206C31.5575 17.2942 31.9739 16.9161 31.9847 16.3115C32.0055 15.2467 32.0055 14.18 31.9838 13.1152C31.9721 12.517 31.5575 12.1362 30.9671 12.1225C30.5651 12.1133 30.1631 12.1206 29.735 12.1206V10.6193C30.1352 10.6193 30.4939 10.6238 30.8527 10.6184C31.6323 10.6065 31.9856 10.254 31.991 9.47133C31.9982 8.54256 31.9946 7.61471 31.9919 6.68594C31.9901 5.79827 31.6395 5.44211 30.7625 5.44119C28.7192 5.43845 26.6768 5.44028 24.6335 5.43937C24.4595 5.43845 24.2855 5.42384 24.0845 5.41471C24.0845 4.63023 24.0954 3.90055 24.0791 3.17179C24.0728 2.88685 24.135 2.71151 24.4072 2.56083C24.9525 2.25672 25.1779 1.67407 25.0508 1.0832C24.9318 0.532516 24.4739 0.111511 23.8899 0.0137945C23.3887 -0.0693106 22.8407 0.236625 22.5243 0.72247C22.4378 0.85489 22.2413 0.991877 22.0935 0.993703C20.2764 1.01197 18.4584 1.01014 16.6413 0.994616C16.5007 0.993703 16.3079 0.878635 16.2303 0.75626C15.5913 -0.24374 14.4322 -0.249219 13.8058 0.747128C13.7282 0.870415 13.5399 0.99279 13.402 0.994616C11.5687 1.01014 9.73624 1.00923 7.90383 0.99553C7.77584 0.994616 7.60099 0.887767 7.52978 0.776352C7.17015 0.212881 6.65549 -0.0729635 6.10748 0.0274931C5.5135 0.136169 5.07455 0.559913 4.97721 1.12064C4.86724 1.75717 5.1079 2.26037 5.68025 2.6211C5.783 2.68594 5.93172 2.79462 5.93352 2.88594C5.95335 3.73343 5.94524 4.58092 5.94524 5.42384C5.29538 5.50238 4.69689 5.54804 4.10832 5.65306C2.95011 5.85946 1.81804 6.15626 0.860823 6.90329C0.292983 7.34713 -0.00175221 7.90603 0.000951784 8.66494C0.0189784 12.6978 0.0207811 16.7316 5.04515e-05 20.7654C-0.00445621 21.5444 0.292983 22.1216 0.883356 22.5581C1.20874 22.7983 1.56026 23.0202 1.93161 23.1727C4.10742 24.0668 6.35895 24.18 8.65194 23.7754C9.72633 23.5864 10.7565 23.2768 11.6579 22.6266C12.2843 22.1754 12.634 21.5837 12.6034 20.77C12.5727 19.9645 12.5971 19.1572 12.5971 18.3499C12.5971 15.1535 12.5836 11.9572 12.6052 8.76083C12.6115 7.89964 12.3095 7.22749 11.5921 6.81014C10.9864 6.45763 10.3464 6.11882 9.67766 5.93708C8.71593 5.67407 7.71455 5.55809 6.67171 5.36996C6.67171 4.74256 6.68974 4.06128 6.6654 3.38092C6.65008 2.97544 6.68974 2.65489 7.11967 2.47133C7.27831 2.40284 7.36033 2.16905 7.50544 2.04302C7.63524 1.92978 7.80108 1.78457 7.95341 1.78274C9.75517 1.76539 11.5578 1.76539 13.3605 1.78274C13.5137 1.78457 13.7237 1.90786 13.8076 2.03937C14.4304 3.01014 15.5958 3.01836 16.215 2.0558C16.3015 1.92156 16.5025 1.78548 16.6522 1.78366C18.4692 1.76539 20.2872 1.76722 22.1043 1.78092C22.2368 1.78183 22.3855 1.89051 22.4946 1.98731C22.7271 2.19188 22.9399 2.4211 23.1589 2.64211C23.2274 2.71151 23.3455 2.78731 23.3473 2.86128C23.3608 3.70603 23.3554 4.55261 23.3554 5.44028H22.8065C20.7334 5.44028 18.6612 5.43663 16.5882 5.44211C15.8437 5.44393 15.4822 5.80831 15.475 6.56448C15.466 7.538 15.4669 8.51242 15.475 9.48685C15.4804 10.2558 15.822 10.6019 16.5756 10.6174C16.9622 10.6257 17.3489 10.6193 17.741 10.6193V12.1206C17.3435 12.1206 16.9712 12.1179 16.5999 12.1206C15.8563 12.1261 15.4831 12.4859 15.4759 13.2311C15.466 14.2056 15.4669 15.18 15.4741 16.1535C15.4804 16.9353 15.8644 17.3115 16.6504 17.3234C17.0073 17.3279 17.3642 17.3243 17.7671 17.3243V18.7946C17.3561 18.7946 16.9992 18.7937 16.6413 18.7955C15.8455 18.7992 15.4876 19.1435 15.4768 19.9599C15.4642 20.9334 15.466 21.9079 15.4759 22.8823C15.4831 23.6101 15.877 23.9919 16.608 23.9974C17.2236 24.0028 17.8392 23.9974 18.4557 23.9974C22.5865 23.9983 26.7173 24.0001 30.8481 23.9974C31.5926 23.9974 31.9865 23.5964 31.991 22.8403C31.9973 21.8512 32.0019 20.8613 31.9883 19.8722C31.9802 19.1955 31.5755 18.8047 30.9094 18.7964ZM0.724722 12.2595C0.756268 11.4878 0.731932 10.7152 0.731932 9.97727C4.44813 11.8649 8.13638 11.8439 11.8625 9.99279C11.8625 10.8841 11.913 11.8092 11.8345 12.7225C11.8075 13.0275 11.4992 13.3663 11.2334 13.5791C10.4366 14.2165 9.47485 14.4741 8.4906 14.6403C6.39951 14.9937 4.33816 14.9161 2.34081 14.1307C2.00912 14.0001 1.69906 13.8037 1.39802 13.6065C0.922113 13.2951 0.699484 12.8549 0.724722 12.2595ZM11.8778 20.969C11.8688 21.4951 11.5299 21.8266 11.1315 22.0942C10.223 22.7033 9.19815 22.9827 8.13457 23.1234C6.31569 23.3636 4.51302 23.3124 2.75452 22.7161C2.52739 22.6394 2.30386 22.548 2.08573 22.4494C1.15195 22.0293 0.574199 21.4074 0.718412 20.2631C0.796828 19.6357 0.731932 18.99 0.731932 18.39C4.44362 20.2631 8.13277 20.2649 11.8814 18.3983C11.8814 19.2375 11.8922 20.1033 11.8778 20.969ZM11.8904 16.3015C11.9896 17.1827 11.5191 17.6978 10.8214 18.075C9.5749 18.7508 8.2175 18.98 6.83035 19.033C5.13584 19.0969 3.47559 18.9106 1.92169 18.1471C1.10959 17.749 0.619266 17.1791 0.719314 16.1791C0.786914 15.5069 0.731932 14.822 0.731932 14.0631C3.15471 15.949 9.06475 16.1325 11.8832 14.0878V15.3891C11.8841 15.6932 11.8571 16.001 11.8904 16.3015ZM10.3717 6.93069C10.7385 7.09051 11.0973 7.30877 11.4019 7.56996C12.0346 8.11242 12.0482 8.69416 11.4028 9.21379C10.9873 9.54713 10.4934 9.80649 9.99763 10.0047C8.80967 10.4805 7.55412 10.601 6.28324 10.5928C4.73926 10.5818 3.22502 10.4101 1.83426 9.65763C1.31149 9.37544 0.742748 9.04576 0.758071 8.37087C0.773394 7.70421 1.34934 7.38274 1.86941 7.10147C2.87981 6.55352 3.98394 6.32978 5.11241 6.23845C6.91147 6.09325 8.68709 6.19462 10.3717 6.93069ZM6.28504 1.99279C5.91549 1.97179 5.70639 1.76174 5.68565 1.39005C5.66583 1.04484 5.96236 0.751694 6.30757 0.750781C6.65278 0.750781 6.94211 1.04484 6.9367 1.38822C6.9313 1.73617 6.64107 2.01197 6.28504 1.99279ZM15.0397 1.99736C14.68 2.00923 14.4133 1.75261 14.4078 1.38914C14.4024 1.03023 14.6701 0.736169 15.0171 0.754434C15.3723 0.773612 15.603 0.95626 15.621 1.34256C15.6391 1.71699 15.3984 1.9864 15.0397 1.99736ZM23.0985 1.34256C23.1363 0.968132 23.3689 0.771785 23.7285 0.754434C24.0809 0.737995 24.3586 1.03663 24.3495 1.39005C24.3405 1.75078 24.0665 2.00649 23.7024 1.99462C23.3464 1.98274 23.0633 1.68868 23.0985 1.34256ZM16.6693 9.90238C16.3241 9.90238 16.1862 9.76813 16.1907 9.41745C16.2033 8.50512 16.2051 7.59188 16.1898 6.67863C16.1835 6.30238 16.3268 6.18092 16.6963 6.18274C19.0389 6.19553 21.3815 6.18914 23.724 6.18914V6.18092C26.0522 6.18092 28.3794 6.19096 30.7066 6.1727C31.1375 6.16905 31.297 6.29964 31.2844 6.74256C31.2592 7.60923 31.2673 8.47681 31.2817 9.34439C31.288 9.72064 31.1717 9.90329 30.7688 9.90238C26.0693 9.89599 21.3688 9.8969 16.6693 9.90238ZM28.9463 10.6595V12.0932H18.5359V10.6595H28.9463ZM16.7711 16.5627C16.3547 16.569 16.1727 16.4494 16.1871 15.9964C16.2141 15.1152 16.2051 14.2321 16.1907 13.3508C16.1844 12.9773 16.3196 12.8476 16.6927 12.8494C19.0488 12.8631 21.4058 12.8567 23.7628 12.8567V12.8503C26.0738 12.8503 28.3848 12.8494 30.6967 12.8503C31.2537 12.8503 31.2754 12.8741 31.2763 13.4458C31.2781 14.2823 31.2781 15.1188 31.2763 15.9553C31.2754 16.5024 31.2267 16.5553 30.685 16.5553C27.2924 16.5572 23.9007 16.5563 20.5081 16.5563C19.2624 16.5563 18.0168 16.5435 16.7711 16.5627ZM28.9445 17.3572V18.77H18.5341V17.3572H28.9445ZM31.2763 22.6248C31.2754 23.1782 31.2303 23.2266 30.6886 23.2266C28.3623 23.2284 26.0359 23.2275 23.7105 23.2275C21.3986 23.2275 19.0876 23.2284 16.7765 23.2275C16.2267 23.2266 16.197 23.1955 16.1952 22.6293C16.1925 21.7627 16.2042 20.8951 16.1898 20.0284C16.1835 19.6595 16.3142 19.5216 16.69 19.5225C21.3878 19.5298 26.0846 19.527 30.7823 19.5161C31.1573 19.5152 31.288 19.654 31.2817 20.0248C31.2664 20.8914 31.2781 21.7581 31.2763 22.6248Z" fill="#0A948A"/>
<path d="M22.1099 8.04201C22.1054 8.3516 21.8837 8.39453 21.6376 8.39361C21.0671 8.39179 20.4966 8.3927 19.9269 8.3927C19.3717 8.3927 18.8165 8.39087 18.2613 8.39361C17.9936 8.39453 17.7286 8.32421 17.789 8.01005C17.8169 7.86576 18.0855 7.67215 18.2486 7.66758C19.3735 7.63836 20.4993 7.65389 21.625 7.65023C21.8981 7.64932 22.1145 7.7169 22.1099 8.04201Z" fill="#0A948A"/>
<path d="M27.1201 8.01187C27.1228 8.15251 26.9587 8.2968 26.7902 8.5589C26.6234 8.30228 26.4477 8.14886 26.472 8.0411C26.5044 7.89498 26.691 7.78447 26.8118 7.65845C26.9218 7.77626 27.1173 7.89132 27.1201 8.01187Z" fill="#0A948A"/>
<path d="M24.7445 8.03379C24.5173 8.19635 24.3776 8.37443 24.2568 8.36256C24.1298 8.34977 23.9252 8.15069 23.9288 8.03927C23.9324 7.91507 24.1234 7.71416 24.2496 7.69863C24.3704 7.68493 24.5137 7.86758 24.7445 8.03379Z" fill="#0A948A"/>
<path d="M29.8378 8.03196C29.607 8.19909 29.4691 8.37625 29.3529 8.36164C29.2276 8.34703 29.032 8.15068 29.0347 8.03835C29.0383 7.91415 29.2213 7.71598 29.3475 7.69772C29.461 7.68036 29.6034 7.8621 29.8378 8.03196Z" fill="#0A948A"/>
<path d="M22.1116 21.4046C22.1053 21.7224 21.8763 21.7443 21.6357 21.7434C21.4202 21.7425 21.2039 21.7425 20.9885 21.7425C20.6199 21.7425 20.2521 21.7434 19.8844 21.7425H18.2223C17.9726 21.7434 17.7257 21.6703 17.7861 21.3772C17.8149 21.2356 18.0556 21.0411 18.2043 21.0374C19.3562 21.0091 20.509 21.0201 21.6618 21.0219C21.9124 21.0228 22.1179 21.1032 22.1116 21.4046Z" fill="#0A948A"/>
<path d="M29.871 21.4247C29.5961 21.579 29.442 21.737 29.3266 21.7114C29.2031 21.6849 29.0553 21.4968 29.0337 21.3598C29.0219 21.2813 29.2374 21.0868 29.35 21.0868C29.4798 21.0868 29.6096 21.2448 29.871 21.4247Z" fill="#0A948A"/>
<path d="M24.7581 21.3936C24.5193 21.5562 24.3805 21.7242 24.2579 21.7132C24.1317 21.7014 24.0199 21.516 23.9019 21.4064C24.0163 21.2931 24.1218 21.1032 24.2471 21.0877C24.3696 21.0731 24.513 21.2374 24.7581 21.3936Z" fill="#0A948A"/>
<path d="M27.3006 21.4219C27.0447 21.5735 26.8968 21.7324 26.777 21.7132C26.6508 21.6932 26.5507 21.5023 26.439 21.3863C26.5606 21.2795 26.6751 21.0986 26.804 21.0877C26.9248 21.0785 27.0591 21.2493 27.3006 21.4219Z" fill="#0A948A"/>
<path d="M22.1109 14.7297C22.1028 15.042 21.8766 15.074 21.6332 15.0731C21.4196 15.0721 21.2069 15.0712 20.9932 15.0721C20.7796 15.0712 20.566 15.0712 20.3524 15.0712H19.9252C19.7792 15.0712 19.6331 15.0731 19.4871 15.0749C19.0635 15.0795 18.6399 15.0849 18.218 15.0557C18.0612 15.0447 17.8188 14.8731 17.7863 14.7342C17.7196 14.453 17.9567 14.3397 18.2063 14.3388C19.36 14.3333 20.5137 14.3352 21.6674 14.337C21.9225 14.3379 22.119 14.4356 22.1109 14.7297Z" fill="#0A948A"/>
<path d="M24.5767 14.7114C24.5974 14.8265 24.4289 14.9772 24.2766 15.2201C24.1008 14.9963 23.9196 14.8658 23.9259 14.747C23.9332 14.6228 24.1188 14.4201 24.2315 14.4164C24.3514 14.4128 24.5542 14.5881 24.5767 14.7114Z" fill="#0A948A"/>
<path d="M27.1094 14.7132C27.1265 14.832 26.958 14.9781 26.802 15.2164C26.6317 14.9927 26.4532 14.8594 26.4622 14.7416C26.4722 14.6174 26.6578 14.4228 26.7741 14.4164C26.8886 14.411 27.0932 14.5927 27.1094 14.7132Z" fill="#0A948A"/>
<path d="M29.6611 14.7087C29.6287 14.8448 29.47 15.0274 29.3465 15.0429C29.2285 15.0585 29.087 14.884 28.8301 14.705C29.0969 14.5507 29.2375 14.4046 29.3682 14.4128C29.479 14.421 29.6791 14.6311 29.6611 14.7087Z" fill="#0A948A"/>
<path d="M7.13061 21.4858C7.13512 21.6137 6.96747 21.8475 6.853 21.8621C6.48616 21.9105 6.1058 21.9096 5.73986 21.8594C5.62539 21.8438 5.47577 21.6155 5.46315 21.474C5.45503 21.3772 5.64161 21.211 5.7705 21.168C5.93274 21.1151 6.12472 21.1553 6.30409 21.1553V21.1589C6.46813 21.1589 6.6475 21.116 6.79171 21.1708C6.93142 21.2237 7.1261 21.3726 7.13061 21.4858Z" fill="#0A948A"/>
<path d="M7.13348 17.3096C7.1479 17.4046 6.96493 17.6155 6.85226 17.6292C6.49713 17.6731 6.13029 17.6795 5.77697 17.6329C5.65078 17.6164 5.4615 17.4073 5.46241 17.2868C5.46421 17.1717 5.65709 17.0091 5.7977 16.9589C5.95724 16.9014 6.15283 16.9452 6.33309 16.9452V16.9479C6.49804 16.9479 6.68281 16.9014 6.82252 16.9616C6.95772 17.0192 7.11275 17.1763 7.13348 17.3096Z" fill="#0A948A"/>
<path d="M7.13215 13.084C7.13215 13.2046 6.94648 13.4091 6.81939 13.4292C6.49762 13.4804 6.15782 13.4859 5.83694 13.4347C5.69002 13.4119 5.57105 13.2137 5.43945 13.0941C5.57555 12.9617 5.69093 12.7863 5.85316 12.7096C5.98836 12.6457 6.17584 12.6959 6.34079 12.6959V12.7041C6.50573 12.7041 6.69231 12.6539 6.82841 12.7178C6.96451 12.7808 7.13215 12.9571 7.13215 13.084Z" fill="#0A948A"/>
</svg>
