<svg width="486" height="486" viewBox="0 0 486 486" fill="none" xmlns="http://www.w3.org/2000/svg">
<g filter="url(#filter0_f_1051_3327)">
<circle cx="243" cy="243" r="56.6996" fill="#2EBCB8"/>
</g>
<path d="M390.02 142.31C407.086 142.31 420.92 156.147 420.92 173.202V364.281C420.92 367.398 420.42 369.743 419.886 372.126C408.833 432.604 367.914 453.713 352.986 459.438L352.984 459.439C348.351 461.216 343.269 461.475 338.493 460.223L338.485 460.221C315.351 454.131 301.844 447.191 294.374 439.856L294.375 439.855C284.464 430.126 286.292 413.52 298.207 406.252C316.982 394.787 326.918 380.381 332.198 368.962C334.851 363.225 336.333 358.227 337.145 354.73C337.55 352.985 337.786 351.624 337.917 350.744C337.971 350.383 338.006 350.104 338.028 349.914V173.202C338.028 156.138 351.887 142.31 368.944 142.31H390.02ZM368.944 160.884C362.125 160.884 356.603 166.416 356.603 173.202V350.773L356.573 351.142L347.315 350.404L355.415 351.053C356.565 351.146 356.572 351.149 356.572 351.151C356.572 351.153 356.572 351.159 356.571 351.162C356.571 351.169 356.57 351.177 356.569 351.186C356.568 351.202 356.566 351.222 356.564 351.243C356.561 351.287 356.556 351.34 356.55 351.402C356.538 351.527 356.521 351.688 356.499 351.885C356.455 352.279 356.387 352.815 356.288 353.48C356.09 354.811 355.764 356.664 355.237 358.933C354.185 363.464 352.322 369.694 349.057 376.757C342.5 390.937 330.301 408.418 307.887 422.104L307.881 422.108C306.397 423.013 306.081 425.163 307.267 426.478L307.387 426.602L307.388 426.603C311.384 430.526 321.102 436.438 343.21 442.257C344.198 442.515 345.231 442.474 346.153 442.162L346.337 442.096C357.78 437.707 392.224 420.557 401.647 368.61L401.683 368.421L401.725 368.232C402.25 365.895 402.346 365.251 402.346 364.281V173.202C402.346 166.407 396.829 160.884 390.02 160.884H368.944ZM264.191 25C278.954 25 290.901 36.9769 290.901 51.7383V325.81C290.901 343.76 276.352 358.354 258.373 358.354H183.5C181.166 358.354 178.828 358.284 176.519 358.144C114.506 354.604 65.0802 304.054 65.0801 241.918C65.0801 179.793 114.488 129.268 176.481 125.71L178.228 125.617C179.978 125.537 181.74 125.498 183.5 125.498H212.568V51.7383C212.569 36.9659 224.542 25.0005 239.293 25H264.191ZM239.293 43.5742C234.802 43.5747 231.142 47.2221 231.142 51.7383V144.071H183.5C181.524 144.071 179.551 144.131 177.614 144.249L177.596 144.251L177.577 144.252C125.044 147.251 83.6543 189.978 83.6543 241.918C83.6544 293.454 124.401 335.933 176.348 339.522L177.577 339.601L177.614 339.603C179.551 339.721 181.524 339.78 183.5 339.78H258.373C266.072 339.78 272.327 333.524 272.327 325.81V51.7383C272.327 47.2106 268.671 43.5742 264.191 43.5742H239.293ZM196.096 180.097C203.862 180.097 211.366 181.444 218.312 183.927L218.982 184.171L218.993 184.175L219.003 184.179C220.731 184.823 222.473 185.54 224.195 186.354L229.517 188.866V299.751L224.195 302.264C222.473 303.077 220.731 303.796 219.003 304.439L218.993 304.443L218.982 304.446C211.85 307.085 204.112 308.52 196.096 308.521C194.818 308.52 193.536 308.483 192.268 308.407V308.408C158.158 306.462 130.869 278.631 130.869 244.309C130.869 209.977 158.146 182.169 192.242 180.211C193.519 180.135 194.81 180.097 196.096 180.097ZM196.096 198.671C195.172 198.671 194.25 198.698 193.35 198.752L193.338 198.753L193.325 198.754C168.698 200.159 149.442 220.163 149.442 244.309C149.442 268.44 168.7 288.459 193.325 289.864H193.338L193.35 289.865C194.25 289.919 195.172 289.946 196.096 289.946C201.293 289.946 206.296 289.11 210.942 287.581V201.036C206.296 199.507 201.293 198.671 196.096 198.671ZM397.49 25C410.369 25.0001 420.919 35.3697 420.919 48.3047V76.9697C420.919 89.9345 410.339 100.273 397.49 100.273H364.188C351.309 100.273 340.758 89.9045 340.758 76.9697V48.3047C340.758 35.3396 351.339 25 364.188 25H397.49ZM364.188 43.5742C361.427 43.5742 359.332 45.7666 359.332 48.3047V76.9697C359.332 79.5053 361.425 81.6992 364.188 81.6992H397.49C400.25 81.6991 402.345 79.5075 402.346 76.9697V48.3047C402.346 45.7689 400.253 43.5743 397.49 43.5742H364.188Z" fill="url(#paint0_radial_1051_3327)"/>
<defs>
<filter id="filter0_f_1051_3327" x="0.56073" y="0.560486" width="484.88" height="484.879" filterUnits="userSpaceOnUse" color-interpolation-filters="sRGB">
<feFlood flood-opacity="0" result="BackgroundImageFix"/>
<feBlend mode="normal" in="SourceGraphic" in2="BackgroundImageFix" result="shape"/>
<feGaussianBlur stdDeviation="92.87" result="effect1_foregroundBlur_1051_3327"/>
</filter>
<radialGradient id="paint0_radial_1051_3327" cx="0" cy="0" r="1" gradientUnits="userSpaceOnUse" gradientTransform="translate(243 243) rotate(90) scale(319 260.35)">
<stop stop-color="#525552"/>
<stop offset="1" stop-color="#323232"/>
</radialGradient>
</defs>
</svg>
