<svg width="486" height="486" viewBox="0 0 486 486" fill="none" xmlns="http://www.w3.org/2000/svg">
<g filter="url(#filter0_f_1060_3908)">
<circle cx="242.919" cy="243" r="56.6996" fill="#2EBCB8"/>
</g>
<path d="M389.938 142.31C407.005 142.31 420.839 156.147 420.839 173.202V364.281C420.839 367.398 420.339 369.743 419.805 372.126C408.752 432.604 367.833 453.713 352.905 459.438L352.903 459.439C348.27 461.216 343.188 461.475 338.412 460.223L338.404 460.221C315.27 454.131 301.763 447.191 294.293 439.856L294.294 439.855C284.383 430.126 286.211 413.52 298.126 406.252C316.901 394.787 326.837 380.381 332.117 368.962C334.77 363.225 336.252 358.227 337.063 354.73C337.469 352.985 337.705 351.624 337.836 350.744C337.89 350.383 337.925 350.104 337.947 349.914V173.202C337.947 156.138 351.806 142.31 368.863 142.31H389.938ZM368.863 160.884C362.044 160.884 356.521 166.416 356.521 173.202V350.773L356.492 351.142L347.234 350.404L355.334 351.053C356.484 351.146 356.491 351.149 356.491 351.151C356.491 351.153 356.491 351.159 356.49 351.162C356.49 351.169 356.489 351.177 356.488 351.186C356.487 351.202 356.485 351.222 356.483 351.243C356.48 351.287 356.475 351.34 356.469 351.402C356.457 351.527 356.44 351.688 356.418 351.885C356.374 352.279 356.306 352.815 356.207 353.48C356.009 354.811 355.683 356.664 355.156 358.933C354.104 363.464 352.241 369.694 348.976 376.757C342.419 390.937 330.22 408.418 307.806 422.104L307.8 422.108C306.316 423.013 306 425.163 307.186 426.478L307.306 426.602L307.307 426.603C311.303 430.526 321.021 436.438 343.129 442.257C344.117 442.515 345.15 442.474 346.072 442.162L346.256 442.096C357.698 437.707 392.142 420.557 401.566 368.61L401.602 368.421L401.644 368.232C402.169 365.895 402.265 365.251 402.265 364.281V173.202C402.265 166.407 396.748 160.884 389.938 160.884H368.863ZM264.11 25C278.873 25 290.82 36.9769 290.82 51.7383V325.81C290.82 343.76 276.271 358.354 258.292 358.354H183.419C181.085 358.354 178.747 358.284 176.438 358.144C114.425 354.604 64.9991 304.054 64.999 241.918C64.999 179.793 114.407 129.268 176.4 125.71L178.146 125.617C179.897 125.537 181.659 125.498 183.419 125.498H212.487V51.7383C212.488 36.9659 224.461 25.0005 239.212 25H264.11ZM239.212 43.5742C234.721 43.5747 231.061 47.2221 231.061 51.7383V144.071H183.419C181.443 144.071 179.47 144.131 177.533 144.249L177.515 144.251L177.496 144.252C124.962 147.251 83.5732 189.978 83.5732 241.918C83.5733 293.454 124.32 335.933 176.267 339.522L177.496 339.601L177.533 339.603C179.47 339.721 181.443 339.78 183.419 339.78H258.292C265.991 339.78 272.246 333.524 272.246 325.81V51.7383C272.246 47.2106 268.59 43.5742 264.11 43.5742H239.212ZM196.015 180.097C203.781 180.097 211.285 181.444 218.231 183.927L218.901 184.171L218.912 184.175L218.922 184.179C220.65 184.823 222.392 185.54 224.114 186.354L229.436 188.866V299.751L224.114 302.264C222.392 303.077 220.65 303.796 218.922 304.439L218.912 304.443L218.901 304.446C211.769 307.085 204.031 308.52 196.015 308.521C194.737 308.52 193.455 308.483 192.187 308.407V308.408C158.077 306.462 130.788 278.631 130.788 244.309C130.788 209.977 158.065 182.169 192.161 180.211C193.438 180.135 194.729 180.097 196.015 180.097ZM196.015 198.671C195.091 198.671 194.169 198.698 193.269 198.752L193.257 198.753L193.244 198.754C168.617 200.159 149.361 220.163 149.361 244.309C149.361 268.44 168.619 288.459 193.244 289.864H193.257L193.269 289.865C194.169 289.919 195.091 289.946 196.015 289.946C201.212 289.946 206.215 289.11 210.861 287.581V201.036C206.215 199.507 201.212 198.671 196.015 198.671ZM397.409 25C410.288 25.0001 420.838 35.3697 420.838 48.3047V76.9697C420.838 89.9345 410.258 100.273 397.409 100.273H364.106C351.228 100.273 340.677 89.9045 340.677 76.9697V48.3047C340.677 35.3396 351.258 25 364.106 25H397.409ZM364.106 43.5742C361.346 43.5742 359.251 45.7666 359.251 48.3047V76.9697C359.251 79.5053 361.344 81.6992 364.106 81.6992H397.409C400.169 81.6991 402.264 79.5075 402.265 76.9697V48.3047C402.265 45.7689 400.171 43.5743 397.409 43.5742H364.106Z" fill="url(#paint0_radial_1060_3908)"/>
<defs>
<filter id="filter0_f_1060_3908" x="0.479675" y="0.56073" width="484.88" height="484.88" filterUnits="userSpaceOnUse" color-interpolation-filters="sRGB">
<feFlood flood-opacity="0" result="BackgroundImageFix"/>
<feBlend mode="normal" in="SourceGraphic" in2="BackgroundImageFix" result="shape"/>
<feGaussianBlur stdDeviation="92.87" result="effect1_foregroundBlur_1060_3908"/>
</filter>
<radialGradient id="paint0_radial_1060_3908" cx="0" cy="0" r="1" gradientUnits="userSpaceOnUse" gradientTransform="translate(242.919 243) rotate(90) scale(285 232.601)">
<stop stop-color="#71C0BE"/>
<stop offset="1" stop-color="#024843"/>
</radialGradient>
</defs>
</svg>
