<svg width="31" height="27" viewBox="0 0 31 27" fill="none" xmlns="http://www.w3.org/2000/svg">
<path d="M30.9999 2.44042C31.0095 1.081 29.9465 -0.00632408 28.5468 2.83505e-05C19.8482 0.0360255 11.1497 0.0360255 2.45106 2.83505e-05C1.08317 -0.00632408 -0.0105112 1.05559 7.62234e-05 2.4436C0.041367 8.05385 0.0159573 13.6652 0.0180748 19.2765C0.0191335 20.8265 0.932825 21.7317 2.49129 21.7328C5.24401 21.7349 7.99673 21.7328 10.7494 21.7328H11.3402V25.8978C11.0755 25.8978 10.85 25.8968 10.6245 25.8978C9.9014 25.8989 9.17616 25.8798 8.45516 25.9179C8.31541 25.9264 8.1873 26.1604 8.0539 26.2906C8.18942 26.3954 8.31117 26.5331 8.46363 26.5966C8.58433 26.6464 8.74208 26.6072 8.88289 26.6072H21.9054C22.1171 26.6072 22.3395 26.6464 22.5364 26.5934C22.6888 26.5532 22.8106 26.3954 22.9451 26.2896C22.8117 26.1593 22.691 25.9391 22.5417 25.9179C22.1616 25.864 21.7677 25.8978 21.3802 25.8978C20.8075 25.8968 20.2347 25.8978 19.6788 25.8978V21.7328H20.3586C23.0933 21.7328 25.828 21.7359 28.5627 21.7317C30.0481 21.7296 30.9809 20.8074 30.9819 19.3262C30.9862 13.698 30.9597 8.06868 30.9999 2.44042ZM18.8996 25.847H12.1004V21.7656H18.8996V25.847ZM30.2631 19.6799C30.1572 20.5353 29.5219 21.0075 28.5733 21.0086C23.4744 21.0118 18.3766 21.0107 13.2788 21.0107C9.71506 21.0107 6.15135 21.0118 2.58763 21.0096C1.26527 21.0096 0.698844 20.4347 0.697785 19.1028C0.696726 18.7355 0.697785 18.3691 0.697785 17.9689H30.2768C30.2768 18.5629 30.3319 19.1293 30.2631 19.6799ZM29.6786 17.2426C24.9344 17.2289 20.1902 17.2342 15.445 17.2342C10.7357 17.2342 6.02642 17.2278 1.31715 17.2426C0.855537 17.2437 0.682963 17.1516 0.68508 16.6392C0.706255 11.9479 0.696726 7.25662 0.698844 2.56429C0.698844 1.29381 1.30338 0.694561 2.59081 0.694561C11.1984 0.692443 19.8048 0.692443 28.4124 0.694561C29.6998 0.694561 30.3012 1.29275 30.3022 2.56853C30.3043 7.2598 30.2938 11.9511 30.316 16.6434C30.3181 17.1622 30.135 17.2437 29.6786 17.2426Z" fill="#0A948A"/>
<path d="M27.4648 10.7494C27.5061 10.2814 27.3261 10.0358 26.8327 10.0919C26.2504 10.1586 26.3785 9.61231 26.2134 9.3381C26.1456 9.22587 26.2176 8.93154 26.3277 8.82884C26.6898 8.48899 26.6644 8.21583 26.2959 7.91621C26.1329 7.78281 25.9921 7.62294 25.846 7.46942C25.6258 7.23756 25.3844 7.17827 25.1769 7.45248C24.9249 7.78281 24.6644 7.80822 24.3256 7.5933C24.1679 7.49377 23.9741 7.45142 23.8037 7.38684C23.684 6.38527 23.684 6.38527 22.6624 6.39904C22.6444 6.39904 22.6274 6.4001 22.6094 6.39904C22.1647 6.3641 21.9234 6.55785 21.9816 7.01417C22.0557 7.59647 21.5359 7.5086 21.2532 7.64729C21.1145 7.71505 20.872 7.58694 20.6825 7.52765C20.4983 7.46942 20.2304 7.27356 20.1574 7.33285C19.8091 7.61659 19.4597 7.93421 19.2342 8.31324C19.1675 8.42758 19.5031 8.77908 19.6513 9.02259C19.6682 9.05012 19.6704 9.08612 19.6767 9.11153C19.5825 9.34551 19.519 9.59325 19.3877 9.79547C19.3019 9.92675 19.1103 10.0834 18.9769 10.0739C18.439 10.0337 18.2845 10.2835 18.3353 10.7674C18.3543 10.959 18.3501 11.1549 18.3363 11.3486C18.3099 11.7372 18.493 11.9246 18.8689 11.8706C19.4692 11.7827 19.3707 12.3311 19.5751 12.6064C19.7879 12.8944 19.5835 13.0574 19.3993 13.2205C19.1018 13.4831 19.1389 13.7244 19.4184 13.9733C19.5624 14.1014 19.7021 14.2379 19.8281 14.3851C20.1129 14.7218 20.4115 14.7885 20.6995 14.4137C21.0351 13.9743 21.3231 14.3904 21.6322 14.4402C21.9392 14.491 21.9953 14.69 21.9964 14.9738C21.9964 15.1442 22.1033 15.4523 22.187 15.4608C22.6518 15.5095 23.1324 15.5317 23.5866 15.4502C23.6883 15.4322 23.7094 14.9632 23.7677 14.7027C23.7761 14.6688 23.7878 14.636 23.8005 14.5947C24.0218 14.5047 24.2589 14.4349 24.4686 14.3152C24.7089 14.1765 24.8868 14.1903 25.0572 14.4137C25.3621 14.8118 25.6628 14.7535 25.9614 14.3957C26.0736 14.2602 26.2007 14.1342 26.3351 14.022C26.6612 13.7477 26.7057 13.4629 26.3489 13.1983C25.8555 12.8319 26.3394 12.5228 26.3806 12.1872C26.4219 11.859 26.6517 11.8653 26.8878 11.8822C27.3272 11.914 27.4976 11.7001 27.4648 11.2777C27.451 11.102 27.4489 10.9241 27.4648 10.7494ZM26.4738 11.1327C26.0048 11.0744 25.8597 11.3465 25.7782 11.733C25.7348 11.9362 25.6702 12.1501 25.5569 12.3206C25.288 12.7218 25.1239 13.085 25.6205 13.4428C25.6723 13.4809 25.6268 13.6546 25.6268 13.7647C25.5771 13.7859 25.5262 13.807 25.4754 13.8282C25.1345 13.2808 24.7375 13.2491 24.2685 13.6143C24.1361 13.7181 23.953 13.7784 23.7836 13.8102C23.3272 13.8991 22.9842 14.0601 23.0583 14.6244C23.0668 14.6879 22.9546 14.7684 22.8974 14.8404C22.8328 14.761 22.7026 14.671 22.7121 14.6021C22.7852 14.095 22.5184 13.9076 22.0716 13.8335C21.8852 13.8028 21.6904 13.7319 21.5348 13.627C21.1314 13.356 20.7619 13.1919 20.3988 13.6885C20.3607 13.7393 20.1913 13.6948 20.0092 13.6345C20.6815 13.1623 20.4994 12.6911 20.1627 12.1946C20.0674 12.0538 20.0049 11.8717 19.9837 11.7012C19.9329 11.2999 19.7519 11.0998 19.3242 11.1327C19.2257 11.1401 19.1177 11.0215 19.0139 10.9601C19.1219 10.9029 19.232 10.7949 19.339 10.797C19.7254 10.8044 19.9202 10.6467 19.9774 10.2571C20.0102 10.0358 20.0843 9.79441 20.2167 9.61972C20.5809 9.13905 20.5915 8.72826 20.0092 8.36088C20.0494 8.31112 20.0896 8.26136 20.1288 8.21266C20.2696 8.2603 20.4475 8.26983 20.5417 8.36406C20.7831 8.60439 20.9938 8.64145 21.2796 8.43393C21.4755 8.29206 21.7074 8.16396 21.9403 8.11525C22.4877 8.00303 22.9112 7.83257 22.6359 7.06287C22.7111 7.06393 22.7873 7.06499 22.8625 7.0671C22.9313 7.18145 23.0626 7.29685 23.0583 7.40908C23.0446 7.80187 23.232 7.96809 23.593 8.05914C23.8947 8.13537 24.206 8.24654 24.4622 8.41805C24.7925 8.64039 25.0244 8.61604 25.2796 8.32065C25.3558 8.23171 25.5262 8.2243 25.7369 8.25607C25.1017 8.7452 25.2647 9.21105 25.612 9.70654C25.7083 9.84417 25.7539 10.0295 25.7846 10.1999C25.8566 10.6012 26.0355 10.8404 26.4876 10.8002C26.5691 10.7928 26.6612 10.9114 26.748 10.9717C26.6559 11.0289 26.5575 11.1432 26.4738 11.1327Z" fill="#0A948A"/>
<path d="M14.741 6.49011C13.8252 6.48799 12.9083 6.50599 11.9925 6.47846C11.7755 6.47105 11.514 6.36624 11.3552 6.21802C10.7136 5.61665 10.1037 4.97929 9.48119 4.35569C8.92747 3.80197 8.76654 3.80409 8.30175 4.45204C7.37218 5.74794 7.21654 7.14759 7.91002 8.58218C8.61831 10.0496 9.86763 10.7325 11.2736 10.8182C13.497 10.8087 15.3032 9.14331 15.3953 7.19841C15.426 6.55152 15.3731 6.49117 14.741 6.49011ZM8.847 4.95494C9.50342 5.61242 10.1662 6.27519 10.7771 6.88608C10.2022 7.46097 9.54789 8.11633 8.89359 8.76958C7.96825 7.78918 7.95131 6.04121 8.847 4.95494ZM12.9973 9.69809C11.7818 10.3524 10.6077 10.2042 9.39225 9.38259C10.1122 8.67005 10.7697 8.01258 11.4388 7.36781C11.5298 7.28099 11.6844 7.21958 11.8104 7.21746C12.74 7.20476 13.6696 7.21111 14.6722 7.21111C14.5187 8.36302 13.9618 9.17825 12.9973 9.69809Z" fill="#0A948A"/>
<path d="M14.1121 11.9384C13.8156 11.9331 13.5192 11.932 13.2227 11.932C12.7442 11.932 12.2646 11.9362 11.7871 11.9362C11.3106 11.9352 10.8332 11.932 10.3567 11.932C10.0592 11.932 9.76065 11.9331 9.46209 11.9373C8.30277 11.9532 7.52883 12.6647 7.50871 13.716C7.48754 14.7715 8.28159 15.5338 9.46315 15.5455C11.0131 15.5624 12.5642 15.5645 14.1142 15.5455C15.264 15.5307 16.0337 14.7864 16.0337 13.7425C16.0337 12.6975 15.2544 11.9574 14.1121 11.9384ZM14.074 14.8478C12.542 14.8541 11.01 14.8531 9.47797 14.8478C8.72732 14.8457 8.19689 14.3788 8.19795 13.7393C8.19901 13.0977 8.72203 12.6445 9.48326 12.6392C10.2403 12.635 10.9973 12.6382 11.7543 12.6382C12.5293 12.6382 13.3042 12.634 14.0792 12.6403C14.8373 12.6467 15.301 13.0574 15.3116 13.7181C15.3233 14.3989 14.8458 14.8446 14.074 14.8478Z" fill="#0A948A"/>
<path d="M5.00254 5.51076C4.86172 5.41865 4.73362 5.19949 4.7262 5.03327C4.6955 4.32921 4.73362 3.62303 4.69868 2.92003C4.68915 2.74216 4.52187 2.44571 4.39164 2.42454C4.05708 2.37266 4.03273 2.67122 4.03167 2.92956C4.03061 3.59974 4.02214 4.26886 4.03485 4.93904C4.0412 5.22596 3.97132 5.39748 3.69605 5.56582C2.75801 6.13965 2.76754 7.34238 3.71193 7.89081C3.99991 8.05809 4.03485 8.24866 4.03379 8.52605C4.0285 10.6224 4.03061 12.7197 4.03273 14.816C4.03379 15.0743 3.98191 15.4174 4.35671 15.4248C4.77173 15.4333 4.71244 15.0733 4.71244 14.7959C4.71456 13.7393 4.7135 12.6816 4.7135 11.625C4.7135 10.5673 4.69974 9.50962 4.72726 8.453C4.7315 8.27513 4.87125 8.03374 5.02265 7.93527C5.98822 7.30532 5.98081 6.15342 5.00254 5.51076ZM4.39694 7.35508C4.00415 7.36355 3.76699 7.16239 3.7437 6.75584C3.72252 6.3694 4.00944 6.05072 4.38 6.07295C4.7675 6.09624 4.9803 6.32387 5.02795 6.71878C4.98348 7.09252 4.79926 7.34556 4.39694 7.35508Z" fill="#0A948A"/>
<path d="M27.9808 2.86605C27.8262 2.97827 27.678 3.17308 27.5149 3.18684C27.0067 3.22919 26.4932 3.20378 25.9819 3.20378H22.8586C21.4113 3.20378 19.9651 3.20378 18.5178 3.20272C18.3769 3.20272 18.215 3.23343 18.1017 3.17414C17.9842 3.11167 17.8433 2.95921 17.8423 2.84487C17.8423 2.73053 17.9799 2.56748 18.0964 2.51349C18.2298 2.45208 18.4077 2.48172 18.5665 2.48172C21.46 2.48066 24.3535 2.48066 27.2471 2.48066C27.3349 2.48066 27.445 2.44784 27.5075 2.48808C27.6758 2.59713 27.8251 2.73794 27.9808 2.86605Z" fill="#0A948A"/>
<path d="M13.3066 2.38643C12.9773 2.38749 12.8154 2.523 12.8185 2.85545C12.8228 3.29482 12.8196 3.73526 12.8196 4.17464H12.8185C12.8185 4.61401 12.8302 5.05445 12.8143 5.49277C12.8005 5.89191 12.9583 6.07084 13.3701 6.06343C14.214 6.04755 15.0578 6.05072 15.9016 6.06237C16.3039 6.06766 16.4669 5.90673 16.4617 5.49488C16.4426 3.9163 14.8894 2.38113 13.3066 2.38643ZM13.5353 5.31278V3.17095C14.6438 3.26306 15.5289 4.1217 15.6994 5.31278H13.5353Z" fill="#0A948A"/>
<path d="M12.3268 4.24769C12.3268 3.79138 12.3193 3.334 12.3289 2.87769C12.3363 2.50925 12.1457 2.3642 11.8048 2.39173C11.0478 2.45102 10.3702 2.70194 9.79426 3.21225C9.51793 3.45682 9.46393 3.68656 9.74661 3.96501C10.385 4.59284 11.0097 5.23656 11.6566 5.85592C11.7614 5.95544 11.9933 6.03696 12.0991 5.98614C12.2156 5.93109 12.3066 5.71616 12.3172 5.56477C12.3448 5.12751 12.3268 4.68707 12.3268 4.24769ZM11.5899 4.76012C11.2193 4.33239 10.8975 3.95972 10.528 3.53199C10.8054 3.41023 11.1537 3.25777 11.5899 3.06614V4.76012Z" fill="#0A948A"/>
<path d="M27.9803 4.68599C27.8077 4.79293 27.6383 4.98456 27.4605 4.99303C26.7236 5.02797 25.9846 5.00785 25.2456 5.00785C24.5077 5.00785 23.7676 5.02902 23.0307 4.99091C22.8645 4.9835 22.7078 4.77175 22.5469 4.65423C22.7099 4.53248 22.8708 4.30802 23.035 4.30485C24.5119 4.27732 25.9899 4.2752 27.4668 4.30591C27.6405 4.30908 27.8099 4.55365 27.9803 4.68599Z" fill="#0A948A"/>
<path d="M22.8869 8.9252C21.7466 8.92626 20.8329 9.8336 20.834 10.9643C20.835 12.0824 21.7741 13.0193 22.8911 13.0193C24.0261 13.0193 24.9281 12.1088 24.9281 10.9643C24.9281 9.81984 24.0314 8.92414 22.8869 8.9252ZM22.9028 12.3132C22.1616 12.3195 21.5518 11.7266 21.5433 10.9908C21.5349 10.2539 22.1278 9.65679 22.8742 9.6515C23.646 9.6462 24.2177 10.1999 24.2241 10.9601C24.2315 11.7139 23.6523 12.3068 22.9028 12.3132Z" fill="#0A948A"/>
<path d="M14.4179 13.8515C14.2009 14.0029 13.9785 14.2781 13.7678 14.2686C13.5826 14.2612 13.302 13.9595 13.2586 13.7466C13.1898 13.4174 13.4523 13.1495 13.7922 13.2003C14.0156 13.2342 14.2072 13.4714 14.4137 13.6164C14.4147 13.6948 14.4158 13.7731 14.4179 13.8515Z" fill="#0A948A"/>
</svg>
