<svg width="462" height="462" viewBox="0 0 462 462" fill="none" xmlns="http://www.w3.org/2000/svg">
<g filter="url(#filter0_f_1060_3916)">
<circle cx="230.908" cy="231" r="58.1333" fill="#2EBCB8"/>
</g>
<path d="M230.908 13C351.722 13.0001 449.816 110.516 449.816 231C449.816 351.484 351.722 449 230.908 449C110.095 449 12 351.484 12 231C12 110.516 110.095 13.0001 230.908 13ZM230.908 32.9834C121.045 32.9835 31.9834 121.639 31.9834 231C31.9834 340.361 121.045 429.016 230.908 429.017C340.771 429.016 429.833 340.361 429.833 231C429.833 121.639 340.771 32.9835 230.908 32.9834ZM232.574 78.3936C238.553 68.859 253.591 73.7005 252.633 85.1572L243.789 190.852H320.195C328.514 190.852 333.767 199.796 329.715 207.062L231.591 382.977C225.877 393.221 210.232 388.448 211.21 376.759L220.046 271.148H141.637C133.277 271.148 128.029 262.125 132.163 254.858L232.297 78.8584L232.574 78.3936ZM157.256 251.165H229.921C236.299 251.165 241.315 256.618 240.783 262.974L234.631 336.503L304.729 210.835H233.915C227.537 210.835 222.521 205.382 223.053 199.026L229.281 124.567L157.256 251.165Z" fill="url(#paint0_radial_1060_3916)"/>
<defs>
<filter id="filter0_f_1060_3916" x="0.191055" y="0.282852" width="461.433" height="461.433" filterUnits="userSpaceOnUse" color-interpolation-filters="sRGB">
<feFlood flood-opacity="0" result="BackgroundImageFix"/>
<feBlend mode="normal" in="SourceGraphic" in2="BackgroundImageFix" result="shape"/>
<feGaussianBlur stdDeviation="86.2917" result="effect1_foregroundBlur_1060_3916"/>
</filter>
<radialGradient id="paint0_radial_1060_3916" cx="0" cy="0" r="1" gradientUnits="userSpaceOnUse" gradientTransform="translate(230.908 231) rotate(75) scale(149.597 235.37)">
<stop stop-color="#71C0BE"/>
<stop offset="1" stop-color="#024843"/>
</radialGradient>
</defs>
</svg>
