<svg width="192" height="36" viewBox="0 0 192 36" fill="none" xmlns="http://www.w3.org/2000/svg">
<path d="M175.472 27.6717C176.422 28.4558 177.412 29.0749 178.444 29.5288C179.517 29.9828 180.796 30.2098 182.282 30.2098C184.799 30.2098 186.058 29.405 186.058 27.7955C186.058 27.0939 185.666 26.5368 184.882 26.1241C184.139 25.7114 183.211 25.3193 182.096 24.9479C181.023 24.5764 179.93 24.1225 178.815 23.586C177.701 23.0494 176.752 22.3479 175.968 21.4812C175.225 20.5732 174.853 19.3558 174.853 17.8288C174.853 16.1367 175.266 14.7748 176.092 13.7431C176.958 12.6701 178.072 11.8859 179.434 11.3907C180.838 10.8954 182.323 10.6478 183.892 10.6478C185.831 10.6478 187.441 10.9574 188.72 11.5764C189.793 12.0304 190.495 12.5875 190.825 13.2478C191.155 13.8669 191.155 14.7542 190.825 15.9097L190.639 16.5907C190.515 16.9209 190.35 17.0859 190.144 17.0859C190.02 17.0859 189.917 17.0653 189.834 17.024C189.752 16.9415 189.628 16.8796 189.463 16.8383C187.523 15.8891 185.625 15.4145 183.768 15.4145C182.942 15.4145 182.241 15.5796 181.663 15.9097C181.085 16.2399 180.796 16.7558 180.796 17.4574C180.796 18.159 181.168 18.7367 181.911 19.1907C182.695 19.6034 183.623 19.9955 184.696 20.3669C185.811 20.7383 186.925 21.1923 188.039 21.7288C189.153 22.2653 190.082 22.9669 190.825 23.8336C191.609 24.7002 192.001 25.8558 192.001 27.3002C192.001 29.6114 191.176 31.4891 189.525 32.9336C187.874 34.3368 185.687 35.0384 182.963 35.0384C181.23 35.0384 179.703 34.7495 178.382 34.1717C177.103 33.5526 176.092 32.7479 175.349 31.7574C174.606 30.7669 174.234 29.7352 174.234 28.6622C174.234 27.8368 174.482 27.4241 174.977 27.4241C175.142 27.4241 175.307 27.5066 175.472 27.6717Z" fill="black"/>
<path d="M153.255 31.5717V33.7384C153.255 34.1924 153.048 34.4194 152.636 34.4194H147.993C147.621 34.4194 147.436 34.1924 147.436 33.7384V0.743106C147.436 0.247865 147.621 0.000244141 147.993 0.000244141H148.302C149.912 0.000244141 151.129 0.412944 151.955 1.23834C152.821 2.02247 153.255 3.34311 153.255 5.20026V14.1146C153.956 13.0828 154.905 12.2368 156.102 11.5765C157.34 10.8749 158.826 10.5241 160.559 10.5241C163.82 10.5241 166.399 11.6384 168.298 13.8669C170.196 16.0543 171.145 19.0051 171.145 22.7193C171.145 24.9479 170.732 26.9908 169.907 28.8479C169.123 30.7051 167.947 32.1908 166.378 33.3051C164.81 34.4194 162.871 34.9765 160.559 34.9765C157.423 34.9765 154.988 33.8416 153.255 31.5717ZM159.136 29.4051C159.92 29.4051 160.766 29.2194 161.674 28.8479C162.582 28.4765 163.366 27.8162 164.026 26.867C164.686 25.8765 165.017 24.494 165.017 22.7193C165.017 20.986 164.686 19.6654 164.026 18.7574C163.407 17.8082 162.644 17.1479 161.736 16.7765C160.828 16.405 159.961 16.2193 159.136 16.2193C158.393 16.2193 157.567 16.3844 156.659 16.7146C155.751 17.0035 154.947 17.6225 154.245 18.5717C153.585 19.4797 153.255 20.8622 153.255 22.7193C153.255 24.5352 153.585 25.9384 154.245 26.9289C154.947 27.8781 155.751 28.5384 156.659 28.9098C157.609 29.24 158.434 29.4051 159.136 29.4051Z" fill="black"/>
<path d="M135.803 31.5099C134.977 32.6242 133.925 33.4908 132.645 34.1099C131.366 34.6877 130.004 34.9765 128.56 34.9765C126.249 34.9765 124.288 34.4194 122.679 33.3051C121.111 32.1908 119.914 30.7051 119.088 28.848C118.304 26.9908 117.912 24.948 117.912 22.7194C117.912 20.4083 118.345 18.3448 119.212 16.5289C120.079 14.6717 121.317 13.2067 122.926 12.1336C124.577 11.0606 126.496 10.5241 128.684 10.5241C130.499 10.5241 132.026 10.8543 133.265 11.5146C134.544 12.1749 135.555 12.959 136.298 13.867C136.628 12.9178 137.165 12.2368 137.907 11.8241C138.692 11.3701 139.62 11.1432 140.693 11.1432H141.003C141.457 11.1432 141.684 11.3908 141.684 11.886V33.7384C141.684 34.1924 141.457 34.4194 141.003 34.4194H136.422C136.009 34.4194 135.803 34.1924 135.803 33.7384V31.5099ZM129.86 29.4051C130.644 29.4051 131.49 29.24 132.398 28.9099C133.347 28.5384 134.152 27.8781 134.812 26.9289C135.472 25.9797 135.803 24.5765 135.803 22.7194C135.803 20.8622 135.472 19.4797 134.812 18.5717C134.152 17.6225 133.368 17.0035 132.46 16.7146C131.552 16.3844 130.706 16.2194 129.922 16.2194C129.096 16.2194 128.209 16.4051 127.26 16.7765C126.352 17.1479 125.568 17.8083 124.907 18.7575C124.288 19.7067 123.979 21.0273 123.979 22.7194C123.979 24.494 124.309 25.8765 124.969 26.867C125.671 27.8162 126.476 28.4765 127.384 28.848C128.291 29.2194 129.117 29.4051 129.86 29.4051Z" fill="black"/>
<path d="M102.735 28.786H111.897C114.29 28.786 115.487 29.9416 115.487 32.2527V33.5527C115.487 34.1305 115.219 34.4194 114.682 34.4194H97.3489C96.895 34.4194 96.668 34.1924 96.668 33.7384V0.743106C96.668 0.247865 96.895 0.000244141 97.3489 0.000244141H97.9061C99.4743 0.000244141 100.671 0.43358 101.497 1.30025C102.322 2.12565 102.735 3.50819 102.735 5.44788V28.786Z" fill="black"/>
<path d="M84.4179 31.51C83.5925 32.6243 82.5401 33.4909 81.2607 34.11C79.9813 34.6878 78.6194 34.9767 77.175 34.9767C74.8639 34.9767 72.9036 34.4195 71.294 33.3052C69.7258 32.1909 68.5289 30.7052 67.7035 28.8481C66.9194 26.9909 66.5273 24.9481 66.5273 22.7195C66.5273 20.4084 66.9607 18.3449 67.8273 16.529C68.694 14.6719 69.9321 13.2068 71.5416 12.1338C73.1924 11.0607 75.1115 10.5242 77.2988 10.5242C79.1147 10.5242 80.6417 10.8544 81.8798 11.5147C83.1591 12.175 84.1702 12.9592 84.9131 13.8671C85.2433 12.9179 85.7798 12.2369 86.5226 11.8242C87.3068 11.3703 88.2353 11.1433 89.3084 11.1433H89.6179C90.0718 11.1433 90.2988 11.3909 90.2988 11.8861V33.7386C90.2988 34.1925 90.0718 34.4195 89.6179 34.4195H85.0369C84.6242 34.4195 84.4179 34.1925 84.4179 33.7386V31.51ZM78.475 29.4052C79.2591 29.4052 80.1052 29.2401 81.0131 28.91C81.9623 28.5386 82.7671 27.8782 83.4274 26.929C84.0877 25.9798 84.4179 24.5766 84.4179 22.7195C84.4179 20.8623 84.0877 19.4798 83.4274 18.5719C82.7671 17.6227 81.9829 17.0036 81.075 16.7147C80.1671 16.3846 79.321 16.2195 78.5369 16.2195C77.7115 16.2195 76.8242 16.4052 75.875 16.7766C74.967 17.1481 74.1829 17.8084 73.5226 18.7576C72.9035 19.7068 72.594 21.0274 72.594 22.7195C72.594 24.4941 72.9242 25.8766 73.5845 26.8671C74.2861 27.8163 75.0909 28.4767 75.9988 28.8481C76.9067 29.2195 77.7321 29.4052 78.475 29.4052Z" fill="#55DBCD"/>
<path d="M52.9752 28.6001L58.1133 11.9476C58.2371 11.4111 58.5467 11.1429 59.0419 11.1429H63.6848C63.8911 11.1429 64.0356 11.2254 64.1181 11.3905C64.2007 11.5556 64.2007 11.7207 64.1181 11.8857L56.5657 33.7382C56.4832 33.9858 56.38 34.1715 56.2562 34.2953C56.1737 34.3779 55.9879 34.4191 55.699 34.4191H50.1276C49.6736 34.4191 49.3641 34.1921 49.199 33.7382L41.7085 11.8857C41.5847 11.3905 41.7085 11.1429 42.08 11.1429H43.1324C44.8657 11.1429 46.1451 11.4937 46.9705 12.1953C47.8371 12.8969 48.5594 14.2381 49.1371 16.2191L52.9752 28.6001Z" fill="#55DBCD"/>
<path d="M31.9551 5.07622C31.9551 4.08574 32.2646 3.28098 32.8837 2.66193C33.544 2.00161 34.3487 1.67145 35.2979 1.67145C36.2472 1.67145 37.0313 2.00161 37.6503 2.66193C38.3106 3.28098 38.6408 4.08574 38.6408 5.07622C38.6408 6.02542 38.3106 6.83019 37.6503 7.49051C37.0313 8.15083 36.2472 8.48099 35.2979 8.48099C34.3487 8.48099 33.544 8.15083 32.8837 7.49051C32.2646 6.83019 31.9551 6.02542 31.9551 5.07622ZM33.0075 34.4191C32.5948 34.4191 32.3884 34.1922 32.3884 33.7382V11.8858C32.3884 11.3905 32.5948 11.1429 33.0075 11.1429H33.317C34.8852 11.1429 36.1027 11.5556 36.9694 12.381C37.836 13.2064 38.2694 14.5477 38.2694 16.4048V33.7382C38.2694 34.1922 38.0424 34.4191 37.5884 34.4191H33.0075Z" fill="black"/>
<ellipse cx="35.3146" cy="5.02829" rx="3.50792" ry="3.62485" fill="black"/>
<path d="M19.9334 23.2763V0.742884C19.9334 0.247643 20.1604 2.18567e-05 20.6143 2.18567e-05H21.1096C23.8105 2.18567e-05 26.0001 2.19035 26.0001 4.89129C26.0001 5.06413 26.0001 5.22981 26.0001 5.38575V33.7382C26.0001 34.1922 25.7731 34.4192 25.3191 34.4192H20.9239C20.3461 34.4192 19.8921 34.1509 19.562 33.6144L6.06668 11.6381V33.7382C6.06668 34.1922 5.8397 34.4192 5.38573 34.4192H0.680954C0.226985 34.4192 0 34.1922 0 33.7382V0.742884C0 0.247643 0.226985 2.18567e-05 0.680954 2.18567e-05H2.5381C3.39817 2.18567e-05 4.49136 8.56782e-05 5.11555 0.000127512C5.42617 0.00014833 5.71472 0.156484 5.88382 0.417043C6.29591 1.052 7.08154 2.26823 7.5524 3.03336L19.9334 23.2763Z" fill="#55DBCD"/>
</svg>
