<svg width="438" height="438" viewBox="0 0 438 438" fill="none" xmlns="http://www.w3.org/2000/svg">
<path d="M302.299 1C323.502 1.00008 340.691 18.1891 340.691 39.3926V126.388L399.587 126.924C420.723 127.116 437.728 144.357 437.63 165.493L437.041 292.434C436.943 313.567 419.782 330.648 398.648 330.648H305.829V398.607C305.829 419.811 288.64 437 267.437 437H136.372C115.168 437 97.9797 419.811 97.9795 398.607V311.611L39.084 311.076C17.948 310.884 0.942934 293.643 1.04102 272.507L1.62988 145.566C1.72815 124.433 18.8884 107.352 40.0225 107.352H132.842V39.3926C132.842 18.189 150.031 1 171.234 1H302.299ZM340.691 187.227C340.691 190.208 340.351 193.11 339.708 195.896C339.422 197.135 339.076 198.351 338.674 199.54C338.474 200.13 338.261 200.713 338.034 201.29C337.84 201.784 337.632 202.272 337.418 202.756C335.235 207.684 332.049 212.069 328.113 215.646C327.204 216.472 326.255 217.255 325.27 217.992C323.299 219.466 321.181 220.756 318.943 221.834C316.705 222.912 314.347 223.78 311.894 224.411C311.587 224.49 311.279 224.565 310.97 224.637C309.731 224.923 308.47 225.149 307.188 225.312C306.868 225.352 306.547 225.389 306.225 225.422C304.934 225.553 303.624 225.62 302.299 225.62H136.372C135.721 225.62 135.075 225.645 134.437 225.693C133.372 225.774 132.326 225.921 131.303 226.131C130.893 226.215 130.488 226.309 130.086 226.412C129.282 226.619 128.494 226.864 127.724 227.146C127.338 227.288 126.957 227.438 126.581 227.597C126.393 227.676 126.206 227.758 126.021 227.842C125.649 228.01 125.282 228.186 124.921 228.371C124.74 228.464 124.56 228.558 124.382 228.655C124.025 228.849 123.675 229.052 123.329 229.262C122.983 229.472 122.643 229.69 122.309 229.916C121.974 230.142 121.645 230.376 121.322 230.617C120.838 230.979 120.367 231.358 119.91 231.754C119.606 232.017 119.309 232.288 119.018 232.565C116.023 235.42 113.734 239.006 112.433 243.036C112.088 244.102 111.811 245.198 111.61 246.32C111.537 246.733 111.473 247.15 111.42 247.569C111.287 248.618 111.218 249.688 111.218 250.773V398.607C111.218 412.499 122.48 423.762 136.372 423.762H267.437C281.329 423.762 292.591 412.499 292.591 398.607V330.648H191.975C188.319 330.648 185.356 327.684 185.355 324.028C185.356 320.373 188.319 317.409 191.975 317.409H398.648C412.495 317.409 423.737 306.218 423.802 292.372L424.391 165.432C424.455 151.583 413.314 140.288 399.466 140.162L340.691 139.628V187.227ZM171.234 14.2383C157.342 14.2383 146.08 25.5006 146.08 39.3926V107.352H246.696C250.352 107.352 253.315 110.316 253.315 113.972C253.315 117.627 250.352 120.591 246.696 120.591H40.0225C26.176 120.591 14.9336 131.782 14.8691 145.628L14.2803 272.568C14.216 286.417 25.3573 297.712 39.2051 297.838L97.9795 298.372V250.773C97.9795 248.786 98.1306 246.833 98.4219 244.927C98.6757 243.265 99.0374 241.639 99.4971 240.055C99.7951 239.028 100.136 238.019 100.516 237.029C100.591 236.834 100.667 236.639 100.745 236.444C101.099 235.566 101.484 234.705 101.899 233.86C102.183 233.283 102.48 232.714 102.791 232.154C103.634 230.638 104.573 229.183 105.606 227.802C105.975 227.309 106.355 226.826 106.746 226.352C106.942 226.115 107.141 225.881 107.342 225.648C107.744 225.184 108.157 224.729 108.581 224.284C115.573 216.95 125.439 212.38 136.372 212.38H302.299C311.633 212.38 319.779 207.297 324.12 199.747C324.423 199.22 324.708 198.682 324.973 198.132C325.323 197.406 325.639 196.66 325.919 195.897C325.94 195.84 325.959 195.781 325.979 195.724C326.932 193.069 327.453 190.209 327.453 187.227V39.3926C327.453 25.5007 316.191 14.2384 302.299 14.2383H171.234Z" fill="url(#paint0_radial_1051_3383)"/>
<g filter="url(#filter0_f_1051_3383)">
<circle cx="219.039" cy="219" r="51.1903" fill="#2EBCB8"/>
</g>
<circle cx="191.238" cy="59.6924" r="18.0931" stroke="#474D4C" stroke-width="9.7085"/>
<circle cx="244.193" cy="376.543" r="18.0931" stroke="#474D4C" stroke-width="9.7085"/>
<defs>
<filter id="filter0_f_1051_3383" x="0.156326" y="0.117386" width="437.765" height="437.765" filterUnits="userSpaceOnUse" color-interpolation-filters="sRGB">
<feFlood flood-opacity="0" result="BackgroundImageFix"/>
<feBlend mode="normal" in="SourceGraphic" in2="BackgroundImageFix" result="shape"/>
<feGaussianBlur stdDeviation="83.8462" result="effect1_foregroundBlur_1051_3383"/>
</filter>
<radialGradient id="paint0_radial_1051_3383" cx="0" cy="0" r="1" gradientUnits="userSpaceOnUse" gradientTransform="translate(219.335 219) rotate(90) scale(279.34 279.719)">
<stop stop-color="#636363"/>
<stop offset="1" stop-color="#323232"/>
</radialGradient>
</defs>
</svg>
