<svg width="439" height="438" viewBox="0 0 439 438" fill="none" xmlns="http://www.w3.org/2000/svg">
<g filter="url(#filter0_f_1060_3883)">
<circle cx="219" cy="219" r="51.1903" fill="#2EBCB8"/>
</g>
<path d="M302.26 -0.000976562C324.016 -0.000831991 341.653 17.6365 341.653 39.3926V125.396L399.557 125.923C421.243 126.12 438.691 143.81 438.591 165.497L438.002 292.438C437.901 314.123 420.294 331.648 398.609 331.648H306.791V398.607C306.791 420.364 289.154 438.001 267.397 438.001H136.333C114.577 438.001 96.9396 420.364 96.9395 398.607V312.604L39.0361 312.077C17.3493 311.88 -0.0984527 294.19 0.00195312 272.503L0.59082 145.562C0.691778 123.877 18.2987 106.352 39.9834 106.352H131.802V39.3926C131.802 17.6364 149.439 -0.000976562 171.195 -0.000976562H302.26ZM341.653 187.227C341.653 188.246 341.614 189.257 341.538 190.257C341.487 190.924 341.42 191.586 341.337 192.243C341.253 192.9 341.154 193.553 341.038 194.199C340.98 194.523 340.918 194.844 340.853 195.165C340.641 196.2 340.387 197.219 340.096 198.223C339.002 201.991 337.362 205.526 335.265 208.737C334.979 209.174 334.688 209.606 334.386 210.03C333.687 211.013 332.943 211.961 332.159 212.874C331.81 213.281 331.45 213.679 331.085 214.071C330.223 214.996 329.318 215.88 328.372 216.719C328.153 216.913 327.931 217.104 327.708 217.293C327.444 217.516 327.179 217.737 326.909 217.953C326.616 218.188 326.32 218.42 326.021 218.647C323.517 220.544 320.78 222.146 317.86 223.407C317.478 223.572 317.093 223.734 316.704 223.888C314.376 224.806 311.939 225.506 309.418 225.969C308.677 226.105 307.929 226.221 307.175 226.314C305.893 226.474 304.593 226.574 303.276 226.607C302.939 226.616 302.6 226.62 302.26 226.62H136.333C135.916 226.62 135.502 226.63 135.09 226.651C130.643 226.877 126.514 228.305 123.021 230.617C122.795 230.767 122.571 230.919 122.351 231.076C120.457 232.423 118.765 234.036 117.331 235.861C117.142 236.101 116.959 236.346 116.779 236.593C116.504 236.972 116.238 237.359 115.984 237.755C115.775 238.082 115.574 238.414 115.38 238.751C115.147 239.156 114.927 239.57 114.718 239.989C114.317 240.792 113.957 241.618 113.646 242.469C113.578 242.654 113.512 242.839 113.448 243.026C113.207 243.738 113 244.465 112.825 245.204C112.77 245.437 112.718 245.67 112.67 245.905C112.348 247.478 112.18 249.106 112.18 250.773V398.607C112.18 411.947 122.994 422.761 136.333 422.761H267.397C280.737 422.761 291.551 411.947 291.551 398.607V331.648H191.936C187.727 331.648 184.317 328.236 184.316 324.028C184.317 319.82 187.727 316.408 191.936 316.408H398.609C411.905 316.408 422.701 305.663 422.763 292.367L423.352 165.427C423.413 152.129 412.715 141.283 399.418 141.162L341.653 140.638V187.227ZM171.195 15.2393C157.856 15.2393 147.042 26.0532 147.042 39.3926V106.352H246.657C250.865 106.352 254.276 109.764 254.276 113.972C254.276 118.18 250.865 121.591 246.657 121.592H39.9834C26.6878 121.592 15.8919 132.337 15.8301 145.633L15.2412 272.573C15.1795 285.871 25.8778 296.717 39.1748 296.838L96.9395 297.362V250.773C96.9395 249.125 97.0426 247.501 97.2393 245.905C97.3265 245.198 97.4304 244.495 97.5547 243.8C97.6124 243.477 97.6737 243.154 97.7393 242.834C97.9874 241.621 98.2936 240.43 98.6504 239.261C98.9545 238.264 99.2955 237.284 99.6748 236.322C100.185 235.029 100.763 233.77 101.402 232.548C101.89 231.616 102.413 230.706 102.971 229.82C103.367 229.191 103.777 228.573 104.207 227.969C104.573 227.454 104.952 226.948 105.342 226.452C106.122 225.46 106.948 224.506 107.817 223.594C108.47 222.91 109.146 222.249 109.846 221.613C110.312 221.189 110.789 220.776 111.275 220.375C112.005 219.773 112.756 219.197 113.528 218.647C113.941 218.354 114.361 218.071 114.785 217.793C115.193 217.526 115.605 217.266 116.023 217.014C116.766 216.566 117.525 216.141 118.299 215.742C118.615 215.579 118.933 215.419 119.254 215.265C119.884 214.961 120.523 214.676 121.171 214.405C121.49 214.272 121.812 214.143 122.136 214.018C123.468 213.503 124.835 213.058 126.233 212.688C126.946 212.5 127.666 212.329 128.394 212.18C130.958 211.655 133.613 211.38 136.333 211.38H302.26C302.468 211.38 302.676 211.377 302.883 211.372C303.297 211.362 303.709 211.341 304.118 211.31C305.14 211.232 306.144 211.09 307.127 210.889C307.324 210.848 307.52 210.806 307.715 210.761C309.273 210.401 310.773 209.891 312.199 209.246C312.466 209.125 312.73 208.998 312.991 208.868C313.604 208.564 314.203 208.236 314.784 207.883C315.352 207.538 315.904 207.169 316.439 206.779C317.702 205.862 318.872 204.826 319.934 203.687C320.205 203.395 320.469 203.097 320.726 202.793C320.838 202.659 320.95 202.525 321.06 202.389C321.491 201.854 321.902 201.301 322.288 200.73C323.482 198.964 324.447 197.03 325.144 194.973C325.759 193.154 326.163 191.238 326.328 189.254C326.384 188.585 326.413 187.909 326.413 187.227V39.3926C326.413 26.0533 315.599 15.2394 302.26 15.2393H171.195Z" fill="url(#paint0_radial_1060_3883)"/>
<circle cx="191.199" cy="59.6927" r="18.0931" stroke="url(#paint1_linear_1060_3883)" stroke-width="11.71"/>
<circle cx="244.154" cy="376.542" r="18.0931" stroke="url(#paint2_linear_1060_3883)" stroke-width="11.71"/>
<defs>
<filter id="filter0_f_1060_3883" x="0.117264" y="0.117264" width="437.765" height="437.765" filterUnits="userSpaceOnUse" color-interpolation-filters="sRGB">
<feFlood flood-opacity="0" result="BackgroundImageFix"/>
<feBlend mode="normal" in="SourceGraphic" in2="BackgroundImageFix" result="shape"/>
<feGaussianBlur stdDeviation="83.8462" result="effect1_foregroundBlur_1060_3883"/>
</filter>
<radialGradient id="paint0_radial_1060_3883" cx="0" cy="0" r="1" gradientUnits="userSpaceOnUse" gradientTransform="translate(219.296 219) rotate(90) scale(358.137 358.618)">
<stop stop-color="#71C0BE"/>
<stop offset="1" stop-color="#024843"/>
</radialGradient>
<linearGradient id="paint1_linear_1060_3883" x1="175.545" y1="43.6504" x2="197.545" y2="75.1504" gradientUnits="userSpaceOnUse">
<stop stop-color="#2D7672"/>
<stop offset="1" stop-color="#519D9A"/>
</linearGradient>
<linearGradient id="paint2_linear_1060_3883" x1="228.5" y1="360.5" x2="250.5" y2="392" gradientUnits="userSpaceOnUse">
<stop stop-color="#519D9A"/>
<stop offset="1" stop-color="#2D7672"/>
</linearGradient>
</defs>
</svg>
