<svg width="439" height="438" viewBox="0 0 439 438" fill="none" xmlns="http://www.w3.org/2000/svg">
<g filter="url(#filter0_f_1051_3383)">
<circle cx="219.039" cy="219" r="51.1903" fill="#2EBCB8"/>
</g>
<path d="M302.299 -0.000976562C324.055 -0.000893839 341.692 17.6365 341.692 39.3926V125.396L399.596 125.923C421.283 126.12 438.73 143.81 438.63 165.497L438.041 292.438C437.94 314.123 420.333 331.648 398.648 331.648H306.83V398.607C306.83 420.364 289.193 438.001 267.437 438.001H136.372C114.616 438.001 96.9787 420.364 96.9785 398.607V312.604L39.0752 312.077C17.3884 311.88 -0.0593902 294.19 0.0410156 272.503L0.629883 145.562C0.73084 123.877 18.3377 106.352 40.0225 106.352H131.841V39.3926C131.841 17.6364 149.478 -0.000976562 171.234 -0.000976562H302.299ZM341.692 187.227C341.692 188.226 341.653 189.216 341.58 190.196C341.355 193.219 340.79 196.146 339.921 198.94C339.785 199.379 339.638 199.813 339.487 200.245C339.21 201.039 338.909 201.821 338.583 202.591C338.397 203.029 338.202 203.461 338.001 203.891C337.666 204.607 337.313 205.312 336.938 206.004C336.708 206.426 336.469 206.842 336.225 207.255C335.928 207.756 335.622 208.251 335.304 208.737C335.019 209.174 334.727 209.606 334.425 210.03C333.987 210.645 333.531 211.246 333.06 211.834C332.443 212.604 331.796 213.35 331.124 214.071C328.013 217.41 324.333 220.21 320.232 222.311C319.859 222.502 319.481 222.684 319.101 222.863C316.077 224.291 312.843 225.347 309.457 225.969C309.072 226.039 308.686 226.107 308.298 226.166C306.668 226.415 305.005 226.565 303.315 226.607C302.978 226.616 302.639 226.62 302.299 226.62H136.372C135.955 226.62 135.541 226.63 135.129 226.651C132.104 226.805 129.227 227.516 126.596 228.682C126.362 228.785 126.13 228.891 125.9 229.002C124.914 229.477 123.966 230.018 123.06 230.617C122.834 230.767 122.61 230.919 122.39 231.076C121.987 231.363 121.593 231.662 121.209 231.973C121.073 232.083 120.938 232.194 120.805 232.307C119.543 233.371 118.391 234.562 117.37 235.861C117.181 236.101 116.998 236.346 116.818 236.593C116.611 236.878 116.41 237.167 116.216 237.461C116.044 237.72 115.878 237.983 115.716 238.249C115.373 238.814 115.054 239.395 114.757 239.989C113.919 241.664 113.268 243.449 112.837 245.318C112.792 245.513 112.75 245.709 112.71 245.905C112.388 247.478 112.219 249.106 112.219 250.773V398.607C112.219 411.947 123.033 422.761 136.372 422.761H267.437C280.776 422.761 291.59 411.947 291.59 398.607V331.648H191.975C187.767 331.648 184.356 328.236 184.355 324.028C184.356 319.82 187.767 316.408 191.975 316.408H398.648C411.944 316.408 422.74 305.663 422.802 292.367L423.391 165.427C423.452 152.129 412.754 141.283 399.457 141.162L341.692 140.638V187.227ZM171.234 15.2393C157.895 15.2393 147.081 26.0532 147.081 39.3926V106.352H246.696C250.904 106.352 254.315 109.764 254.315 113.972C254.315 118.18 250.904 121.591 246.696 121.592H40.0225C26.7268 121.592 15.931 132.337 15.8691 145.633L15.2803 272.573C15.2186 285.871 25.9169 296.717 39.2139 296.838L96.9785 297.362V250.773C96.9785 249.125 97.0817 247.501 97.2783 245.905C97.3743 245.126 97.493 244.355 97.6338 243.591C97.839 242.477 98.0919 241.38 98.3887 240.302C98.4846 239.953 98.5842 239.606 98.6895 239.261C98.9936 238.264 99.3345 237.284 99.7139 236.322C99.8939 235.866 100.085 235.415 100.281 234.967C100.53 234.4 100.791 233.841 101.065 233.289C101.319 232.777 101.583 232.271 101.858 231.772C102.224 231.11 102.608 230.459 103.01 229.82C104.586 227.316 106.434 225 108.517 222.918C108.875 222.56 109.242 222.21 109.613 221.866C110.166 221.354 110.733 220.855 111.314 220.375C112.044 219.773 112.795 219.197 113.567 218.647C115.112 217.549 116.74 216.56 118.438 215.689C118.849 215.479 119.266 215.278 119.685 215.082C120.998 214.467 122.35 213.919 123.737 213.449C124.043 213.346 124.35 213.246 124.658 213.15C127.433 212.287 130.34 211.722 133.341 211.494C133.674 211.469 134.009 211.448 134.345 211.431C135.016 211.397 135.692 211.38 136.372 211.38H302.299C303.523 211.38 304.727 211.287 305.902 211.111C305.955 211.103 306.009 211.095 306.062 211.087C306.433 211.029 306.802 210.963 307.167 210.889C307.364 210.848 307.559 210.806 307.754 210.761C308.922 210.491 310.058 210.137 311.155 209.704C311.704 209.488 312.243 209.252 312.771 208.998C313.474 208.659 314.159 208.286 314.823 207.883C315.391 207.538 315.943 207.169 316.479 206.779C316.822 206.53 317.159 206.271 317.489 206.004C317.616 205.901 317.741 205.797 317.865 205.692C319.629 204.204 321.176 202.469 322.454 200.538C322.947 199.794 323.4 199.021 323.81 198.222C324.312 197.24 324.749 196.219 325.115 195.165C325.768 193.289 326.196 191.308 326.367 189.254C326.423 188.585 326.452 187.909 326.452 187.227V39.3926C326.452 26.0533 315.638 15.2393 302.299 15.2393H171.234Z" fill="url(#paint0_radial_1051_3383)"/>
<circle cx="191.238" cy="59.6924" r="18.0931" stroke="#474D4C" stroke-width="11.71"/>
<circle cx="244.193" cy="376.543" r="18.0931" stroke="#474D4C" stroke-width="11.71"/>
<defs>
<filter id="filter0_f_1051_3383" x="0.156326" y="0.117386" width="437.765" height="437.765" filterUnits="userSpaceOnUse" color-interpolation-filters="sRGB">
<feFlood flood-opacity="0" result="BackgroundImageFix"/>
<feBlend mode="normal" in="SourceGraphic" in2="BackgroundImageFix" result="shape"/>
<feGaussianBlur stdDeviation="83.8462" result="effect1_foregroundBlur_1051_3383"/>
</filter>
<radialGradient id="paint0_radial_1051_3383" cx="0" cy="0" r="1" gradientUnits="userSpaceOnUse" gradientTransform="translate(219.335 219) rotate(90) scale(356.5 356.983)">
<stop stop-color="#636363"/>
<stop offset="1" stop-color="#323232"/>
</radialGradient>
</defs>
</svg>
