<svg width="422" height="416" viewBox="0 0 422 416" fill="none" xmlns="http://www.w3.org/2000/svg">
<path d="M93.8973 293.079V299.166C93.8973 299.166 94.8144 306.761 87.7128 307.141C80.6224 307.521 57.2265 307.141 57.2265 307.141C57.2265 307.141 32.3431 306.985 20.2201 281.306C8.09714 255.627 -6.28491 214.847 10.2779 159.334C26.8408 103.821 64.5293 110.635 95.3624 110.758C123.064 110.869 184.171 110.512 196.316 110.445C197.367 110.434 198.408 110.456 199.47 110.49C202.624 110.601 211.962 110.423 211.682 104.246C211.347 96.818 213.494 91.021 195.6 91.948C177.707 92.8751 120.022 91.948 120.022 91.948C120.022 91.948 111.925 92.54 111.903 82.2752C111.88 72.0103 111.903 43.7848 111.903 43.7848C111.903 43.7848 110.874 27.2761 134.583 15.872C158.292 4.46783 209.233 -4.11041 265.8 10.5441C265.8 10.5441 306.206 19.2117 308.476 53.6699C310.746 88.128 307.324 156.397 307.324 156.397C307.324 156.397 305.971 188.543 273.527 196.987C241.084 205.431 153.036 192.15 133.308 202.572C113.58 212.993 94.9821 221.113 94.4341 260.14C93.8861 299.166 93.8973 293.079 93.8973 293.079Z" stroke="#0A948A" stroke-opacity="0.5" stroke-width="1.91765" stroke-miterlimit="10"/>
<path d="M152.902 70.3572C163.55 70.3572 172.182 61.7359 172.182 51.1009C172.182 40.4659 163.55 31.8445 152.902 31.8445C142.253 31.8445 133.621 40.4659 133.621 51.1009C133.621 61.7359 142.253 70.3572 152.902 70.3572Z" stroke="#0A948A" stroke-opacity="0.5" stroke-width="1.91765" stroke-miterlimit="10"/>
<path d="M328.103 122.921V116.834C328.103 116.834 327.186 109.239 334.288 108.859C341.378 108.479 364.774 108.859 364.774 108.859C364.774 108.859 389.657 109.015 401.78 134.694C413.903 160.373 428.285 201.153 411.723 256.666C395.16 312.179 357.471 305.365 326.638 305.242C299.104 305.131 238.556 305.477 225.908 305.555C224.711 305.566 223.515 305.533 222.307 305.499C218.952 305.41 210.05 305.723 210.329 311.754C210.665 319.182 208.517 324.979 226.411 324.052C244.305 323.125 301.99 324.052 301.99 324.052C301.99 324.052 310.086 323.46 310.109 333.725C310.131 343.99 310.109 372.215 310.109 372.215C310.109 372.215 311.138 388.724 287.429 400.128C263.719 411.532 212.778 420.11 156.212 405.456C156.212 405.456 115.806 396.788 113.536 362.33C111.265 327.872 114.688 259.603 114.688 259.603C114.688 259.603 116.041 227.457 148.484 219.013C180.928 210.569 268.976 223.85 288.703 213.428C308.431 203.018 327.03 194.887 327.578 155.86C328.126 116.834 328.103 122.921 328.103 122.921Z" stroke="#0A948A" stroke-opacity="0.5" stroke-width="1.91765" stroke-miterlimit="10"/>
<path d="M269.099 384.156C279.747 384.156 288.379 375.534 288.379 364.899C288.379 354.264 279.747 345.643 269.099 345.643C258.45 345.643 249.818 354.264 249.818 364.899C249.818 375.534 258.45 384.156 269.099 384.156Z" stroke="#0A948A" stroke-opacity="0.5" stroke-width="1.91765" stroke-miterlimit="10"/>
<path d="M99.9327 289.364V295.151C99.9327 295.151 100.804 302.371 94.0601 302.732C87.3273 303.093 65.1113 302.732 65.1113 302.732C65.1113 302.732 41.4828 302.583 29.9712 278.173C18.4596 253.763 4.80289 214.998 20.5304 162.228C36.258 109.458 72.0458 115.935 101.324 116.052C127.629 116.158 185.654 115.818 197.186 115.755C198.185 115.744 199.172 115.765 200.181 115.797C203.176 115.903 212.043 115.733 211.778 109.862C211.459 102.801 213.498 97.2905 196.507 98.1718C179.516 99.0531 124.74 98.1718 124.74 98.1718C124.74 98.1718 117.051 98.7345 117.03 88.9769C117.009 79.2192 117.03 52.3884 117.03 52.3884C117.03 52.3884 116.053 36.6954 138.567 25.8548C161.08 15.0141 209.452 6.85976 263.166 20.7902C263.166 20.7902 301.534 29.0295 303.69 61.785C305.846 94.5405 302.596 159.436 302.596 159.436C302.596 159.436 301.311 189.993 270.504 198.02C239.697 206.047 156.089 193.423 137.356 203.329C118.623 213.236 100.963 220.955 100.442 258.053C99.9221 295.151 99.9327 289.364 99.9327 289.364Z" stroke="#0A948A" stroke-opacity="0.1" stroke-width="2.52355" stroke-miterlimit="10"/>
<path d="M155.96 77.6478C166.072 77.6478 174.269 69.4525 174.269 59.343C174.269 49.2335 166.072 41.0381 155.96 41.0381C145.849 41.0381 137.652 49.2335 137.652 59.343C137.652 69.4525 145.849 77.6478 155.96 77.6478Z" stroke="#0A948A" stroke-opacity="0.1" stroke-width="2.52355" stroke-miterlimit="10"/>
<path d="M322.327 127.615V121.828C322.327 121.828 321.456 114.608 328.199 114.247C334.932 113.886 357.148 114.247 357.148 114.247C357.148 114.247 380.777 114.396 392.288 138.806C403.8 163.216 417.457 201.981 401.729 254.751C386.002 307.521 350.214 301.044 320.936 300.927C294.79 300.821 237.296 301.15 225.286 301.224C224.149 301.235 223.013 301.203 221.866 301.171C218.68 301.086 210.227 301.383 210.492 307.117C210.811 314.178 208.772 319.688 225.763 318.807C242.755 317.926 297.53 318.807 297.53 318.807C297.53 318.807 305.219 318.244 305.24 328.002C305.261 337.76 305.24 364.591 305.24 364.591C305.24 364.591 306.217 380.283 283.704 391.124C261.19 401.965 212.818 410.119 159.105 396.189C159.105 396.189 120.736 387.949 118.58 355.194C116.425 322.438 119.674 257.543 119.674 257.543C119.674 257.543 120.959 226.985 151.766 218.958C182.574 210.931 266.181 223.556 284.914 213.65C303.647 203.754 321.307 196.024 321.828 158.926C322.348 121.828 322.327 127.615 322.327 127.615Z" stroke="#0A948A" stroke-opacity="0.1" stroke-width="2.52355" stroke-miterlimit="10"/>
<path d="M266.298 375.941C276.41 375.941 284.606 367.745 284.606 357.636C284.606 347.526 276.41 339.331 266.298 339.331C256.187 339.331 247.99 347.526 247.99 357.636C247.99 367.745 256.187 375.941 266.298 375.941Z" stroke="#0A948A" stroke-opacity="0.1" stroke-width="2.52355" stroke-miterlimit="10"/>
</svg>
