<svg width="496" height="496" viewBox="0 0 496 496" fill="none" xmlns="http://www.w3.org/2000/svg">
<g filter="url(#filter0_f_1051_3317)">
<circle cx="248" cy="248" r="58" fill="#2EBCB8"/>
</g>
<g filter="url(#filter1_f_1051_3317)">
<circle cx="248.495" cy="248.495" r="28.4952" fill="url(#paint0_radial_1051_3317)"/>
</g>
<path d="M246.576 79.9124C292.133 37.8006 337.313 19.3954 367.116 36.1565C397.225 53.0898 404.814 102.076 391.95 163.761C452.023 182.786 491 213.415 491 247.959C491 282.153 452.81 312.509 393.772 331.573C407.123 392.159 400.201 440.45 370.686 457.714C341.17 474.978 295.684 457.34 249.421 416.004C203.864 458.116 158.685 476.522 128.882 459.76C98.7726 442.827 91.1833 393.841 104.048 332.155C43.9766 313.129 5.00015 282.503 5 247.959C5 213.766 43.1889 183.408 102.226 164.343C88.8758 103.758 95.799 55.4669 125.314 38.2034C154.83 20.9402 200.314 38.5784 246.576 79.9124ZM121.391 337.169C119.531 346.278 118.155 355.05 117.264 363.411C114.882 385.762 116.065 404.284 120.081 418.178C124.066 431.966 130.415 439.972 137.705 444.072C144.995 448.171 155.134 449.439 168.986 445.683C182.945 441.898 199.387 433.288 217.249 419.643C223.521 414.851 229.879 409.504 236.275 403.639C220.503 388.055 204.807 369.84 189.789 349.44C165.323 346.853 142.314 342.672 121.391 337.169ZM376.462 336.678C355.352 342.343 332.074 346.652 307.286 349.324C292.806 369.619 277.64 387.796 262.355 403.418C268.85 409.175 275.298 414.413 281.651 419.098C299.742 432.439 316.327 440.768 330.348 444.317C344.261 447.838 354.378 446.4 361.598 442.177C368.817 437.954 375.03 429.842 378.781 415.989C382.561 402.028 383.431 383.489 380.671 361.182C379.702 353.348 378.296 345.16 376.462 336.678ZM283.431 351.354C271.865 352.08 260.035 352.459 248 352.459C236.437 352.459 225.063 352.111 213.931 351.44C225.523 366.165 237.384 379.454 249.21 391.113C260.706 379.389 272.21 366.073 283.431 351.354ZM248 161.459C231.035 161.459 214.546 162.231 198.707 163.684C189.677 176.777 180.92 190.771 172.604 205.557C164.447 220.061 157.162 234.531 150.754 248.781C157.403 262.92 164.932 277.266 173.334 291.631C181.736 305.995 190.548 319.589 199.612 332.315C215.174 333.714 231.358 334.459 248 334.459C264.964 334.459 281.452 333.685 297.291 332.233C306.321 319.14 315.078 305.147 323.394 290.361C331.551 275.856 338.836 261.385 345.244 247.135C338.596 232.996 331.068 218.651 322.666 204.287C314.264 189.923 305.451 176.328 296.386 163.602C280.825 162.202 264.641 161.459 248 161.459ZM141.475 270.794C134.851 287.64 129.51 304.026 125.465 319.627C141.046 323.749 157.946 327.128 175.877 329.613C169.677 320.342 163.634 310.7 157.796 300.719C151.958 290.738 146.515 280.743 141.475 270.794ZM354.895 268.989C350.023 279.021 344.751 289.105 339.083 299.184C333.183 309.674 327.053 319.8 320.75 329.526C339.08 326.961 356.327 323.462 372.181 319.189C367.815 303.165 362.047 286.312 354.895 268.989ZM106.559 181.864C98.3115 184.563 90.535 187.485 83.2842 190.603C62.6352 199.483 47.0714 209.593 36.9297 219.905C26.8658 230.137 23 239.596 23 247.959C23.0001 256.323 26.8658 265.782 36.9297 276.014C47.0714 286.325 62.6353 296.436 83.2842 305.316C91.0078 308.637 99.3277 311.736 108.178 314.58C113.638 293.646 121.273 271.541 131.012 248.948C120.592 225.858 112.41 203.25 106.559 181.864ZM387.819 181.336C382.36 202.271 374.724 224.375 364.985 246.968C375.405 270.058 383.588 292.667 389.439 314.054C397.687 311.354 405.465 308.434 412.716 305.316C433.365 296.436 448.929 286.325 459.07 276.014C469.134 265.782 473 256.323 473 247.959C473 239.596 469.134 230.137 459.07 219.905C448.929 209.593 433.365 199.483 412.716 190.603C404.991 187.281 396.671 184.181 387.819 181.336ZM175.246 166.392C156.917 168.957 139.67 172.456 123.816 176.729C128.182 192.752 133.952 209.604 141.104 226.927C145.975 216.895 151.248 206.812 156.916 196.734C162.815 186.244 168.943 176.117 175.246 166.392ZM320.122 166.305C326.322 175.575 332.365 185.218 338.203 195.199C344.041 205.18 349.483 215.173 354.523 225.121C361.147 208.275 366.487 191.889 370.532 176.288C354.951 172.167 338.052 168.789 320.122 166.305ZM165.651 51.6008C151.738 48.0798 141.622 49.519 134.402 53.7415C127.183 57.964 120.969 66.0758 117.218 79.929C113.438 93.889 112.569 112.428 115.329 134.736C116.298 142.569 117.702 150.757 119.536 159.239C140.645 153.574 163.923 149.267 188.71 146.594C203.191 126.298 218.356 108.121 233.642 92.4983C227.148 86.7424 220.7 81.5041 214.348 76.8196C196.257 63.4789 179.672 55.1491 165.651 51.6008ZM358.293 51.8459C351.003 47.7463 340.864 46.4786 327.012 50.2346C313.053 54.0198 296.612 62.6298 278.75 76.2747C272.478 81.0662 266.118 86.4115 259.723 92.2766C275.496 107.861 291.191 126.077 306.209 146.478C330.675 149.064 353.684 153.244 374.607 158.747C376.467 149.638 377.843 140.867 378.734 132.506C381.117 110.155 379.934 91.6336 375.918 77.7395C371.933 63.9517 365.583 55.9457 358.293 51.8459ZM246.787 104.802C235.291 116.526 223.787 129.844 212.566 144.564C224.133 143.837 235.964 143.459 248 143.459C259.563 143.459 270.936 143.806 282.068 144.478C270.475 129.752 258.614 116.462 246.787 104.802Z" fill="url(#paint1_radial_1051_3317)"/>
<defs>
<filter id="filter0_f_1051_3317" x="0" y="0" width="496" height="496" filterUnits="userSpaceOnUse" color-interpolation-filters="sRGB">
<feFlood flood-opacity="0" result="BackgroundImageFix"/>
<feBlend mode="normal" in="SourceGraphic" in2="BackgroundImageFix" result="shape"/>
<feGaussianBlur stdDeviation="95" result="effect1_foregroundBlur_1051_3317"/>
</filter>
<filter id="filter1_f_1051_3317" x="216" y="216" width="64.9902" height="64.9905" filterUnits="userSpaceOnUse" color-interpolation-filters="sRGB">
<feFlood flood-opacity="0" result="BackgroundImageFix"/>
<feBlend mode="normal" in="SourceGraphic" in2="BackgroundImageFix" result="shape"/>
<feGaussianBlur stdDeviation="2" result="effect1_foregroundBlur_1051_3317"/>
</filter>
<radialGradient id="paint0_radial_1051_3317" cx="0" cy="0" r="1" gradientUnits="userSpaceOnUse" gradientTransform="translate(248.495 248.495) rotate(90) scale(29.3333)">
<stop stop-color="#2D7670"/>
<stop offset="1" stop-color="#143432"/>
</radialGradient>
<radialGradient id="paint1_radial_1051_3317" cx="0" cy="0" r="1" gradientUnits="userSpaceOnUse" gradientTransform="translate(247.999 247.959) rotate(-180) scale(227.999 421.81)">
<stop stop-color="#535653"/>
<stop offset="1" stop-color="#313232"/>
</radialGradient>
</defs>
</svg>
