<svg width="496" height="496" viewBox="0 0 496 496" fill="none" xmlns="http://www.w3.org/2000/svg">
<g filter="url(#filter0_f_1060_3894)">
<circle cx="248" cy="248" r="58" fill="#2EBCB8"/>
</g>
<g filter="url(#filter1_f_1060_3894)">
<circle cx="248.495" cy="248.495" r="28.4952" fill="url(#paint0_radial_1060_3894)"/>
</g>
<path d="M246.576 79.9121C292.133 37.8003 337.313 19.3952 367.116 36.1562C397.225 53.0896 404.814 102.075 391.95 163.761C452.023 182.786 491 213.415 491 247.959C491 282.153 452.81 312.509 393.772 331.573C407.123 392.159 400.201 440.45 370.686 457.714C341.17 474.978 295.684 457.339 249.421 416.004C203.864 458.116 158.685 476.521 128.882 459.76C98.7726 442.826 91.1833 393.84 104.048 332.154C43.9766 313.129 5.00015 282.503 5 247.959C5 213.765 43.1889 183.407 102.226 164.343C88.8758 103.758 95.799 55.4666 125.314 38.2031C154.83 20.94 200.314 38.5781 246.576 79.9121ZM121.391 337.169C119.531 346.278 118.155 355.05 117.264 363.411C114.882 385.762 116.065 404.284 120.081 418.178C124.066 431.965 130.415 439.972 137.705 444.071C144.995 448.171 155.134 449.439 168.986 445.683C182.945 441.897 199.387 433.288 217.249 419.643C223.521 414.851 229.879 409.504 236.275 403.639C220.503 388.054 204.807 369.84 189.789 349.439C165.323 346.853 142.314 342.672 121.391 337.169ZM376.462 336.678C355.352 342.342 332.074 346.652 307.286 349.324C292.806 369.619 277.64 387.796 262.355 403.418C268.85 409.174 275.298 414.413 281.651 419.098C299.742 432.438 316.327 440.768 330.348 444.316C344.261 447.837 354.378 446.399 361.598 442.177C368.817 437.954 375.03 429.841 378.781 415.988C382.561 402.028 383.431 383.489 380.671 361.182C379.702 353.348 378.296 345.16 376.462 336.678ZM283.431 351.354C271.865 352.08 260.035 352.459 248 352.459C236.437 352.459 225.063 352.111 213.931 351.439C225.523 366.164 237.384 379.453 249.21 391.112C260.706 379.389 272.21 366.072 283.431 351.354ZM248 161.459C231.035 161.459 214.546 162.231 198.707 163.684C189.677 176.777 180.92 190.77 172.604 205.557C164.447 220.061 157.162 234.531 150.754 248.78C157.403 262.92 164.932 277.266 173.334 291.631C181.736 305.995 190.548 319.589 199.612 332.314C215.174 333.714 231.358 334.459 248 334.459C264.964 334.459 281.452 333.685 297.291 332.232C306.321 319.139 315.078 305.147 323.394 290.36C331.551 275.855 338.836 261.385 345.244 247.135C338.596 232.996 331.068 218.651 322.666 204.287C314.264 189.922 305.451 176.328 296.386 163.602C280.825 162.202 264.641 161.459 248 161.459ZM141.475 270.794C134.851 287.64 129.51 304.026 125.465 319.627C141.046 323.749 157.946 327.128 175.877 329.612C169.677 320.342 163.634 310.7 157.796 300.719C151.958 290.737 146.515 280.743 141.475 270.794ZM354.895 268.988C350.023 279.021 344.751 289.105 339.083 299.184C333.183 309.674 327.053 319.8 320.75 329.525C339.08 326.961 356.327 323.461 372.181 319.188C367.815 303.165 362.047 286.312 354.895 268.988ZM106.559 181.863C98.3115 184.563 90.535 187.484 83.2842 190.603C62.6352 199.482 47.0714 209.593 36.9297 219.904C26.8658 230.137 23 239.596 23 247.959C23.0001 256.322 26.8658 265.781 36.9297 276.014C47.0714 286.325 62.6353 296.436 83.2842 305.315C91.0078 308.637 99.3277 311.736 108.178 314.58C113.638 293.645 121.273 271.541 131.012 248.947C120.592 225.858 112.41 203.25 106.559 181.863ZM387.819 181.336C382.36 202.27 374.724 224.375 364.985 246.968C375.405 270.058 383.588 292.667 389.439 314.054C397.687 311.354 405.465 308.434 412.716 305.315C433.365 296.436 448.929 286.325 459.07 276.014C469.134 265.781 473 256.322 473 247.959C473 239.596 469.134 230.137 459.07 219.904C448.929 209.593 433.365 199.482 412.716 190.603C404.991 187.281 396.671 184.181 387.819 181.336ZM175.246 166.392C156.917 168.956 139.67 172.456 123.816 176.729C128.182 192.752 133.952 209.604 141.104 226.927C145.975 216.895 151.248 206.811 156.916 196.733C162.815 186.244 168.943 176.117 175.246 166.392ZM320.122 166.305C326.322 175.575 332.365 185.218 338.203 195.199C344.041 205.18 349.483 215.173 354.523 225.121C361.147 208.275 366.487 191.889 370.532 176.288C354.951 172.167 338.052 168.789 320.122 166.305ZM165.651 51.6006C151.738 48.0796 141.622 49.5187 134.402 53.7412C127.183 57.9637 120.969 66.0756 117.218 79.9287C113.438 93.8888 112.569 112.428 115.329 134.735C116.298 142.569 117.702 150.756 119.536 159.238C140.645 153.574 163.923 149.266 188.71 146.594C203.191 126.298 218.356 108.121 233.642 92.498C227.148 86.7421 220.7 81.5039 214.348 76.8193C196.257 63.4787 179.672 55.1489 165.651 51.6006ZM358.293 51.8457C351.003 47.746 340.864 46.4784 327.012 50.2344C313.053 54.0195 296.612 62.6296 278.75 76.2744C272.478 81.0659 266.118 86.4112 259.723 92.2764C275.496 107.861 291.191 126.076 306.209 146.478C330.675 149.064 353.684 153.244 374.607 158.747C376.467 149.638 377.843 140.867 378.734 132.506C381.117 110.155 379.934 91.6334 375.918 77.7393C371.933 63.9515 365.583 55.9454 358.293 51.8457ZM246.787 104.802C235.291 116.526 223.787 129.844 212.566 144.563C224.133 143.837 235.964 143.459 248 143.459C259.563 143.459 270.936 143.806 282.068 144.478C270.475 129.752 258.614 116.461 246.787 104.802Z" fill="url(#paint1_radial_1060_3894)"/>
<defs>
<filter id="filter0_f_1060_3894" x="0" y="0" width="496" height="496" filterUnits="userSpaceOnUse" color-interpolation-filters="sRGB">
<feFlood flood-opacity="0" result="BackgroundImageFix"/>
<feBlend mode="normal" in="SourceGraphic" in2="BackgroundImageFix" result="shape"/>
<feGaussianBlur stdDeviation="95" result="effect1_foregroundBlur_1060_3894"/>
</filter>
<filter id="filter1_f_1060_3894" x="216" y="216" width="64.9902" height="64.9902" filterUnits="userSpaceOnUse" color-interpolation-filters="sRGB">
<feFlood flood-opacity="0" result="BackgroundImageFix"/>
<feBlend mode="normal" in="SourceGraphic" in2="BackgroundImageFix" result="shape"/>
<feGaussianBlur stdDeviation="2" result="effect1_foregroundBlur_1060_3894"/>
</filter>
<radialGradient id="paint0_radial_1060_3894" cx="0" cy="0" r="1" gradientUnits="userSpaceOnUse" gradientTransform="translate(248.495 248.495) rotate(90) scale(29.3333)">
<stop stop-color="#2D7670"/>
<stop offset="1" stop-color="#143432"/>
</radialGradient>
<radialGradient id="paint1_radial_1060_3894" cx="0" cy="0" r="1" gradientUnits="userSpaceOnUse" gradientTransform="translate(247.999 247.958) rotate(-180) scale(237.499 237.499)">
<stop stop-color="#71C0BE"/>
<stop offset="1" stop-color="#024843"/>
</radialGradient>
</defs>
</svg>
