<svg width="23" height="25" viewBox="0 0 23 25" fill="none" xmlns="http://www.w3.org/2000/svg">
<path d="M22.0899 8.21304C22.0899 8.06004 22.0819 7.9013 22.0421 7.75493C21.8693 7.12216 21.3687 6.75603 20.6789 6.75515C18.785 6.7525 16.8911 6.75426 14.9972 6.75338C14.9132 6.75338 14.8296 6.7463 14.7403 6.74233C14.8743 6.25106 14.8743 6.25106 15.3364 6.25061C15.4177 6.25061 15.4987 6.25238 15.5796 6.24973C15.9537 6.23691 16.1942 6.022 16.2132 5.64924C16.23 5.326 16.2292 5.00011 16.2115 4.67687C16.1925 4.32887 15.9647 4.11308 15.6158 4.08169C15.5283 4.07373 15.439 4.07859 15.3505 4.07859C14.9526 4.07859 14.9981 4.0525 14.7996 3.70362C14.5639 3.28885 14.6528 3.03149 14.9999 2.74894C15.3116 2.49512 15.2935 2.10688 15.0123 1.81504C14.823 1.61871 14.6307 1.42459 14.4299 1.24064C14.3454 1.16281 14.242 1.0956 14.1354 1.05448C13.7781 0.916514 13.5548 1.14203 13.3315 1.36666C13.0609 1.63905 13.0715 1.5935 12.7124 1.49047C12.2596 1.36003 12.0832 1.13186 12.1416 0.653413C12.1818 0.322215 11.9736 0.0630931 11.6662 0.0321401C11.2669 -0.00854114 10.8566 -0.0125208 10.4582 0.0312557C10.119 0.0679572 9.97222 0.338576 9.97089 0.762191C9.96912 1.24108 9.94347 1.19642 9.55346 1.42149C9.1555 1.65143 8.92821 1.54398 8.66069 1.23091C8.37592 0.897058 8.00758 0.913861 7.6954 1.21941C7.48447 1.42547 7.27311 1.63153 7.07191 1.84643C6.83888 2.09494 6.84242 2.45488 7.07191 2.70693C7.14576 2.78873 7.2196 2.87452 7.30671 2.94085C7.50526 3.09163 7.55788 3.24419 7.40974 3.47501C7.29699 3.65011 7.29212 3.93798 7.1462 4.03526C6.99674 4.13475 6.7332 4.0609 6.52006 4.06798C6.14597 4.08036 5.89437 4.34258 5.89127 4.72286C5.88862 5.0032 5.8895 5.28311 5.89083 5.56346C5.89304 5.9769 6.13094 6.22055 6.54748 6.23293C6.72391 6.23823 6.90167 6.22629 7.07766 6.23912C7.1378 6.24354 7.22226 6.28466 7.24702 6.33375C7.30892 6.45579 7.34297 6.59242 7.40046 6.75957H7.10331C5.23861 6.75957 3.37435 6.75913 1.51009 6.7609C1.36328 6.76134 1.21249 6.75957 1.07144 6.79318C0.412136 6.94971 0.00797727 7.48034 0.00753509 8.18076C0.00665071 11.8814 0.016821 15.5821 1.79091e-05 19.2827C-0.00396177 20.187 0.655781 20.8096 1.51628 20.7994C3.91824 20.7707 6.32108 20.7888 8.72348 20.7884H9.01444C9.01444 21.2721 9.01886 21.7342 9.0056 22.1959C9.00471 22.2352 8.88399 22.302 8.81811 22.3033C8.33922 22.3131 7.86033 22.3064 7.381 22.31C6.91494 22.3131 6.53466 22.4983 6.26979 22.8839C5.96468 23.3288 5.93151 23.8072 6.18091 24.2843C6.42632 24.753 6.82783 24.998 7.36243 24.9985C9.82364 25.0007 12.2853 25.0002 14.7465 24.9989C14.8487 24.9989 14.9539 24.9936 15.0529 24.9697C15.7167 24.8096 16.1757 24.1698 16.0943 23.526C16.0041 22.8127 15.4606 22.3184 14.7509 22.3104C14.3605 22.306 13.97 22.3095 13.5791 22.3095C13.098 22.3095 13.098 22.3095 13.098 21.8386V20.7884H13.3934C15.8179 20.788 18.2424 20.7888 20.6669 20.7871C21.5221 20.7866 22.0903 20.2184 22.0908 19.3597C22.0926 15.644 22.0921 11.9287 22.0899 8.21304ZM7.31069 5.4843C7.098 5.479 6.88531 5.48342 6.6368 5.48342C6.6368 5.2862 6.62796 5.10491 6.64388 4.92538C6.64741 4.88381 6.73364 4.82191 6.78626 4.81749C6.94722 4.80289 7.11038 4.81528 7.27222 4.81085C7.59281 4.80201 7.7856 4.64105 7.8904 4.33992C7.99166 4.04897 8.10707 3.76154 8.23354 3.48031C8.36885 3.18007 8.34187 2.93023 8.11149 2.69057C7.97928 2.5526 7.83911 2.42216 7.64543 2.23246C7.75111 2.15685 7.84751 2.10069 7.92799 2.02684C8.00316 1.95786 8.06153 1.86987 8.1482 1.76507C8.30738 1.92205 8.43517 2.04895 8.56429 2.17498C8.83093 2.43543 9.09934 2.46063 9.42833 2.29525C9.6901 2.16348 9.96381 2.05249 10.2397 1.95433C10.5426 1.84643 10.6992 1.65718 10.7076 1.33615C10.7085 1.31404 10.7076 1.29193 10.708 1.26982C10.7116 0.664025 10.7416 0.640147 11.3872 0.75998C11.3872 0.927568 11.3859 1.10179 11.3877 1.27601C11.3916 1.64524 11.5495 1.8367 11.8975 1.95654C12.1606 2.04674 12.4188 2.15773 12.6665 2.28464C13.0237 2.46771 13.2789 2.44383 13.5641 2.15773C13.6822 2.03878 13.7914 1.91055 13.909 1.78187C13.978 1.83936 14.012 1.86545 14.0434 1.89419C14.1668 2.00916 14.2893 2.12501 14.4507 2.27668C14.2893 2.42128 14.1469 2.53669 14.0187 2.66625C13.771 2.9152 13.7445 3.18007 13.89 3.49402C14.0138 3.76022 14.1239 4.03393 14.2177 4.31207C14.3216 4.62115 14.5175 4.79361 14.8447 4.80555C15.0423 4.81262 15.2404 4.80687 15.4553 4.80687V5.48563C15.2546 5.48563 15.0582 5.48298 14.8619 5.48607C14.5099 5.49182 14.3034 5.64968 14.1942 5.98663C14.1535 6.11265 14.1124 6.23912 14.0624 6.3616C13.8882 6.79052 13.8338 6.81794 13.3244 6.73613C13.8192 5.97159 13.9523 5.15266 13.6839 4.28775C13.5013 3.70096 13.1515 3.22517 12.6452 2.86921C11.6459 2.16702 10.2543 2.21079 9.31203 2.98197C8.75266 3.43963 8.41439 4.02686 8.31623 4.74674C8.2269 5.39719 8.27024 5.58866 8.76107 6.74056C8.74073 6.75117 8.73454 6.75648 8.72834 6.75692C8.25874 6.80158 8.23663 6.79097 8.05843 6.36072C8.00227 6.22497 7.96159 6.08258 7.91649 5.94241C7.82363 5.65543 7.61271 5.49138 7.31069 5.4843ZM12.4538 6.58712C12.353 6.68042 12.1871 6.73702 12.0465 6.74675C12.0089 6.7494 11.9709 6.75161 11.9333 6.75338C11.901 6.75471 11.8692 6.75603 11.8369 6.75648C11.8135 6.75736 11.7896 6.7578 11.7662 6.7578C11.7454 6.75824 11.7242 6.75869 11.7034 6.75869C11.63 6.75957 11.5566 6.75913 11.4832 6.75824C11.3403 6.75692 11.1966 6.75426 11.0538 6.75426C10.972 6.75426 10.8893 6.75471 10.8075 6.75559C10.7934 6.75559 10.7792 6.75559 10.7651 6.75603C10.6806 6.75692 10.5966 6.75736 10.5121 6.7578C10.4281 6.7578 10.3437 6.75736 10.2596 6.75559C10.1858 6.75426 10.1124 6.75161 10.0385 6.74763C9.91827 6.741 9.77589 6.69059 9.68701 6.61144C8.85437 5.86856 8.81546 4.54731 9.59194 3.74253C10.387 2.91785 11.6848 2.8984 12.4807 3.6992C13.286 4.50928 13.2798 5.82346 12.4538 6.58712ZM14.6205 23.0493C14.7293 23.0493 14.8433 23.0586 14.9459 23.0917C15.1984 23.1727 15.3563 23.4057 15.3523 23.663C15.3488 23.9244 15.1688 24.1654 14.911 24.2339C14.8128 24.26 14.7076 24.2675 14.6054 24.2675C12.2331 24.2697 9.86078 24.2737 7.48801 24.2613C7.30583 24.2604 7.09579 24.1795 6.94898 24.069C6.75354 23.9213 6.71861 23.6829 6.80748 23.4446C6.89858 23.201 7.12542 23.0502 7.41461 23.0488C8.15881 23.0453 8.90301 23.0475 9.64721 23.0471H11.0397C12.2336 23.0471 13.427 23.0462 14.6205 23.0493ZM9.75687 20.7972H12.3591C12.3591 21.074 12.364 21.3425 12.3578 21.6109C12.3529 21.8359 12.4157 22.1326 12.299 22.2631C12.1973 22.3767 11.8856 22.3082 11.6667 22.3095C11.1007 22.3131 10.5342 22.3055 9.96779 22.3139C9.8033 22.3166 9.7498 22.2657 9.75378 22.1008C9.7635 21.6692 9.75687 21.2368 9.75687 20.7972ZM21.359 8.25593C21.359 11.927 21.3594 15.5984 21.359 19.2695C21.359 19.8227 21.1343 20.0526 20.5865 20.0522C17.97 20.0499 15.3541 20.0464 12.7381 20.0433C12.1783 20.0429 11.618 20.0433 11.0582 20.0433V20.0508H1.50787C0.980788 20.0508 0.756157 19.8258 0.756157 19.2969V8.2608C0.756157 7.71823 0.977693 7.4936 1.51849 7.49316C3.57421 7.49227 5.63038 7.4936 7.68655 7.49227C8.72525 7.49183 9.76395 7.48299 10.8026 7.48874C11.878 7.49449 12.9539 7.52676 14.0297 7.525C16.1951 7.52057 18.3601 7.50023 20.5254 7.48697C20.6064 7.48653 20.6882 7.48343 20.7687 7.49006C21.0941 7.51792 21.34 7.77351 21.3585 8.10072C21.3612 8.15246 21.359 8.2042 21.359 8.25593Z" fill="#0A948A"/>
<path d="M10.5122 6.75732C10.5962 6.75732 10.6807 6.75644 10.7651 6.75555C10.6807 6.75644 10.5967 6.75732 10.5122 6.75732Z" fill="white"/>
<path d="M19.815 10.1383C19.7367 10.1547 19.654 10.1511 19.5731 10.1511C13.8999 10.1516 8.22617 10.1516 2.55291 10.1511C2.47907 10.1511 2.40434 10.1564 2.33226 10.1463C2.14699 10.1206 2.01035 9.96098 2.01123 9.78056C2.01256 9.58291 2.15052 9.43477 2.35481 9.41841C2.44281 9.41134 2.53169 9.41487 2.62013 9.41487H11.0862C13.9008 9.41487 16.7153 9.41443 19.5298 9.41487C19.6112 9.41487 19.6925 9.41089 19.773 9.41885C19.9698 9.43831 20.0772 9.55549 20.0984 9.7474C20.1192 9.93666 20.0007 10.0998 19.815 10.1383Z" fill="#0A948A"/>
<path d="M12.4532 12.1503C12.3338 12.5217 12.198 12.8879 12.0698 13.2567C11.5122 14.8565 10.9537 16.4559 10.3979 18.0566C10.3333 18.2428 10.2449 18.3931 10.1131 18.3971C9.74346 18.4041 9.5772 18.1654 9.66962 17.8744C9.77 17.5591 9.88717 17.2487 9.99595 16.9356C10.5757 15.2735 11.1514 13.61 11.7408 11.9509C11.7842 11.8293 11.904 11.6887 12.0207 11.648C12.3223 11.5414 12.558 11.8231 12.4532 12.1503Z" fill="#0A948A"/>
<path d="M15.8739 15.3451C15.1076 15.9067 14.3378 16.4642 13.5679 17.021C13.3574 17.1735 13.1257 17.1576 12.9957 16.9905C12.8551 16.81 12.9011 16.5783 13.1204 16.4178C13.6908 16.0008 14.2648 15.5878 14.8374 15.1731C14.902 15.1262 14.9652 15.078 15.051 15.0134C14.6097 14.6915 14.1887 14.3842 13.7673 14.0769C13.5471 13.9164 13.3247 13.7589 13.1063 13.5962C12.9148 13.453 12.8688 13.2297 12.9878 13.0541C13.1027 12.8843 13.3375 12.8476 13.5361 12.99C14.3205 13.5516 15.1032 14.1158 15.8806 14.6871C16.1476 14.8834 16.1414 15.1492 15.8739 15.3451Z" fill="#0A948A"/>
<path d="M9.12935 16.9701C9.00509 17.1474 8.78046 17.1828 8.58413 17.0418C7.80676 16.4828 7.03028 15.9221 6.25778 15.3561C5.97213 15.147 5.97523 14.8768 6.25955 14.6694C7.02144 14.1136 7.7851 13.5613 8.54964 13.0094C8.76321 12.8551 8.98961 12.8706 9.12094 13.0408C9.26067 13.2217 9.21248 13.4494 8.99227 13.6104C8.42185 14.0278 7.84877 14.4417 7.27702 14.8578C7.21247 14.9047 7.15012 14.9551 7.06654 15.0196C7.56002 15.3774 8.03582 15.7227 8.51161 16.0676C8.67831 16.1888 8.84767 16.3073 9.01261 16.4306C9.20982 16.5779 9.25404 16.7928 9.12935 16.9701Z" fill="#0A948A"/>
</svg>
