<svg width="70" height="70" viewBox="0 0 70 70" fill="none" xmlns="http://www.w3.org/2000/svg">
<g clipPath="url(#clip0_279_1738)">
<path d="M70 10.7419C70 7.29977 67.9473 5.2523 64.5261 5.2523C57.8921 5.22262 51.2282 5.19295 44.5941 5.2523C43.5232 5.2523 42.8984 4.89621 42.3332 3.97633C40.9052 1.57277 38.7038 0.178113 35.9371 0.118766C30.7905 -0.0296018 25.6141 7.17709e-05 20.4675 0.118766C16.6298 0.14844 13.0004 3.62025 13.0004 7.2701C13.0004 9.94072 12.9707 12.6113 12.9409 15.282C12.9112 15.9051 12.8814 16.647 12.5542 17.1217C10.9477 19.4363 12.1674 21.7211 12.5839 23.9763C12.6732 24.3918 13.1492 24.8962 13.5359 25.0446C15.1126 25.549 15.4101 26.6766 15.3804 28.101C15.3804 28.3384 15.5291 28.5757 15.6184 28.7835C16.5406 31.6915 18.5338 33.828 20.7947 35.7864C22.0144 36.8547 21.7467 38.9318 20.3485 39.3176C18.8015 39.733 17.1951 40.0297 15.5886 40.1484C13.6252 40.2968 11.632 40.1781 9.63876 40.1781C7.52656 40.2078 6.48534 41.0683 5.89035 43.0565C5.74161 43.5312 5.47386 44.1247 5.05737 44.3621C1.54696 46.4096 0.208245 49.644 0.148746 53.5016C0.0297493 57.5668 0 61.6321 0 65.6677C0 68.3087 1.66596 69.9704 4.31364 69.9704C7.67531 69.9704 11.0072 69.9704 14.3689 69.9704C18.9503 69.9704 23.5317 69.9704 28.113 69.9704C32.6647 69.9704 37.2163 69.9704 41.768 69.9704C45.2486 69.9704 48.7293 69.9704 52.2099 69.9704C54.5899 69.9704 56.2261 68.3977 56.2261 66.0535C56.2261 61.5134 56.2261 56.9437 56.0773 52.4036C55.9584 48.8725 54.3519 46.1425 51.1687 44.3621C50.6035 44.0357 50.068 43.4719 49.83 42.8784C48.9078 40.7122 48.2235 40.2375 45.8436 40.1781C42.8092 40.0891 39.6855 40.6232 36.7701 39.4363C36.1156 39.1692 35.2529 38.7538 34.9851 38.19C34.6281 37.3888 34.8066 36.4986 35.6396 35.6974C37.2163 34.1247 38.555 32.2553 40.0425 30.5935C40.459 30.1188 41.054 29.555 41.6192 29.4956C43.0472 29.3473 44.4751 29.4066 45.9328 29.4659C46.7361 29.4956 47.2121 29.8517 46.9146 30.8309C46.5873 31.9585 46.2006 33.1158 46.1411 34.2731C46.1113 34.9259 46.5278 35.8754 47.0633 36.2315C47.4798 36.5283 48.4913 36.3502 48.997 35.9941C50.8712 34.7478 52.7454 33.4719 54.4114 31.9585C56.5831 29.9704 58.963 28.9912 61.9082 29.3769C62.8899 29.4956 63.9014 29.4066 64.8831 29.3769C68.0663 29.2879 70 27.3294 70 24.184C70 19.644 70 15.1929 70 10.7419ZM15.3506 23.8576C15.1721 23.8873 14.9936 23.917 14.8449 23.9763C14.5474 23.5906 14.0416 23.2345 13.9524 22.8191C13.7739 21.7508 13.6847 20.6529 13.7739 19.6143C13.8037 19.1692 14.4284 18.8131 14.7556 18.3977C14.9936 18.8131 15.4399 19.1989 15.4696 19.6143C15.5291 20.9793 15.4101 22.4333 15.3506 23.8576ZM6.78283 65.1633C6.54484 65.6974 5.9796 66.1722 5.9201 66.6766C5.77136 68.1306 4.87888 68.1306 3.8079 68.0416C2.67743 67.9526 1.96345 67.3888 1.9932 66.1722C2.02295 61.276 2.02295 56.3799 2.14195 51.4838C2.20144 49.3176 3.30217 47.8636 5.9796 45.8458C6.18784 46.647 6.39609 47.2108 6.45559 47.8042C6.81258 52.9971 7.16957 58.1603 7.43731 63.3532C7.43731 63.917 7.05057 64.5698 6.78283 65.1633ZM47.9261 67.9229C47.4798 68.0713 46.9443 68.0416 46.4386 68.0416C34.2414 68.0416 22.0739 68.0416 9.87675 68.0416C9.49001 68.0416 9.04377 68.1306 8.71653 67.9823C8.30004 67.8042 7.9728 67.4185 7.58606 67.1217C8.00255 66.8547 8.38929 66.3502 8.80578 66.3205C10.8287 66.2315 12.8814 66.2612 14.9044 66.2612H28.2915C34.3306 66.2612 40.3697 66.2612 46.4386 66.2612C46.9443 66.2612 47.4501 66.2019 47.9261 66.3502C48.283 66.4689 48.521 66.8843 48.8185 67.1514C48.4913 67.4185 48.2533 67.8339 47.9261 67.9229ZM49.5325 46.9734C49.5623 46.6173 49.7705 46.0238 49.949 46.0238C50.306 45.9941 50.782 46.1722 51.1092 46.4096C53.7569 48.1306 54.2329 50.7716 54.2626 53.6202C54.2924 55.549 54.2626 57.4778 54.2626 59.4066H54.5006C54.5006 61.4838 54.5304 63.5609 54.5006 65.638C54.4709 67.3294 53.8164 67.9526 52.2099 68.101C51.1985 68.19 50.544 67.9823 50.306 66.7656C50.187 66.0832 49.473 65.549 49.0863 64.8962C48.759 64.3621 48.2533 63.7686 48.283 63.2048C48.64 57.8042 49.0863 52.4036 49.5325 46.9734ZM45.9626 42.2256C47.9261 42.2256 48.2235 42.5223 48.0748 44.5105C47.6286 50.6826 47.1823 56.825 46.6468 62.9971C46.6171 63.5016 45.9626 64.2731 45.5164 64.3918C44.5941 64.5995 43.5827 64.3918 42.6307 64.3621C42.7199 64.0357 42.6902 63.6499 42.8687 63.4125C43.5529 62.5223 44.3561 61.7211 45.0106 60.8309C45.2486 60.5342 45.2189 60.0297 45.3379 59.6143C45.0106 59.7924 44.5644 59.8814 44.3264 60.1484C43.2852 61.4244 42.3332 62.7894 41.2622 64.0357C40.9647 64.3918 40.34 64.5995 39.864 64.5995C30.493 64.6291 21.122 64.6291 11.751 64.5995C9.57926 64.5995 9.46026 64.3621 9.31152 62.2256C8.89503 56.3799 8.41904 50.5045 8.00255 44.6588C7.8538 42.4927 8.06205 42.2849 10.2932 42.2849C16.2431 42.2849 22.1929 42.2849 28.1428 42.2849V42.2553C34.0629 42.2256 40.0127 42.2256 45.9626 42.2256ZM22.7879 39.9704C23.1152 39.2582 22.8772 37.7449 24.3349 37.8932C25.1679 37.9823 25.9414 38.4867 26.7446 38.4867C28.6783 38.4274 30.612 38.19 32.7242 38.0119C34.1521 40.7122 34.0926 40.8013 30.8797 40.8013C28.589 40.8013 26.3281 40.8013 24.0374 40.8013C23.4722 40.8013 22.4012 40.8309 22.7879 39.9704ZM39.3285 22.2553C39.2095 24.3918 39.4178 26.7063 38.7038 28.6648C37.2163 32.7004 34.1521 35.282 29.9278 36.647C26.4471 37.7746 24.1861 35.7271 21.8062 34.0357C17.1058 30.7419 16.6893 25.8161 17.1356 20.6826C17.1356 20.5935 17.1356 20.4452 17.1951 20.3858C19.4263 18.279 18.2363 15.5787 18.504 13.1158C18.5933 12.374 18.4743 11.6321 18.623 10.8903C18.861 9.61431 19.575 8.78345 21.0327 8.81313C22.7582 8.8428 24.3051 8.90215 25.9116 9.9704C27.2801 10.8606 29.303 10.92 30.7905 9.70334C32.5159 8.30868 34.4794 8.69443 36.2941 8.99117C36.8891 9.08019 37.5436 10.2968 37.7221 11.1277C37.96 12.1959 37.7816 13.3829 37.7816 14.5401H37.8113C37.8113 15.6381 37.7816 16.7063 37.8411 17.8042C37.8708 18.279 37.96 18.9318 38.2575 19.1395C39.5665 19.8814 39.388 21.098 39.3285 22.2553ZM39.507 15.549C39.507 14.006 39.5665 12.4927 39.4773 10.9496C39.3583 8.42737 37.9005 6.94369 35.4611 7.12173C33.3787 7.29978 31.1177 6.79532 29.2435 8.51639C28.827 8.90215 27.3396 8.69443 26.6851 8.24933C24.2456 6.64696 21.598 7.00304 19.0693 7.47782C17.4628 7.77455 16.7488 9.49562 16.7488 11.2167V16.736C14.9936 17.1217 14.5176 16.4392 14.5474 15.0446C14.6069 12.7597 14.5474 10.5045 14.5771 8.21966C14.6069 5.43034 16.8381 2.07722 20.1105 2.13657C25.7034 2.22559 31.2962 2.13657 36.8891 2.28494C39.1203 2.34429 41.3515 4.86654 41.4705 7.32945C41.6192 10.0891 41.5895 12.8784 41.5002 15.6381C41.5002 16.0535 40.8457 16.736 40.3995 16.825C39.4773 17.0327 39.507 16.2315 39.507 15.549ZM40.9647 21.1573C40.9647 20.6232 40.8457 20.0297 40.9945 19.555C41.1135 19.1989 41.649 18.9615 41.9762 18.6944C42.2142 19.0505 42.6307 19.3769 42.6307 19.733C42.6009 20.8606 42.4819 21.9882 42.3034 23.0861C42.2737 23.3235 42.0059 23.5312 41.8275 23.7686C41.53 23.5312 41.054 23.3532 40.9945 23.0861C40.8755 22.463 40.9647 21.8102 40.9647 21.1573ZM68.2448 24.4808C68.1853 26.6173 66.7871 27.7152 64.6154 27.7152C62.6222 27.7449 60.629 27.5372 58.6655 27.7152C57.5648 27.8042 56.3748 28.2197 55.4526 28.8428C53.4892 30.1781 51.6745 31.7805 49.7705 33.2345C49.4135 33.5016 48.9078 33.5609 48.045 33.8873C48.4318 32.1662 48.7293 30.8606 48.997 29.5846C49.3243 28.101 49.0565 27.6855 47.5393 27.6262C45.9031 27.5668 44.2669 27.6855 42.6307 27.5668C42.0357 27.5372 41.5002 27.0327 40.935 26.7656C41.292 26.2909 41.53 25.6974 41.9762 25.4007C43.7612 24.2731 44.9214 20.0891 44.0884 18.1306C43.5827 16.9437 43.3149 15.6381 43.1959 14.3324C43.0472 12.6113 43.2257 10.8606 43.1364 9.13954C43.0472 7.59651 43.6422 7.18108 45.1296 7.24043C47.8071 7.32945 50.4845 7.32945 53.1619 7.24043C56.7021 7.15141 60.2422 6.97337 63.8122 6.85467C64.1691 6.85467 64.5261 6.79532 64.8534 6.88434C67.1143 7.50749 68.0068 7.29977 68.1555 10.0891C68.3935 14.8665 68.3638 19.6737 68.2448 24.4808Z" fill="white"/>
<path d="M28.1427 50.3858C25.852 50.5638 24.5728 51.7211 24.5728 54.1543C24.5728 56.4392 25.852 57.7448 28.1129 57.7448C30.3739 57.7448 31.8018 56.3798 31.8613 54.1246C31.9208 52.2255 30.0764 50.2374 28.1427 50.3858ZM28.1724 56.0534C27.0419 56.1128 26.1792 55.2225 26.2387 54.095C26.2982 52.908 26.9824 52.3145 28.2319 52.4332C29.4814 52.3145 29.9871 52.997 29.9871 54.184C29.9574 55.4006 29.3029 55.9941 28.1724 56.0534Z" fill="white"/>
<path d="M28.5892 43.2048C28.3809 43.6203 28.2917 44.1247 27.9644 44.4511C22.7286 49.8517 17.4927 55.2226 12.2271 60.5639C11.8998 60.8903 11.4238 61.0683 11.0371 61.3354C10.8883 61.1573 10.7694 60.9793 10.6206 60.8013C16.4515 54.8369 22.2526 48.8428 28.0834 42.8784C28.2322 42.9674 28.4107 43.0861 28.5892 43.2048Z" fill="white"/>
<path d="M45.2187 46.3206C40.2804 51.8102 35.342 57.2702 30.4036 62.7598C30.2251 62.6411 30.0169 62.5224 29.8384 62.4037C30.0169 62.0179 30.1061 61.5432 30.3739 61.2168C34.7768 56.3206 39.2094 51.4245 43.642 46.5283C43.9395 46.2019 44.4453 46.0536 44.8618 45.8162C45.0105 45.9942 45.0997 46.1426 45.2187 46.3206Z" fill="white"/>
<path d="M21.8659 43.917C21.4197 45.3413 11.3942 55.1633 10.2935 55.2523C10.5612 53.8577 20.7652 43.8577 21.8659 43.917Z" fill="white"/>
<path d="M44.3263 53.828C41.9464 56.736 39.5069 59.5847 37.0972 62.463C37.0377 62.5224 36.9188 62.4927 36.8295 62.5224C36.6808 62.4334 36.532 62.3147 36.3535 62.2256C38.6145 58.8132 41.4406 55.8458 44.3561 52.7598C44.3561 53.1158 44.5048 53.5906 44.3263 53.828Z" fill="white"/>
<path d="M23.1749 57.0623C21.9254 58.9911 16.3028 63.3828 15.1724 63.2048C16.6598 60.9496 22.1337 56.7953 23.1749 57.0623Z" fill="white"/>
<path d="M41.4112 44.6886C38.9122 47.1515 36.5323 49.466 34.1524 51.8102C34.0036 51.6619 33.8846 51.5432 33.7656 51.3948C34.5094 49.4363 40.0725 44.3028 41.4112 44.6886Z" fill="white"/>
<path d="M16.9868 43.3236C14.5771 45.6975 12.3459 47.923 9.9065 50.3265C9.728 48.5758 15.3506 43.0565 16.9868 43.3236Z" fill="white"/>
<path d="M37.3353 43.2939C35.7586 45.8755 33.5869 47.8934 31.326 50.2079C31.207 48.6945 35.8479 43.4423 37.3353 43.2939Z" fill="white"/>
<path d="M27.637 59.5253C27.399 59.911 27.2503 60.3858 26.923 60.7122C25.852 61.6914 25.1083 63.1158 23.6208 63.5609C23.5613 63.4719 23.4721 63.3532 23.4126 63.2345C24.6323 61.8695 25.852 60.5342 27.1015 59.1692C27.28 59.2879 27.4585 59.4066 27.637 59.5253Z" fill="white"/>
<path d="M13.0599 43.2345C11.8401 44.7479 10.7692 46.0832 9.66844 47.3888C9.5197 47.2701 9.4007 47.1514 9.25195 47.0624C9.54945 45.5194 11.6319 43.1752 13.0599 43.2345Z" fill="white"/>
<path d="M57.6241 12.552C56.0474 15.7567 54.56 18.8131 52.9535 22.0772C52.3585 20.3858 56.0772 12.7597 57.6241 12.552Z" fill="white"/>
<path d="M50.4546 19.9407C50.3356 20.1484 50.2166 20.3265 50.0976 20.5045C49.5621 20.2671 48.9968 20.1188 48.5209 19.7923C45.8434 17.8636 45.8434 17.7745 48.7291 16.0238C49.1158 15.7864 49.5323 15.5787 50.0381 15.3413C50.5141 17.0921 48.7589 17.003 48.2531 18.0416C49.0266 18.6648 49.7406 19.2879 50.4546 19.9407Z" fill="white"/>
<path d="M63.6932 17.9822C62.3842 18.9317 61.2835 19.7626 60.0935 20.6231C59.2605 18.6943 61.7 19.1098 61.5512 17.8338C61.105 16.9436 59.3795 17.0029 60.0638 15.2522C61.224 16.1424 62.295 16.9436 63.6932 17.9822Z" fill="white"/>
</g>
<defs>
<clipPath id="clip0_279_1738">
<rect width="70" height="70" fill="white"/>
</clipPath>
</defs>
</svg>
