<svg width="70" height="70" viewBox="0 0 70 70" fill="none" xmlns="http://www.w3.org/2000/svg">
<g clipPath="url(#clip0_279_1763)">
<path d="M69.9503 11.0602C69.8261 8.95349 67.9624 7.30164 65.7508 7.2777C61.4022 7.25376 57.0536 7.30164 52.705 7.22982C52.0838 7.22982 51.3631 6.89467 50.891 6.51163C49.7728 5.60192 48.7291 4.59644 47.5364 3.49521C46.6667 4.18947 46.0206 4.78796 45.2751 5.26676C44.803 5.55404 44.1321 5.84131 43.6599 5.72161C42.7405 5.48222 41.9453 4.78796 41.0259 4.62038C39.3113 4.33311 39.4604 3.20793 39.4853 2.05882C39.4853 1.89125 39.4853 1.74761 39.4604 1.58003C39.3113 0.574555 38.7646 0 37.6713 0C35.8573 0 34.0185 0 32.2045 0C31.1608 0 30.639 0.622435 30.5147 1.55609C30.4402 2.15458 30.5147 2.75308 30.465 3.35157C30.4402 3.63885 30.3656 4.11765 30.1668 4.18947C28.8498 4.76402 27.508 5.33858 26.1413 5.74555C25.7685 5.86525 25.1722 5.55404 24.7497 5.2907C24.1782 4.9316 23.6315 4.47674 23.1345 4.04583C22.6873 3.66279 22.3394 3.61491 21.8921 4.06977C21.1963 4.78796 20.3514 5.36252 19.6557 6.10465C18.8853 6.91861 18.0902 7.32558 16.8726 7.30164C12.6482 7.22982 8.42385 7.20588 4.1995 7.32558C3.28008 7.34952 2.31097 7.90014 1.49095 8.37893C0 9.21683 0 10.7011 0 12.1614C0 23.7244 0 35.3112 0 46.8742C0 49.699 0 52.5479 0.0496983 55.3728C0.0496983 55.9713 0.198793 56.6655 0.496983 57.1683C1.26731 58.4371 2.48491 59.0595 4.07526 59.0595C11.3561 59.0356 18.6617 59.0595 25.9425 59.0595C26.6631 59.0595 27.4334 58.9877 27.4334 60.0171C27.4334 61.5732 27.4583 63.1293 27.4334 64.6854C27.4334 65.3557 27.0856 65.6908 26.3401 65.6669C25.0231 65.619 23.6812 65.619 22.3642 65.6908C21.9666 65.7148 21.5193 65.8824 21.1963 66.1218C20.2272 66.816 20.3017 67.8215 20.6496 68.7073C20.9727 69.5452 21.743 70 22.7618 70C30.9123 69.9761 39.0877 70 47.2382 70C47.4121 70 47.5612 70.0239 47.7352 69.9761C48.7788 69.7367 49.574 68.9467 49.4498 67.5103C49.3504 66.2893 48.754 65.6908 47.5364 65.6669C46.2442 65.643 44.9769 65.619 43.6848 65.6669C42.7902 65.7148 42.492 65.3078 42.4672 64.5417C42.4672 63.3926 42.4672 62.2196 42.4672 61.0705C42.4672 59.0595 42.4672 59.0595 44.5048 59.0595C51.6365 59.0595 58.7433 59.0356 65.875 59.0595C67.5399 59.0595 68.8072 58.3892 69.503 57.0486C69.9255 56.2107 69.9751 55.1334 69.9751 54.1519C70 41.0328 70 27.8899 70 14.7709C69.9751 13.5499 70.0248 12.3051 69.9503 11.0602ZM53.8978 8.69015C58.1967 8.64227 62.4956 8.64227 66.8193 8.69015C67.8878 8.69015 69.006 10.1265 69.0557 11.4432C69.1054 13.119 69.0806 14.7948 69.1054 16.4706C69.1054 20.8516 69.1054 25.2565 69.1054 29.6375H69.0806C69.0806 35.4549 69.0806 41.2962 69.0806 47.1135C69.0806 47.4248 69.1551 47.7839 69.0309 48.0472C68.8818 48.3584 68.5587 48.7654 68.2854 48.7893C67.9624 48.8372 67.4405 48.5978 67.2914 48.3345C67.0678 47.9036 67.0181 47.3529 67.0181 46.8502C67.0181 35.6703 67.0181 24.5144 67.0181 13.3345C67.0181 12.9275 67.0181 12.5445 66.9933 12.1375C66.9436 10.6532 66.5211 10.1984 64.9805 10.1984C61.6258 10.1744 58.2712 10.1984 54.9166 10.1984C54.5935 10.1984 54.2208 10.2702 53.9475 10.1505C53.6493 10.0308 53.1771 9.64774 53.2268 9.48016C53.2517 9.19289 53.6493 8.69015 53.8978 8.69015ZM18.5126 8.71409C19.5563 7.56498 20.7739 6.58345 21.8424 5.45828C22.3642 4.90766 22.6873 4.97948 23.1345 5.43434C23.6067 5.91313 24.1037 6.41587 24.6752 6.77497C25.0728 7.01436 25.7188 7.25376 26.1164 7.11012C27.5577 6.58345 28.9244 5.91313 30.3408 5.31464C31.5087 4.8119 31.956 3.90219 31.8069 2.72914C31.6578 1.55609 32.1796 1.17305 33.3724 1.24487C34.6148 1.31669 35.8573 1.26881 37.0997 1.26881C37.8949 1.24487 38.1683 1.60397 38.218 2.3461C38.3671 4.95554 38.5161 5.07524 41.2496 5.81737C41.995 6.03283 42.7157 6.41587 43.3617 6.82285C44.1321 7.32558 44.7533 7.3974 45.4242 6.72709C45.4988 6.63133 45.5981 6.55951 45.6975 6.48769C47.7103 4.83584 47.7103 4.83584 49.5243 6.72709C50.1207 7.34952 50.7171 7.97196 51.3631 8.54651C52.0092 9.12107 51.885 9.6238 51.3383 10.1505C51.1892 10.2941 51.065 10.4378 50.9159 10.5814C49.4249 12.0417 49.4249 12.1854 50.3692 14.0048C50.8413 14.9145 51.2886 15.8482 51.6365 16.8057C51.9595 17.7394 52.5062 18.1464 53.525 18.1464C56.159 18.1464 56.159 18.1703 56.159 20.7319C56.159 21.5698 56.2087 22.4077 56.1093 23.2456C56.0348 24.1313 55.5378 24.8256 54.4941 24.658C52.4565 24.2989 51.5868 25.3044 51.0898 26.9802C50.8662 27.7702 50.5431 28.5602 50.1207 29.2544C49.3752 30.4514 49.9716 31.2415 50.7916 32.0075C52.0341 33.1806 52.0092 33.42 50.8662 34.6648C49.8722 35.7421 48.9776 36.9391 48.0085 38.1601C46.8158 37.1306 46.2691 36.4364 45.5236 36.0534C44.9272 35.7421 44.1072 35.6464 43.4363 35.7661C42.6411 35.9097 41.8956 36.3885 41.1502 36.7476C40.9017 36.8673 40.678 37.0588 40.4047 37.1067C38.8143 37.4179 38.2428 38.0643 38.1683 39.6443C38.1683 39.9316 38.1683 40.1949 38.1434 40.4822C38.1186 41.2004 37.8204 41.5595 37.0004 41.5356C35.6336 41.4877 34.2669 41.4877 32.9002 41.5356C32.0802 41.5595 31.782 41.1765 31.782 40.4583C31.782 40.0274 31.8069 39.5725 31.7572 39.1416C31.6578 38.0643 30.8626 37.3461 29.7693 37.1067C28.8995 36.9152 28.005 36.58 27.2098 36.1491C25.9922 35.4788 25.1722 35.4788 24.0788 36.3646C23.5321 36.8194 22.9854 37.2264 22.3642 37.7052C21.0472 36.4843 19.7054 35.3591 18.4878 34.1142C18.2393 33.8509 18.3884 33.1327 18.4629 32.6539C18.4878 32.4624 18.7611 32.2948 18.935 32.1272C20.252 30.8345 20.3514 30.1881 19.5314 28.632C19.0344 27.6984 18.5126 26.7408 18.2393 25.7592C17.9908 24.9213 17.5186 24.6101 16.7235 24.6819C13.5179 24.9932 13.7167 23.8441 13.7664 21.5458C13.7664 21.3064 13.7664 21.067 13.7664 20.8276C13.7664 18.1224 13.667 18.0267 16.5247 18.0746C17.0465 18.0746 17.8417 17.6436 18.0902 17.1888C18.8853 15.7045 19.5811 14.1484 20.1278 12.5684C20.2769 12.1375 19.8048 11.4432 19.4817 10.9405C19.2581 10.6053 18.7114 10.4378 18.5374 10.0787C18.4132 9.69562 18.2641 8.97743 18.5126 8.71409ZM17.3695 11.4911C19.1835 11.4911 19.3575 11.8263 18.5374 13.4302C18.1399 14.1963 17.792 15.0342 17.5932 15.8482C17.4441 16.5424 17.0962 16.8057 16.4501 16.8297C16.0028 16.8536 15.5307 16.8297 15.0834 16.8536C13.7167 16.9015 13.0458 17.5479 13.0458 18.8167C13.0209 20.4925 13.0706 22.1683 13.0458 23.8441C13.0209 24.9213 13.4682 25.5198 14.661 25.4241C15.158 25.4001 15.7046 25.3044 16.1519 25.448C16.6489 25.6156 17.2701 25.9029 17.4938 26.2859C18.0902 27.3393 18.5374 28.4884 18.935 29.6375C19.0593 30.0205 18.9599 30.619 18.7114 30.9302C16.6738 33.5397 16.6489 33.5157 19.0096 35.814C19.7799 36.5561 20.5502 37.3222 21.3206 38.0882C22.0909 38.8543 22.8612 38.8064 23.6564 38.1361C24.2776 37.6094 24.8988 37.0588 25.4704 36.5561C26.7625 37.0349 27.9304 37.4419 29.0735 37.8728C29.8935 38.184 30.5644 38.5431 30.5644 39.6204C30.5644 42.3256 30.6638 42.3735 33.5463 42.3735C34.9876 42.3735 36.4537 42.3495 37.8949 42.3256C38.9883 42.3016 39.5101 41.775 39.535 40.6737C39.5847 38.4473 39.6344 38.4713 41.8708 37.7531C42.4423 37.5616 43.0635 37.37 43.486 36.987C44.5545 36.0294 45.1012 36.8434 45.6727 37.5137C46.3436 38.2798 47.1388 38.9022 48.1825 38.4952C48.8037 38.2558 49.251 37.6094 49.748 37.1306C50.7171 36.197 51.6613 35.2155 52.6802 34.2818C53.3759 33.6594 53.2765 33.0609 52.8044 32.3906C52.705 32.2709 52.6056 32.1272 52.4814 32.0315C51.1892 31.0978 50.6177 30.0445 51.6862 28.5602C52.1583 27.8899 52.1832 26.9562 52.6305 26.2859C52.9286 25.855 53.6493 25.472 54.196 25.448C56.6312 25.3523 57.1033 25.9268 57.0288 22.6231C57.0039 21.3543 57.0288 20.0616 57.0288 18.7928C57.0039 17.5 56.3578 16.8776 54.9663 16.8297C54.5438 16.8057 54.1463 16.8297 53.7238 16.8057C53.028 16.7818 52.6305 16.5185 52.4317 15.8003C52.1583 14.8666 51.711 13.9569 51.2389 13.0951C50.6922 12.0657 50.9904 11.4432 52.1832 11.4432C56.4572 11.4193 60.7064 11.4432 64.9805 11.4193C65.8999 11.4193 66.1981 11.8023 66.1981 12.6642C66.1732 23.1259 66.1732 33.5876 66.1981 44.0253C66.1981 45.3181 65.4029 45.2941 64.4835 45.2941C56.1093 45.2941 47.76 45.2941 39.3859 45.2941C28.2038 45.2941 17.0217 45.2941 5.83955 45.2941C3.92616 45.2941 3.90131 45.2941 3.90131 43.4268V13.2627C3.90131 11.4432 3.90131 11.4432 5.86439 11.4432C9.66631 11.4911 13.5179 11.4911 17.3695 11.4911ZM38.6155 46.6826C42.0696 46.6826 45.5236 46.6826 48.9528 46.6826C54.1214 46.6826 59.29 46.6826 64.4586 46.6826C65.1793 46.6826 66.1484 46.539 66.0241 47.6402C65.9744 48.0711 65.4029 48.5021 64.9805 48.8372C64.8065 48.9809 64.4089 48.8612 64.1356 48.8612C47.0643 48.8612 30.0177 48.8612 12.9464 48.8372C12.4494 48.8372 11.7039 48.6936 11.4554 48.3584C10.8094 47.4487 11.3809 46.6587 12.6482 46.6587C16.972 46.6587 21.2957 46.6587 25.6443 46.6587H38.6155V46.6826ZM9.98935 47.5923C9.9645 48.3584 9.76571 48.909 8.79659 48.8612C7.60383 48.8133 6.38623 48.8612 5.19347 48.8612C4.32375 48.8612 3.90131 48.4302 3.90131 47.6163C3.90131 46.7784 4.47284 46.6587 5.16862 46.6826C5.78985 46.6826 6.41108 46.6826 7.0323 46.6826C7.60383 46.6826 8.20021 46.7066 8.77174 46.6826C9.46752 46.6587 10.0142 46.7305 9.98935 47.5923ZM0.86972 29.5178C0.86972 23.7004 0.86972 17.8591 0.86972 12.0417C0.86972 9.76744 2.01278 8.66621 4.37345 8.64227C8.10082 8.61833 11.8282 8.64227 15.5556 8.64227C16.1768 8.64227 16.8477 8.57045 16.8229 9.50411C16.798 10.4138 16.0774 10.1984 15.5556 10.2223C12.2506 10.2462 8.92084 10.2223 5.6159 10.2223C3.18069 10.2223 3.03159 10.3899 3.03159 12.7599C3.03159 24.0834 3.03159 35.4309 3.00674 46.7545C3.00674 47.6163 3.28009 48.8612 1.83884 48.8133C0.447284 48.7654 0.894569 47.5445 0.86972 46.7545C0.86972 41.0089 0.86972 35.2633 0.86972 29.5178ZM46.2194 66.5048C46.8158 66.5048 47.4618 66.7921 48.0085 67.0554C48.257 67.1751 48.5303 67.6539 48.4558 67.8454C48.3316 68.1566 47.9588 68.4439 47.6358 68.5636C47.3127 68.6833 46.9152 68.6354 46.5424 68.6354C42.6908 68.6354 38.8392 68.6354 34.9876 68.6354H23.8055C23.5073 68.6354 23.2339 68.6354 22.9357 68.6354C22.1903 68.6354 21.3206 68.5636 21.4448 67.6778C21.5193 67.223 22.3145 66.7921 22.886 66.5048C23.2588 66.3372 23.7806 66.4569 24.2279 66.4569C31.5832 66.4809 38.9137 66.4569 46.2194 66.5048ZM28.7753 64.6614C28.7753 63.1053 28.8001 61.5493 28.8001 60.0171C28.8001 59.2989 29.1977 59.0595 29.8935 59.0595C33.273 59.0835 36.6773 59.0835 40.0568 59.0595C40.852 59.0595 41.1999 59.3707 41.1999 60.1129C41.1999 61.5732 41.2247 63.0575 41.2247 64.5178C41.2247 65.3317 40.9265 65.7387 39.9574 65.6908C38.3174 65.619 36.6525 65.6669 35.0124 65.6669C33.3227 65.6669 31.6329 65.619 29.9432 65.6908C29.0983 65.7148 28.7753 65.3796 28.7753 64.6614ZM69.1054 54.6546C69.0557 56.8331 67.689 57.9822 65.5768 58.1977C64.5083 58.2934 63.415 58.2216 62.3465 58.2216C43.3369 58.2216 24.3273 58.1977 5.31771 58.2456C2.60916 58.2456 0.596379 56.7852 0.84487 53.9843C0.919418 53.1224 0.84487 52.2367 0.86972 51.3509C0.894569 49.9384 1.24246 49.6272 2.7334 49.6272H35.0373C45.7224 49.6272 56.4075 49.6272 67.0926 49.6272C68.8818 49.6272 69.1054 49.8427 69.1303 51.5424C69.1054 52.5958 69.1303 53.6252 69.1054 54.6546Z" fill="white"/>
<path d="M49.6984 17.7873C49.0275 16.5185 48.0087 15.9679 46.5923 15.896C44.5546 15.8003 42.5418 15.5609 40.5042 15.6088C39.9078 15.6088 39.1375 16.2551 38.7648 16.8058C38.2926 17.4761 38.2181 18.3618 37.8454 19.104C37.6963 19.4152 37.2738 19.6067 36.9508 19.7982C36.8762 19.8222 36.5284 19.5588 36.4787 19.3913C36.1805 18.6252 35.932 17.8352 35.6835 17.0452C35.4101 16.1833 34.2422 15.4173 33.298 15.5609C32.3289 15.6806 31.3597 15.8242 30.3658 15.896C29.5457 15.9439 28.9742 16.2073 28.6512 16.9733C28.179 18.1225 27.6324 19.2476 27.0111 20.6122C26.5639 20.1095 26.1414 19.7743 25.9178 19.3434C25.545 18.6491 25.2965 17.8831 25.0232 17.1409C24.6008 16.0636 23.8056 15.7524 22.1407 15.9439C21.0473 16.0876 20.8237 16.8536 20.7989 17.6437C20.7492 20.1095 20.7243 22.5992 20.8237 25.065C20.8486 25.6635 21.2461 26.5971 21.6934 26.7408C22.4389 26.9802 23.4329 26.8605 24.1286 26.5253C24.6753 26.262 24.8741 26.3817 25.3711 26.5253C26.216 26.7647 27.3342 26.9562 28.0051 26.5971C28.7009 26.238 28.9742 26.3817 29.5954 26.5971C30.2912 26.8605 31.2355 26.9323 31.9313 26.6929C32.304 26.5732 32.5276 25.6635 32.6022 25.0889C32.7016 24.2989 32.6022 23.485 32.6519 22.695C32.6767 22.288 32.801 21.881 32.8755 21.474C32.9998 21.474 33.1489 21.474 33.2731 21.4501C33.621 22.3598 33.944 23.2695 34.2919 24.1792C34.5404 24.8495 34.7641 25.5198 35.112 26.1423C35.6586 27.1478 38.1684 27.2914 38.7399 26.3099C39.3612 25.2326 39.709 23.9877 40.2309 22.8386C40.4048 22.4795 40.703 22.1922 40.9515 21.881C41.1503 22.264 41.4733 22.6231 41.523 23.0301C41.6224 23.9877 41.5479 24.9453 41.6473 25.8789C41.697 26.2141 41.9703 26.669 42.2685 26.7887C43.8091 27.4111 44.9522 26.7647 45.151 25.1608C45.3001 23.9398 45.4989 22.9583 47.1638 23.1498C47.5117 23.1977 47.9093 22.7668 48.282 22.5513C50.0463 21.6655 50.593 19.4631 49.6984 17.7873ZM31.5834 24.682C31.5585 25.0411 31.1112 25.3762 30.8628 25.7353C30.664 25.4241 30.3906 25.1368 30.3161 24.8017C30.1918 24.0835 30.2664 23.3653 30.1421 22.6471C30.0924 22.3598 29.7445 22.1443 29.5209 21.881C29.3221 22.0965 29.0736 22.264 28.9494 22.5034C28.5269 23.3174 28.2287 24.1792 27.7566 24.9692C27.5578 25.3044 27.0608 25.7353 26.7875 25.6874C26.3899 25.5917 26.0172 25.1847 25.7935 24.8017C25.4456 24.1792 25.2717 23.461 24.9487 22.8386C24.7499 22.4556 24.3771 22.1443 24.0789 21.7852C23.905 21.8331 23.7062 21.881 23.5323 21.9289C23.5323 22.8386 23.6068 23.7244 23.4826 24.6101C23.4329 24.9692 22.9856 25.2565 22.7122 25.5917C22.4637 25.2565 22.0165 24.9453 22.0165 24.6101C21.9419 22.5034 21.9419 20.3728 22.0165 18.2661C22.0413 17.7634 22.4389 17.2846 22.6874 16.7818C23.1844 17.117 23.905 17.3564 24.1535 17.8112C24.8244 19.0322 25.2469 20.3728 25.8432 21.6177C26.0917 22.1443 26.4645 22.6471 26.9614 23.4131C27.9306 21.2586 28.7257 19.4152 29.6203 17.6197C29.7942 17.2367 30.3658 17.0452 30.7634 16.7579C31.0367 17.117 31.4591 17.4521 31.5337 17.8591C31.6828 18.6252 31.6331 19.4391 31.6331 20.2531C31.6331 21.7374 31.6579 23.2216 31.5834 24.682ZM41.0509 17.7394C40.9763 18.2421 40.6782 18.697 40.5042 19.1758C39.883 20.8037 39.2866 22.4556 38.6902 24.0835C38.5908 24.3468 38.5163 24.658 38.3175 24.8256C37.8702 25.2326 37.3235 25.9029 36.8762 25.855C36.429 25.8071 35.932 25.0889 35.7083 24.5383C34.7392 22.0965 33.8446 19.6067 32.9252 17.1649C34.0434 16.6142 34.5653 16.9494 34.9629 18.314C35.1865 19.104 35.4847 19.894 35.7829 20.6601C36.0811 21.4261 36.4041 22.1922 36.7768 23.078C38.2678 22.288 38.1932 20.8755 38.7151 19.7743C39.0878 18.9843 39.2866 18.1224 39.6842 17.3564C39.8084 17.093 40.3054 16.9733 40.6285 16.8058C40.7776 17.093 41.0757 17.4521 41.0509 17.7394ZM47.5117 21.8571C46.791 22.1443 45.9959 22.4316 45.2255 22.4795C44.3558 22.5274 44.0576 22.8865 44.1073 23.6525C44.1322 24.0595 44.2067 24.4904 44.0825 24.8256C43.9334 25.2086 43.6104 25.5438 43.337 25.9029C43.0637 25.5677 42.6164 25.2326 42.5915 24.8735C42.4921 23.7244 42.5418 22.5753 42.5418 21.4261C42.5418 20.2292 42.5418 19.0322 42.5418 17.8352C42.5418 17.117 42.8649 16.6861 43.6601 16.7579C45.1758 16.8776 46.791 16.2791 48.1329 17.524C49.3008 18.5773 48.9778 21.2586 47.5117 21.8571Z" fill="white"/>
<path d="M34.9379 51.7817C33.4469 51.7817 32.6518 52.476 32.6269 53.8645C32.6021 55.1094 33.6209 56.1148 34.913 56.1388C36.4785 56.1627 37.224 55.4206 37.224 53.8406C37.224 52.3324 36.6276 51.7817 34.9379 51.7817ZM35.0124 54.7982C34.2918 55.0136 33.9191 54.4391 34.0185 53.8406C34.093 53.4336 34.5154 53.0745 34.9627 52.4042C35.4597 53.0266 36.0312 53.4336 36.0064 53.7448C35.9318 54.1518 35.4349 54.6785 35.0124 54.7982Z" fill="white"/>
<path d="M47.3378 19.5589C47.3378 20.6601 46.8408 21.0911 45.4244 21.115C44.2565 21.3783 44.0577 20.6601 44.0825 19.6307C44.1074 18.7689 44.1074 18.0747 45.3498 18.1465C46.8905 18.1944 47.3378 18.4337 47.3378 19.5589Z" fill="white"/>
</g>
<defs>
<clipPath id="clip0_279_1763">
<rect width="70" height="70" fill="white"/>
</clipPath>
</defs>
</svg>
