<svg width="70" height="70" viewBox="0 0 70 70" fill="none" xmlns="http://www.w3.org/2000/svg">
<g clipPath="url(#clip0_279_1791)">
<path d="M69.9752 21.944C69.8758 21.2949 69.9255 20.6209 69.9752 19.9468C70.0248 19.0731 69.8262 18.5238 68.9074 18.1244C67.4175 17.4753 67.4672 17.2007 68.0383 15.603C68.1873 15.1537 68.0631 14.4297 67.7652 14.0552C66.9954 13.0816 66.0518 12.2578 65.1827 11.3591C64.6116 10.7849 64.0653 10.6351 63.3452 11.1594C62.6499 11.6587 61.7808 11.8584 61.458 10.7599C60.9862 9.18719 59.8936 8.91258 58.503 9.06236C57.9816 9.11229 57.4104 9.11229 56.889 9.06236C55.7219 8.93754 54.9024 9.26208 54.5051 10.4853C54.1327 11.6087 53.4126 11.7585 52.3696 11.1094C51.9972 10.8848 51.1777 10.8348 50.9542 11.0595C49.6382 12.3826 47.8751 13.3562 47.304 15.3284C47.2543 15.5281 47.006 15.8277 46.8322 15.8277C45.4416 15.8527 44.0262 15.8527 42.6357 15.7528C42.3874 15.7278 42.0646 15.2785 41.9404 14.9539C40.4753 10.6102 38.0915 6.91543 34.3916 4.14439C31.2132 1.84767 27.7368 0.274917 23.7637 0.0752027C22.1745 0.000309707 20.6101 -0.049619 19.0458 0.100167C17.4317 0.274917 15.6935 0.424704 14.2533 1.07378C12.0184 2.07235 9.85811 3.32057 7.89642 4.7685C3.67506 7.914 1.3409 12.3577 0.49663 17.4254C-0.148989 21.2699 0.124158 25.1644 1.71337 28.909C3.2281 32.4539 5.28911 35.4996 8.36822 37.7714C9.68429 38.745 10.7024 39.8184 11.2983 41.3413C11.8198 42.7143 11.4473 43.4133 9.95743 43.4632C8.29372 43.4882 6.65484 43.4882 4.99113 43.4632C4.07237 43.4383 3.60057 43.7878 3.30259 44.7364C2.78113 46.434 2.03618 48.0317 1.4154 49.7043C0.918765 51.0524 0.49663 52.4254 0 53.9233C0.620788 53.9732 1.01809 54.0231 1.44023 54.0481C3.32742 54.098 3.45158 54.2229 3.45158 56.1701C3.47641 58.5916 3.37708 60.9882 3.47641 63.4097C3.52607 64.6579 3.69989 66.006 4.19652 67.1294C4.89181 68.7022 6.13338 69.9753 8.04541 70.0003C16.9847 70.0502 25.9241 70.0253 34.8634 70.0003C35.4097 70.0003 36.0057 69.8256 36.5023 69.551C38.5385 68.3776 39.4573 66.5053 39.4821 64.2086C39.5069 61.3876 39.5069 58.5417 39.5069 55.7207C39.5069 54.5973 39.9539 53.9982 41.1458 54.0731C41.6673 54.098 42.1887 54.0231 42.9337 53.9732C42.7598 53.2742 42.7102 52.7749 42.5364 52.3256C41.6424 49.9789 40.5747 47.6822 39.8546 45.2607C39.4076 43.7378 38.613 43.4383 37.2472 43.5131C35.807 43.588 34.342 43.5631 32.9017 43.5131C31.8092 43.4882 31.2132 42.8391 31.5112 41.9654C32.0326 40.4675 32.7031 39.0945 34.1433 38.1708C36.9989 36.3484 38.9855 33.7271 40.4257 30.7064C42.437 26.5124 42.3874 26.4875 46.1121 26.6872C46.3107 26.7122 46.5591 26.6872 46.7329 26.7621C46.9315 26.8619 47.2295 27.0117 47.2792 27.2114C47.7013 29.0838 49.4395 29.8577 50.5321 31.1808C51.1032 31.8548 51.7488 32.0545 52.5931 31.4554C53.1642 31.031 54.0333 30.8063 54.3313 31.7549C54.8528 33.4276 56.0447 33.6522 57.5098 33.5024C58.0312 33.4525 58.6023 33.4525 59.1238 33.5024C60.2164 33.6273 60.9117 33.2778 61.2841 32.1544C61.6318 31.031 62.4761 30.8063 63.4197 31.4554C64.1646 31.9547 64.7357 31.73 65.282 31.2057C66.0518 30.4568 66.8216 29.7079 67.5913 28.9589C68.2618 28.2849 68.5598 27.6109 67.939 26.6622C67.5169 26.0381 67.3927 25.2143 68.4356 24.8648C69.7765 24.3405 70.1738 23.342 69.9752 21.944ZM44.4732 17.4753C45.1933 17.4753 45.7893 17.5003 45.7893 18.4989C45.7893 20.0217 45.541 20.546 44.4484 20.546C41.9156 20.5959 39.4076 20.5709 36.8748 20.5959C35.6332 20.5959 34.3916 20.6458 33.1501 20.5959C32.132 20.5709 31.387 20.1465 31.3125 18.9982C31.2629 18.0745 31.6353 17.5003 32.6783 17.5003C34.6896 17.5253 36.7258 17.5003 38.7371 17.5003V17.4753C40.674 17.4753 42.5612 17.4753 44.4732 17.4753ZM9.73395 36.6979C6.33203 34.1515 3.84888 30.8562 2.6818 26.812C1.78787 23.7164 1.29124 20.546 2.21 17.1758C3.05427 14.0802 4.17169 11.2592 6.15821 8.78776C8.64136 5.69218 11.8695 3.59517 15.5694 2.34696C17.4317 1.72285 19.4431 1.59803 20.5357 1.39831C25.5516 1.49817 29.2763 2.74639 32.7031 5.118C36.0802 7.46465 38.5385 10.4853 39.8546 14.4047C40.2519 15.603 39.9539 15.9775 38.6378 16.0024C36.6016 16.0274 34.5654 16.1522 32.5541 15.9775C29.8226 15.7528 27.5381 17.0759 25.1046 17.8997C24.2107 18.1993 23.3168 18.5238 22.5222 19.0231C21.8766 19.4226 21.1813 19.9967 20.8336 20.6458C20.4115 21.4946 19.8155 21.4946 19.0954 21.4696C18.3008 21.4447 18.276 20.8455 18.1767 20.2464C18.0028 19.2228 17.7794 18.1993 17.4814 17.2257C17.1089 16.0024 15.0479 14.7542 13.6077 14.7542C11.9191 14.7542 10.0319 16.0274 9.5353 17.5253C8.93934 19.2728 9.48563 21.5695 11.0004 22.4183C12.0929 23.0424 13.4587 23.292 14.7251 23.3919C16.7116 23.5417 16.8358 23.5666 16.9599 25.5139C17.2579 30.282 17.5559 35.0502 17.8787 39.8184C17.9283 40.4425 18.1022 41.0417 18.2015 41.6408C18.3753 42.7393 17.8538 43.4133 16.7364 43.4882C16.3143 43.5131 15.917 43.5131 15.4949 43.4882C13.3345 43.4632 13.3842 43.4632 12.9372 41.3662C12.5647 39.394 11.3232 37.8962 9.73395 36.6979ZM29.7978 23.3669C29.773 24.3156 29.177 24.5153 28.4569 24.2407C26.6939 23.5916 24.9557 22.8926 23.2175 22.1686C22.8698 22.0189 22.4973 21.5945 22.4477 21.245C22.4228 21.0203 22.8946 20.6209 23.2423 20.4711C24.9308 19.7221 26.6442 19.0231 28.3576 18.3741C29.1522 18.0495 29.773 18.2992 29.8226 19.2728C29.8723 19.9718 29.8226 20.6708 29.8226 21.3698H29.7978C29.7978 22.0438 29.7978 22.7179 29.7978 23.3669ZM14.1043 21.5196C14.0546 21.6194 13.9801 21.7193 13.9305 21.8191C13.111 21.3698 12.1923 21.0702 11.497 20.4711C10.6527 19.7221 10.7272 18.7735 11.2983 17.7749C12.0433 16.4518 13.2104 16.5017 14.4271 16.6515C15.4452 16.7763 15.9915 17.4504 16.2398 18.424C16.2895 18.6237 16.2895 18.8234 16.3143 19.0481C16.5378 21.3698 16.3888 21.5196 14.1043 21.5196ZM3.69989 52.6002C2.58248 52.5752 2.23484 51.9761 2.63214 50.9525C3.30259 49.2799 3.92338 47.5823 4.69315 45.9347C4.91664 45.4853 5.56226 44.986 6.03405 44.9611C9.5353 44.8862 13.0614 44.9112 16.5626 44.9361C17.5062 44.9361 17.829 45.5103 17.531 46.3591C16.9351 48.0567 16.215 49.7293 15.619 51.4518C15.2962 52.3505 14.7002 52.6501 13.8311 52.6501C12.1426 52.6501 10.4541 52.6501 8.74069 52.6501V52.6251C7.07698 52.6002 5.38844 52.6251 3.69989 52.6002ZM19.4679 58.0424H19.3934C19.3934 60.9383 19.4182 63.8591 19.3934 66.7549C19.3934 68.4026 19.2196 68.5524 17.6055 68.5524C14.9734 68.5524 12.3164 68.5274 9.68429 68.5524C7.20114 68.6023 5.16495 67.1793 5.33877 64.2335C5.51259 61.5124 5.3636 58.7414 5.3636 56.0203C5.3636 54.123 5.46293 54.0231 7.42462 53.9982C9.9326 53.9982 12.4654 53.9732 14.9734 53.9982C16.0163 53.9982 16.6123 53.6736 16.9103 52.5502C17.2579 51.1522 17.8787 49.8291 18.425 48.506C18.4995 48.3063 18.8223 48.1815 19.0209 48.0067C19.1699 48.3063 19.4431 48.6059 19.4431 48.9054C19.4927 51.9761 19.4679 54.9967 19.4679 58.0424ZM19.8404 42.0403C19.5921 37.9461 19.3437 33.852 18.9961 29.7828C18.8719 28.3099 18.5243 26.837 18.4001 26.0131C18.3256 23.5916 18.4498 23.3919 20.2377 23.4918C21.3054 23.5417 22.3732 23.9161 23.4409 24.1658C24.4094 24.3905 24.6328 25.0895 24.5584 25.9632C24.1859 30.0823 23.7886 34.2015 23.3913 38.3455C23.2919 39.5938 23.1678 40.817 23.1181 42.0652C23.0685 43.2136 22.4477 43.5381 21.4296 43.5381C20.3867 43.4882 19.9149 43.0888 19.8404 42.0403ZM37.5949 65.0324C37.6197 67.1044 35.956 68.4276 34.2178 68.5024C30.2944 68.6522 26.3711 68.5524 22.4477 68.5524C21.4792 68.5524 21.2806 67.9283 21.2806 67.1544C21.2558 65.2821 21.2806 63.4097 21.2558 61.5374C21.2558 57.6679 21.2309 53.7985 21.2558 49.9539C21.2558 49.3298 21.4048 48.7307 21.4792 48.1066C21.6531 48.1066 21.8517 48.0816 22.0255 48.0567C22.6215 49.5795 23.3168 51.0773 23.7637 52.6251C24.0617 53.6736 24.608 54.0231 25.6261 53.9982C29.0032 53.9732 32.4051 53.9982 35.7822 53.9982C37.3714 53.9982 37.5949 54.1729 37.6197 55.7706C37.6694 58.8662 37.5701 61.9368 37.5949 65.0324ZM36.9989 44.9361C38.5385 44.9361 38.4392 46.4839 38.8861 47.3826C39.4573 48.4811 39.7304 49.7043 40.1774 50.8527C40.6243 52.026 40.376 52.5253 39.1344 52.5502C37.0734 52.5752 34.9876 52.5502 32.9266 52.5502V52.6251C31.1387 52.6251 29.3757 52.6251 27.5878 52.6251C25.1295 52.6002 25.5764 52.6251 24.5087 50.3534C23.9127 49.0802 23.5403 47.7321 23.0685 46.409C22.7705 45.5852 22.9691 44.9611 23.9624 44.9611C28.3327 44.9361 32.6783 44.9112 36.9989 44.9361ZM39.3828 29.1587C37.7935 32.4789 35.3849 35.0752 32.5541 37.322C31.0394 38.5452 30.1454 40.093 29.8723 42.0403C29.6736 43.3634 29.4253 43.5131 27.265 43.4882C26.8925 43.4882 26.52 43.5131 26.1476 43.4882C25.0302 43.4133 24.5335 42.7892 24.6328 41.6908C24.8067 39.9183 24.9805 38.1458 25.1295 36.3733C25.4026 33.1529 25.6261 29.9325 25.8993 26.7122C25.9489 25.9383 26.2717 25.1394 27.1905 25.5638C30.1951 27.0367 33.3984 26.5873 36.552 26.6622C36.9989 26.6622 37.4707 26.6622 37.9177 26.6622C39.9291 26.6622 40.2519 27.3363 39.3828 29.1587ZM45.6155 24.6151C45.4913 24.8648 45.0195 25.0146 44.6967 25.0146C42.7598 25.0395 40.823 25.0395 38.8861 25.0395V25.0895C37.0238 25.0895 35.1614 25.0895 33.3239 25.0895C32.1071 25.0895 31.3374 24.4654 31.3622 23.5167C31.4118 22.2435 32.3058 22.0937 33.2742 22.0937C36.8996 22.0688 40.5498 22.0688 44.1752 22.0688C45.4913 22.0688 46.2611 23.4169 45.6155 24.6151ZM66.9457 23.5666C65.5055 23.991 65.0089 25.0395 65.8531 26.2378C66.6974 27.4361 66.0518 28.1351 65.3317 28.909C64.5867 29.7079 63.817 30.0324 62.7492 29.3334C61.5325 28.5595 60.6634 28.9589 60.2164 30.2821C59.8687 31.2806 59.3225 31.9796 58.0809 32.0046C56.8145 32.0545 56.0447 31.5303 55.6226 30.3819C55.0763 28.934 54.1823 28.5345 52.8911 29.3584C51.7985 30.0823 51.1281 29.5581 50.4328 28.8591C49.7127 28.1351 49.0422 27.3862 49.8865 26.2878C50.11 25.9882 50.1596 25.5388 50.4079 24.7899C50.0106 24.4154 49.6382 23.8662 49.1167 23.6415C48.0241 23.1422 47.2047 22.6679 47.2295 21.245C47.2792 19.8969 48.0241 19.3227 49.1167 18.9732C50.2093 18.5987 50.5569 17.725 50.0355 16.5017C49.4147 15.1037 49.961 13.6059 51.3764 13.0816C51.7985 12.9318 52.4193 13.1316 52.8663 13.3313C54.2817 14.0053 55.1259 13.7057 55.6226 12.2828C56.0199 11.1094 56.7648 10.6102 58.056 10.6351C59.2976 10.6351 59.8687 11.2592 60.2164 12.2828C60.713 13.6808 61.607 14.1551 62.7989 13.3562C63.8666 12.6572 64.6116 12.9318 65.3813 13.7307C66.2008 14.5545 66.6974 15.3284 65.878 16.5267C65.1082 17.7 65.5552 18.5488 66.9209 18.9982C68.0383 19.3726 68.6591 20.0716 68.6343 21.3947C68.5598 22.618 68.0135 23.2671 66.9457 23.5666Z" fill="white"/>
<path d="M12.7139 35.6489C9.46098 33.7017 7.27581 30.8558 5.88524 27.4107C5.76109 27.1111 6.05906 26.6118 6.15839 26.2124C6.53086 26.3622 7.05233 26.4371 7.22615 26.7117C7.94626 27.8101 8.41806 29.0833 9.21267 30.0819C10.2308 31.3551 11.4475 32.5034 12.6642 33.6018C13.4589 34.3258 13.5582 34.9 12.7139 35.6489Z" fill="white"/>
<path d="M6.15828 22.3929C6.13344 22.7424 5.76097 23.0669 5.53749 23.4164C5.28917 23.1667 5.01603 22.9421 4.64355 22.5676C5.01603 22.1432 5.26434 21.8686 5.48783 21.594C5.71131 21.8686 6.15828 22.1432 6.15828 22.3929Z" fill="white"/>
<path d="M20.1629 7.61406C19.6415 7.91363 19.3435 8.23817 19.12 8.18824C18.8717 8.13831 18.5986 7.76385 18.5489 7.48924C18.5241 7.33945 18.9462 6.94002 19.1449 6.96499C19.418 6.96499 19.6663 7.28952 20.1629 7.61406Z" fill="white"/>
<path d="M14.6754 8.61275C14.3278 8.11346 14.0298 7.86382 14.0298 7.58921C14.0298 7.3895 14.4023 6.9651 14.5512 6.99007C14.8244 7.04 15.1969 7.3146 15.2465 7.56425C15.321 7.76396 14.9982 8.0885 14.6754 8.61275Z" fill="white"/>
<path d="M24.7074 7.61396C24.2852 7.91353 24.0121 8.23807 23.8134 8.18814C23.5403 8.11325 23.3416 7.78871 23.1182 7.56403C23.3665 7.33935 23.59 7.01482 23.8631 6.96489C24.0369 6.93992 24.3101 7.28942 24.7074 7.61396Z" fill="white"/>
<path d="M29.2764 7.63894C28.7798 7.93852 28.4818 8.21312 28.2335 8.18816C28.0348 8.16319 27.6624 7.68887 27.712 7.56405C27.8114 7.28944 28.1342 7.01483 28.4073 6.93994C28.5563 6.93994 28.8294 7.28944 29.2764 7.63894Z" fill="white"/>
<path d="M34.8635 64.7325C34.6152 64.9572 34.3917 65.3566 34.1185 65.4066C33.2991 65.4815 32.4548 65.4315 31.6354 65.4315C30.8905 65.4315 30.1455 65.4815 29.4006 65.4066C29.1026 65.3816 28.8543 65.0071 28.606 64.8074C28.8791 64.5578 29.1274 64.0835 29.4006 64.0585C30.965 63.9836 32.5542 64.0086 34.1185 64.0585C34.3917 64.0585 34.6152 64.4829 34.8635 64.7325Z" fill="white"/>
<path d="M57.9566 15.9521C54.9271 15.9271 52.5681 18.6732 52.593 21.2445C52.6178 23.7909 54.7533 26.9364 57.8572 26.537C60.9115 26.9364 63.047 23.9906 63.1215 21.2944C63.2208 18.6233 60.5639 15.977 57.9566 15.9521ZM57.8076 25.0641C55.9949 25.0391 54.0084 23.017 54.0829 21.2445C54.1325 19.497 56.1935 17.4499 57.8821 17.4499C59.6451 17.4499 61.7061 19.5969 61.6813 21.3693C61.6565 23.1418 59.5955 25.089 57.8076 25.0641Z" fill="white"/>
</g>
<defs>
<clipPath id="clip0_279_1791">
<rect width="70" height="70" fill="white"/>
</clipPath>
</defs>
</svg>
