<svg width="70" height="70" viewBox="0 0 70 70" fill="none" xmlns="http://www.w3.org/2000/svg">
<g clipPath="url(#clip0_279_1777)">
<path d="M25.3805 62.9065C22.8137 62.0438 20.4388 60.8216 18.2078 59.2879C14.4895 56.7237 11.4189 53.5843 9.25987 49.6302C8.20436 47.6651 7.31676 45.5802 6.59709 43.4714C6.06933 41.9616 5.82944 40.3081 5.63753 38.7024C5.4936 37.5522 5.61354 36.4019 5.61354 35.2276C5.42163 29.3803 7.02889 24.0362 10.1954 19.1235C12.2105 16.0082 14.7534 13.3481 17.728 11.1434C18.4957 10.5682 19.2393 10.4005 19.839 11.383C20.7986 12.9407 23.7732 12.7969 24.6368 10.6881C25.2126 9.29813 25.8843 7.95612 26.532 6.61411C27.3236 4.98454 26.8438 3.01946 25.2126 2.1807C23.9891 1.55763 22.6458 1.19816 21.3743 0.742838C20.7506 0.527158 20.1269 0.26355 19.4792 0.0957991C18.3997 -0.215738 17.5121 0.311479 16.8884 1.00645C16.2407 1.74934 15.8089 2.68395 16.4326 3.76235C16.8164 4.43335 17.1283 5.15229 16.2647 5.7514C15.3051 6.39844 14.2976 7.02151 13.386 7.74044C7.86851 12.0301 4.10223 17.5898 1.9912 24.18C0.407919 29.1167 -0.59962 34.1492 0.407919 39.4453C0.983656 42.4649 1.5354 45.4125 2.71087 48.2882C5.27769 54.5908 9.33184 59.6473 14.8733 63.5056C16.8644 64.8955 19.1194 65.9739 21.3024 67.0523C22.2859 67.5316 23.4614 67.7233 24.5649 67.8671C25.4765 67.963 26.6279 66.7408 26.7959 65.7343C26.9638 64.7278 26.2201 63.1941 25.3805 62.9065ZM24.9007 65.6145C24.8288 65.902 24.0371 66.2855 23.7253 66.1656C20.5107 64.9914 17.4881 63.4097 14.7774 61.3488C11.275 58.6648 8.39627 55.4536 6.21327 51.5713C4.51004 48.5278 3.02272 45.4125 2.54294 41.8897C2.25508 39.685 1.94322 37.5042 1.63136 35.2995C1.72732 35.2995 1.84726 35.2755 1.94322 35.2755C1.58338 31.4173 2.39901 27.7028 3.64644 24.1081C6.02135 17.3741 10.1715 11.9342 16.0728 7.86026C17.1043 7.14133 18.1358 6.44636 19.1913 5.82329C20.4388 5.10436 20.3188 4.52921 19.0474 3.69046C18.8555 3.57064 18.4957 3.61857 18.3757 3.45081C18.1838 3.18721 18.0639 2.82774 18.0639 2.49224C18.0639 2.32449 18.4237 2.06088 18.6396 2.03692C19.1913 1.98899 19.7911 1.96502 20.2948 2.13277C21.5663 2.5162 22.8856 2.89963 24.0371 3.54667C24.5409 3.83424 25.0926 4.84075 24.9487 5.32004C24.4209 6.97358 23.6293 8.53127 22.8377 10.089C22.6697 10.4245 22.022 10.5203 21.6142 10.736C21.4703 10.2567 21.2784 9.77742 21.1584 9.27416C21.1105 9.10641 21.3264 8.89073 21.3264 8.69902C21.3024 8.38748 21.2784 7.98009 21.0865 7.78837C20.8946 7.62062 20.4628 7.54873 20.1989 7.64458C17.5841 8.69902 15.497 10.4963 13.458 12.3895C10.1954 15.5528 7.6766 19.2434 6.02135 23.4611C4.43808 27.4871 3.59846 31.7048 3.7424 36.0664C4.07824 45.724 8.18037 53.5843 15.6889 59.5515C17.8 61.229 20.4148 62.2834 22.8137 63.6014C23.3174 63.889 23.9652 63.9609 24.397 64.3443C24.7088 64.6319 24.9967 65.255 24.9007 65.6145Z" fill="white"/>
<path d="M69.3767 29.5482C69.1608 27.8946 68.9209 26.1932 68.3212 24.6594C67.1457 21.7837 65.8743 18.884 64.315 16.2C62.036 12.2698 58.8695 9.01068 55.0792 6.51839C53.0641 5.20034 50.9291 4.07402 48.7701 2.99562C47.7866 2.51633 46.6111 2.30065 45.4836 2.18083C44.5001 2.06101 43.4205 3.23526 43.2766 4.2897C43.1327 5.39206 43.9003 6.75803 44.7879 7.16542C46.3232 7.83643 47.8105 8.55536 49.3219 9.25033C53.0641 11.0237 56.0148 13.8036 58.4857 16.9908C62.156 21.7358 64.363 27.1038 64.5309 34.1254C64.4589 35.9467 64.7228 38.7026 63.7632 41.3626C62.9956 43.5194 62.4439 45.7481 61.5323 47.833C59.5892 52.3383 56.3027 55.7892 52.4644 58.7608C51.6008 59.4318 50.9291 59.4557 50.1375 58.5451C48.6022 56.7957 46.2992 57.3229 45.3876 59.5037C45.0278 60.3424 44.668 61.1812 44.1882 61.972C42.2211 65.2551 43.2286 67.9631 47.1388 68.706C48.0504 68.8737 48.962 69.2332 49.8256 69.6166C51.193 70.2158 51.9846 70.1439 53.0162 68.9936C53.7838 68.1548 54.2156 67.2681 53.472 66.0939C53.0162 65.3749 53.0162 64.7279 53.9997 64.1528C55.511 63.2661 56.9983 62.2356 58.2458 61.0134C61.7961 57.5865 64.7708 53.7282 66.8099 49.175C68.609 45.149 69.5686 40.9552 69.9284 36.6416C70.1443 34.3171 69.6885 31.8967 69.3767 29.5482ZM67.5055 41.4585C66.9058 43.9987 66.1861 46.5389 65.1066 48.9114C62.9956 53.5365 59.997 57.5625 55.8948 60.6779C54.2636 61.9001 52.5844 63.0264 50.8811 64.1528C49.4658 65.0634 49.5378 65.4948 51.073 66.3096C51.6248 66.6211 52.1765 66.8607 51.8887 67.4598C51.7447 67.7714 51.0011 68.035 50.6173 67.9391C48.938 67.5078 47.2588 67.0524 45.6755 66.3575C44.9558 66.0459 44.5001 65.2072 45.0038 64.2247C45.6275 63.0025 46.1313 61.6844 46.755 60.4622C47.0669 59.8152 47.4267 58.8806 48.3863 59.3359C49.2499 59.7433 48.89 60.5341 48.6022 61.2291C48.5302 61.3969 48.4343 61.5886 48.3383 61.8042C48.6502 62.0679 48.938 62.3315 49.3219 62.667C54.8633 59.7433 59.2293 55.6933 62.2279 50.1336C63.6913 47.4496 64.9387 44.6937 65.4905 41.746C66.1382 38.3671 66.7139 34.9641 66.0902 31.4174C65.5384 28.302 64.8428 25.2585 63.5713 22.3828C61.6042 17.9015 58.8215 14.0192 54.9353 11.0237C52.8242 9.39411 50.4973 8.05211 48.1944 6.66217C47.4747 6.23081 46.5391 6.13496 45.7955 5.72756C45.4116 5.51188 44.9079 4.84088 45.0038 4.52934C45.1717 3.97816 45.6036 3.61869 46.4911 3.97816C49.058 5.03259 51.5049 6.23081 53.8558 7.7885C57.1183 9.94529 59.7811 12.6533 62.084 15.7686C64.363 18.884 66.1142 22.287 67.0737 25.9775C68.3691 31.0579 68.753 36.2822 67.5055 41.4585Z" fill="white"/>
<path d="M55.4869 40.1643C56.3505 40.9791 56.6144 41.9856 56.2066 43.1119C56.0627 43.5193 55.8468 43.9506 55.5349 44.1903C55.271 44.382 54.8392 44.358 54.4554 44.4299C54.3834 44.0705 54.1435 43.5672 54.3115 43.3755C55.1991 42.2492 54.5993 41.4583 53.7837 40.7154C52.2964 39.3255 51.8166 37.7199 51.8166 35.611C51.8166 32.951 52.0325 30.5785 54.2395 28.7572C54.9352 28.1821 54.8392 27.559 54.3355 26.7682C53.4479 25.4022 52.7522 23.9404 51.9605 22.5265C51.5287 21.7356 51.1209 21.3522 49.9455 21.5679C47.8824 21.9513 45.6274 22.5025 43.7803 20.6093C43.3005 20.1061 42.4369 20.0102 41.8372 19.6028C41.2854 19.2434 40.6617 18.812 40.3499 18.2608C39.8941 17.446 39.7261 16.4635 39.4143 15.5768C39.0544 14.5943 38.4547 13.9472 37.3032 13.9472C35.9119 13.9712 34.4965 13.9233 33.1052 13.9712C31.4259 14.0431 30.9941 14.4744 30.5143 16.08C30.2745 16.8709 29.9146 17.6377 29.6747 18.4286C29.2909 19.6028 28.0435 19.5309 27.2998 20.178C26.6281 20.7531 25.8125 21.1605 24.9969 21.5439C24.5171 21.7596 23.9174 21.8794 23.3896 21.8315C22.1422 21.7356 20.8947 21.4241 19.6233 21.3762C19.1915 21.3522 18.5678 21.7836 18.3279 22.191C17.2964 23.7966 16.3608 25.4501 15.4732 27.1276C15.3053 27.4631 15.4252 28.0383 15.6172 28.4217C15.881 28.925 16.3368 29.3563 16.7207 29.8116C17.1045 30.267 17.4883 30.7223 17.8241 31.2255C18.5438 32.28 18.2799 38.1992 17.4883 39.1817C16.8886 39.9246 16.1929 40.5956 15.7131 41.4104C15.4732 41.8178 15.3533 42.5367 15.5452 42.9441C16.3368 44.5258 17.2724 46.0595 18.208 47.5693C18.6158 48.2403 19.0476 48.5997 20.1031 48.408C22.2141 48.0246 24.4931 47.4015 26.3642 49.3426C26.82 49.8219 27.6357 49.9178 28.2114 50.3252C28.7871 50.7326 29.4348 51.1639 29.7707 51.7391C30.2025 52.5059 30.3704 53.4405 30.6583 54.3272C30.9701 55.2858 31.4979 55.8609 32.6734 55.7651C34.2326 55.6453 35.7919 55.6692 37.3512 55.7172C38.6226 55.7651 39.2703 55.2139 39.5582 54.0397C39.7741 53.2009 40.1339 52.3861 40.3978 51.5474C40.7817 50.3731 42.0531 50.3731 42.8447 49.75C43.4924 49.2228 44.2601 48.8154 45.0517 48.5039C45.6514 48.2642 46.3711 48.0965 47.0188 48.1204C48.2662 48.1684 49.5137 48.3841 50.7611 48.5039C50.7851 48.6237 50.8331 48.7196 50.8571 48.8154C51.2649 48.3122 51.6727 47.7849 52.1285 47.3057C52.3684 47.066 52.7522 46.9462 53.064 46.7784C53.184 47.09 53.4239 47.4015 53.4239 47.7131C53.3759 49.6542 50.905 50.9722 48.9859 50.0616C47.8104 49.4864 46.7549 49.2947 45.5795 50.1814C44.6919 50.8524 43.3965 51.0681 42.6528 51.8349C41.8612 52.6737 41.3094 53.8479 40.9496 54.9743C40.3978 56.7237 39.6782 57.4426 37.855 57.4905C35.8639 57.5145 33.8488 57.5145 31.8577 57.5145C30.6343 57.5145 29.6987 56.7476 29.3629 55.5494C29.2429 55.118 29.075 54.7107 29.003 54.2793C28.6192 51.9547 26.4842 51.4515 24.9489 50.3491C23.6295 49.4145 22.3581 49.3906 20.8708 50.1335C19.3834 50.8763 17.8721 50.2293 17.0325 48.7914C16.001 47.066 14.9934 45.3166 13.9619 43.5912C13.3382 42.5128 13.3862 41.4823 14.1538 40.4998C14.2498 40.3799 14.3457 40.2362 14.4657 40.1403C16.5287 38.4388 16.9845 36.2101 16.7446 33.6459C16.6727 32.7113 16.4568 31.9684 15.8331 31.2974C15.3053 30.7223 14.7775 30.1232 14.2978 29.5001C13.3862 28.3259 13.3622 27.4631 14.1058 26.217C15.0414 24.6114 16.001 23.0058 16.9126 21.3762C17.8241 19.7466 19.5034 19.0037 21.1346 19.8425C22.502 20.5374 23.6295 20.5614 24.8529 19.6507C25.3807 19.2673 25.9804 18.9078 26.5801 18.6922C28.4513 18.0212 28.7631 16.3197 29.2909 14.786C29.9146 12.9647 30.5143 12.4614 32.3855 12.4614C34.3046 12.4614 36.2237 12.4614 38.1429 12.4854C39.4862 12.4854 40.4698 13.2762 40.8536 14.5703C40.9736 15.0017 41.1415 15.409 41.2135 15.8404C41.5733 18.141 43.7083 18.5723 45.2196 19.6507C46.491 20.5614 47.7385 20.6093 49.1778 19.8664C50.7131 19.0756 52.3684 19.8425 53.256 21.4241C54.1675 23.0058 55.0551 24.5874 55.9667 26.1691C56.7823 27.559 56.7104 28.5176 55.6549 29.7637C54.4794 31.1776 53.2799 32.3998 53.3039 34.5806C53.232 36.9051 53.8797 38.6545 55.4869 40.1643Z" fill="white"/>
<path d="M34.928 23.1736C28.499 23.2216 23.0295 28.8053 23.1494 35.2277C23.2454 41.3626 28.475 47.2099 35.0719 46.7786C41.8369 47.2339 47.0185 40.8354 46.8746 34.8203C46.7306 28.7573 41.6449 23.1257 34.928 23.1736ZM35.024 45.2928C29.5065 45.4126 24.7087 40.2842 24.6607 35.0121C24.5887 29.8118 29.8663 24.5396 35.1919 24.7074C40.5175 24.8751 45.3153 29.5961 45.3393 35.1319C45.3632 40.2123 40.3255 45.5804 35.024 45.2928Z" fill="white"/>
<path d="M40.0618 32.4958C38.0467 34.8204 35.9597 37.0491 33.8966 39.3257C33.057 40.2603 32.2654 39.781 31.6417 39.2059C30.922 38.5349 30.3702 37.6961 29.8185 36.8574C29.6506 36.5937 29.7705 36.1624 29.7705 35.8029C30.1783 35.8269 30.6581 35.755 31.0179 35.9227C31.3778 36.0905 31.6417 36.4979 31.9295 36.8334C32.7931 37.8639 33.057 37.9118 33.9686 36.9053C35.5519 35.2038 37.0632 33.4544 38.6465 31.7529C38.9583 31.4174 39.3421 31.1299 39.702 30.8423C39.8699 30.8902 40.0378 30.9142 40.1817 30.9621C40.1578 31.4893 40.3497 32.1843 40.0618 32.4958Z" fill="white"/>
</g>
<defs>
<clipPath id="clip0_279_1777">
<rect width="70" height="70" fill="white"/>
</clipPath>
</defs>
</svg>
